<svg preserveAspectRatio="none" width="100%" height="100%" overflow="visible" style="display: block;" viewBox="0 0 20 23" fill="none" xmlns="http://www.w3.org/2000/svg">
<g id="Pointer" filter="url(#filter0_d_317_144)">
<mask id="path-1-outside-1_317_144" maskUnits="userSpaceOnUse" x="2" y="1" width="16" height="19" fill="black">
<rect fill="white" x="2" y="1" width="16" height="19"/>
<path fill-rule="evenodd" clip-rule="evenodd" d="M8.31997 18.0558C8.31997 18.0558 5.97294 16.1076 5.14722 14.6153C4.32151 13.1229 2.75682 11.2218 3.03205 10.0279C3.30729 8.83403 4.32151 8.45778 5.14722 9.35318C5.97294 10.2486 6.52916 12.1886 7.07964 11.8902C7.63012 11.5917 7.21726 8.75624 6.66678 7.11467C6.11631 5.47309 5.54239 2 6.66678 2C7.79118 2 7.79118 3.14684 8.31997 4.86711C8.84876 6.58737 8.43591 8.88106 8.84876 8.88106C9.26162 8.88106 9.41917 8.48039 9.41917 7.73421C9.41917 7.53144 9.45583 7.36005 9.53027 7.21797C9.72975 6.83724 10.2005 6.66696 10.9639 6.66696C12.0123 6.66696 11.4927 8.88106 12.0215 8.88106C12.5503 8.88106 12.5503 8.92809 12.5503 7.73421C12.5503 6.54034 13.0406 6.66696 14.0982 6.66696C15.1558 6.66696 14.6438 8.88106 15.1943 8.88106C15.7447 8.88106 15.1943 7.73421 15.7231 7.73421C16.2518 7.73421 16.7806 7.9151 16.7806 10.6013C16.7806 13.2875 17.0776 13.4214 16.2518 14.6153C15.4261 15.8091 14.6655 16.909 14.6655 16.909C14.6655 16.909 14.6655 18.0558 14.0982 18.0558C13.531 18.0558 13.2384 16.909 12.5503 16.909C11.8622 16.909 11.4927 18.0558 11.4927 18.0558H8.31997ZM14.6659 15.7621V11.1747H13.6076V15.7621H14.6659ZM11.4924 14.6153C11.4924 14.9259 11.7379 15.7621 12.0216 15.7621C12.3138 15.7621 12.5507 14.9311 12.5507 14.6153V12.3216C12.5507 12.0109 12.3053 11.1747 12.0216 11.1747C11.7293 11.1747 11.4924 12.0057 11.4924 12.3216V14.6153ZM9.37724 14.6153C9.37724 14.9259 9.6227 15.7621 9.9064 15.7621C10.1986 15.7621 10.4356 14.9311 10.4356 14.6153V12.3216C10.4356 12.0109 10.1901 11.1747 9.9064 11.1747C9.61415 11.1747 9.37724 12.0057 9.37724 12.3216V14.6153Z"/>
</mask>
<path fill-rule="evenodd" clip-rule="evenodd" d="M8.31997 18.0558C8.31997 18.0558 5.97294 16.1076 5.14722 14.6153C4.32151 13.1229 2.75682 11.2218 3.03205 10.0279C3.30729 8.83403 4.32151 8.45778 5.14722 9.35318C5.97294 10.2486 6.52916 12.1886 7.07964 11.8902C7.63012 11.5917 7.21726 8.75624 6.66678 7.11467C6.11631 5.47309 5.54239 2 6.66678 2C7.79118 2 7.79118 3.14684 8.31997 4.86711C8.84876 6.58737 8.43591 8.88106 8.84876 8.88106C9.26162 8.88106 9.41917 8.48039 9.41917 7.73421C9.41917 7.53144 9.45583 7.36005 9.53027 7.21797C9.72975 6.83724 10.2005 6.66696 10.9639 6.66696C12.0123 6.66696 11.4927 8.88106 12.0215 8.88106C12.5503 8.88106 12.5503 8.92809 12.5503 7.73421C12.5503 6.54034 13.0406 6.66696 14.0982 6.66696C15.1558 6.66696 14.6438 8.88106 15.1943 8.88106C15.7447 8.88106 15.1943 7.73421 15.7231 7.73421C16.2518 7.73421 16.7806 7.9151 16.7806 10.6013C16.7806 13.2875 17.0776 13.4214 16.2518 14.6153C15.4261 15.8091 14.6655 16.909 14.6655 16.909C14.6655 16.909 14.6655 18.0558 14.0982 18.0558C13.531 18.0558 13.2384 16.909 12.5503 16.909C11.8622 16.909 11.4927 18.0558 11.4927 18.0558H8.31997ZM14.6659 15.7621V11.1747H13.6076V15.7621H14.6659ZM11.4924 14.6153C11.4924 14.9259 11.7379 15.7621 12.0216 15.7621C12.3138 15.7621 12.5507 14.9311 12.5507 14.6153V12.3216C12.5507 12.0109 12.3053 11.1747 12.0216 11.1747C11.7293 11.1747 11.4924 12.0057 11.4924 12.3216V14.6153ZM9.37724 14.6153C9.37724 14.9259 9.6227 15.7621 9.9064 15.7621C10.1986 15.7621 10.4356 14.9311 10.4356 14.6153V12.3216C10.4356 12.0109 10.1901 11.1747 9.9064 11.1747C9.61415 11.1747 9.37724 12.0057 9.37724 12.3216V14.6153Z" fill="var(--fill-0, white)"/>
<path d="M8.31997 18.0558L7.68127 18.8253L7.95901 19.0558H8.31997V18.0558ZM5.14722 14.6153L4.27223 15.0994L4.27223 15.0994L5.14722 14.6153ZM3.03205 10.0279L4.00649 10.2526L4.00649 10.2526L3.03205 10.0279ZM5.14722 9.35318L4.41209 10.0311L4.41209 10.0311L5.14722 9.35318ZM7.07964 11.8902L6.603 11.0111L6.603 11.0111L7.07964 11.8902ZM6.66678 7.11467L7.6149 6.79673L7.6149 6.79673L6.66678 7.11467ZM6.66678 2L6.66678 1L6.66678 1L6.66678 2ZM8.84876 8.88106L8.84876 9.88106L8.84876 9.88106L8.84876 8.88106ZM9.41917 7.73421L8.41917 7.73421L9.41917 7.73421ZM9.53027 7.21797L8.64449 6.75388L8.64449 6.75388L9.53027 7.21797ZM10.9639 6.66696L10.9639 5.66696L10.9639 5.66696L10.9639 6.66696ZM12.0215 8.88106L12.0215 7.88106L12.0215 7.88106L12.0215 8.88106ZM12.5503 7.73421L11.5503 7.73422L12.5503 7.73421ZM14.0982 6.66696L14.0982 5.66696L14.0982 5.66696L14.0982 6.66696ZM15.1943 8.88106L15.1943 9.88106L15.1943 8.88106ZM15.7231 7.73421L15.7231 6.73421L15.7231 6.73421L15.7231 7.73421ZM16.7806 10.6013L15.7806 10.6013L16.7806 10.6013ZM14.6655 16.909L13.843 16.3401L13.6655 16.5968V16.909H14.6655ZM14.0982 18.0558L14.0982 17.0558L14.0982 17.0558L14.0982 18.0558ZM12.5503 16.909L12.5503 15.909L12.5503 16.909ZM11.4927 18.0558V19.0558H12.2212L12.4445 18.3625L11.4927 18.0558ZM14.6659 15.7621V16.7621H15.6659V15.7621H14.6659ZM14.6659 11.1747H15.6659V10.1747H14.6659V11.1747ZM13.6076 11.1747V10.1747H12.6076V11.1747H13.6076ZM13.6076 15.7621H12.6076V16.7621H13.6076V15.7621ZM8.31997 18.0558C8.95867 17.2863 8.95874 17.2864 8.9588 17.2864C8.9588 17.2865 8.95885 17.2865 8.95887 17.2865C8.9589 17.2865 8.9589 17.2865 8.95886 17.2865C8.95878 17.2864 8.95856 17.2863 8.9582 17.286C8.95749 17.2854 8.95622 17.2843 8.95441 17.2828C8.9508 17.2798 8.94503 17.2749 8.93723 17.2684C8.92162 17.2552 8.89787 17.2352 8.86693 17.2087C8.80502 17.1559 8.71447 17.0777 8.60274 16.9789C8.37881 16.7809 8.07222 16.5022 7.7418 16.1796C7.05626 15.5104 6.35797 14.738 6.02221 14.1311L5.14722 14.6153L4.27223 15.0994C4.76219 15.9849 5.65027 16.9328 6.34468 17.6107C6.70424 17.9617 7.036 18.2633 7.27795 18.4772C7.39916 18.5844 7.49842 18.6701 7.56809 18.7296C7.60294 18.7594 7.63042 18.7826 7.6496 18.7987C7.65918 18.8068 7.6667 18.8131 7.67201 18.8175C7.67467 18.8198 7.67678 18.8215 7.67833 18.8228C7.67911 18.8235 7.67974 18.824 7.68023 18.8244C7.68048 18.8246 7.68069 18.8248 7.68086 18.8249C7.68095 18.825 7.68105 18.8251 7.68109 18.8251C7.68119 18.8252 7.68127 18.8253 8.31997 18.0558ZM5.14722 14.6153L6.02221 14.1311C5.79845 13.7267 5.52885 13.302 5.27365 12.9004C5.01172 12.4883 4.76182 12.0958 4.54663 11.7163C4.33 11.3344 4.17144 11.0047 4.08073 10.7275C3.98708 10.4413 3.99558 10.2999 4.00649 10.2526L3.03205 10.0279L2.05761 9.80325C1.93091 10.3529 2.03178 10.8968 2.1799 11.3495C2.33096 11.8111 2.56358 12.2739 2.80693 12.703C3.05172 13.1346 3.33062 13.5718 3.5857 13.9732C3.8475 14.3851 4.08314 14.7577 4.27223 15.0994L5.14722 14.6153ZM3.03205 10.0279L4.00649 10.2526C4.09428 9.87178 4.24383 9.84084 4.20157 9.85503C4.18136 9.86182 4.17094 9.855 4.19024 9.86145C4.21612 9.87009 4.29683 9.90611 4.41209 10.0311L5.14722 9.35318L5.88236 8.67526C5.28341 8.02576 4.43133 7.66809 3.56484 7.95909C2.74024 8.23603 2.24507 8.99015 2.05761 9.80325L3.03205 10.0279ZM5.14722 9.35318L4.41209 10.0311C4.71872 10.3636 4.98002 10.903 5.34261 11.5552C5.49313 11.826 5.69241 12.1707 5.92773 12.4249C6.04631 12.553 6.24178 12.7344 6.51932 12.8392C6.84518 12.9621 7.21817 12.9526 7.55629 12.7693L7.07964 11.8902L6.603 11.0111C6.80349 10.9024 7.03868 10.8975 7.22554 10.968C7.36406 11.0203 7.41932 11.0921 7.39544 11.0663C7.34584 11.0127 7.25124 10.8724 7.09069 10.5835C6.83111 10.1165 6.40144 9.23815 5.88236 8.67526L5.14722 9.35318ZM7.07964 11.8902L7.55629 12.7693C7.93678 12.563 8.10541 12.2169 8.18073 12.0127C8.2635 11.7883 8.30166 11.55 8.32073 11.3388C8.35934 10.9111 8.33503 10.4033 8.28024 9.89822C8.16994 8.88157 7.91489 7.69135 7.6149 6.79673L6.66678 7.11467L5.71867 7.4326C5.96915 8.17956 6.19577 9.22785 6.2919 10.1139C6.34033 10.5603 6.35042 10.9199 6.32883 11.159C6.31778 11.2813 6.30219 11.3263 6.30432 11.3205C6.30633 11.3151 6.32118 11.2753 6.36059 11.2206C6.40125 11.1642 6.47782 11.0789 6.603 11.0111L7.07964 11.8902ZM6.66678 7.11467L7.6149 6.79673C7.36414 6.04896 7.10195 4.85472 7.03648 3.87506C7.00287 3.37218 7.02842 3.01993 7.07984 2.83122C7.10517 2.73827 7.11555 2.76656 7.05537 2.8316C6.96766 2.9264 6.82031 3 6.66678 3L6.66678 2L6.66678 1C6.23216 1 5.85679 1.18214 5.58739 1.47328C5.34553 1.73466 5.22058 2.04711 5.1502 2.30542C5.01019 2.81922 5.0028 3.43783 5.04093 4.00842C5.11894 5.1757 5.41895 6.5388 5.71867 7.4326L6.66678 7.11467ZM6.66678 2L6.66678 3C6.76404 3 6.74025 3.01915 6.69672 2.98399C6.67722 2.96824 6.71854 2.99071 6.79208 3.16928C6.86631 3.3495 6.93594 3.59179 7.0296 3.94781C7.1183 4.28496 7.22422 4.70584 7.36411 5.16093L8.31997 4.86711L9.27583 4.57329C9.15133 4.16824 9.05895 3.80066 8.96379 3.43896C8.87359 3.09612 8.7738 2.72915 8.64138 2.40763C8.50827 2.08445 8.30572 1.7127 7.95346 1.42816C7.57717 1.1242 7.13172 1 6.66678 1L6.66678 2ZM8.31997 4.86711L7.36411 5.16093C7.58099 5.86648 7.61321 6.73211 7.62801 7.53756C7.63471 7.90186 7.63825 8.3067 7.67278 8.60921C7.689 8.75134 7.72144 8.9731 7.81481 9.18398C7.90532 9.38842 8.20435 9.88106 8.84876 9.88106L8.84876 8.88106L8.84877 7.88106C9.38996 7.88106 9.61158 8.30201 9.64358 8.3743C9.67844 8.45303 9.67126 8.48215 9.65987 8.38237C9.63918 8.20105 9.63547 7.92496 9.62767 7.5008C9.61349 6.72934 9.58774 5.588 9.27583 4.57329L8.31997 4.86711ZM8.84876 8.88106L8.84876 9.88106C9.12109 9.88106 9.41028 9.81222 9.67203 9.63531C9.92791 9.46237 10.0911 9.23118 10.1937 9.01311C10.3824 8.61191 10.4192 8.14032 10.4192 7.73421L9.41917 7.73421L8.41917 7.73421C8.41917 7.88865 8.41081 8.00165 8.39901 8.0809C8.38672 8.16346 8.37471 8.18135 8.3839 8.16179C8.39549 8.13716 8.44187 8.05277 8.5521 7.97828C8.66819 7.89981 8.78286 7.88106 8.84877 7.88106L8.84876 8.88106ZM9.41917 7.73421L10.4192 7.73421C10.4192 7.64996 10.4344 7.64709 10.4161 7.68207L9.53027 7.21797L8.64449 6.75388C8.47728 7.07301 8.41917 7.41291 8.41917 7.73421L9.41917 7.73421ZM9.53027 7.21797L10.4161 7.68207C10.403 7.70691 10.3845 7.72856 10.3681 7.74213C10.354 7.75374 10.3556 7.74783 10.3898 7.73487C10.4693 7.70476 10.6427 7.66696 10.9639 7.66696L10.9639 6.66696L10.9639 5.66696C10.1532 5.66696 9.12776 5.83148 8.64449 6.75388L9.53027 7.21797ZM10.9639 6.66696V7.66696C10.9072 7.66696 10.8113 7.6481 10.7182 7.58339C10.6774 7.5551 10.6493 7.5262 10.6318 7.5048C10.6232 7.4943 10.6172 7.48576 10.6136 7.48006C10.6099 7.47438 10.6082 7.47115 10.6082 7.47103C10.6081 7.47091 10.6094 7.47334 10.6117 7.4788C10.6139 7.48426 10.617 7.49214 10.6206 7.50278C10.628 7.52451 10.6366 7.55413 10.6456 7.59311C10.6642 7.67332 10.68 7.77216 10.6948 7.89463C10.7169 8.07602 10.7488 8.47812 10.8005 8.73359C10.828 8.86928 10.8838 9.10276 11.0231 9.32202C11.1898 9.58458 11.5216 9.88106 12.0215 9.88106L12.0215 8.88106L12.0215 7.88106C12.3892 7.88106 12.6216 8.10835 12.7114 8.24982C12.7738 8.348 12.7753 8.4085 12.7607 8.33662C12.7284 8.17695 12.7255 8.02552 12.6802 7.65339C12.6462 7.37284 12.5825 6.93621 12.386 6.5548C12.2803 6.34968 12.116 6.11919 11.8592 5.94081C11.5917 5.75502 11.2827 5.66696 10.9639 5.66696V6.66696ZM12.0215 8.88106V9.88106C12.0793 9.88106 12.3197 9.88938 12.5154 9.85189C12.6433 9.82739 12.821 9.77485 12.998 9.64988C13.1829 9.51935 13.3066 9.3527 13.3854 9.18866C13.5151 8.91901 13.5327 8.62706 13.5408 8.46755C13.5506 8.27265 13.5503 8.02118 13.5503 7.73421L12.5503 7.73421L11.5503 7.73422C11.5503 8.04418 11.55 8.23454 11.5433 8.3666C11.5418 8.39659 11.5402 8.41875 11.5386 8.43474C11.5371 8.45094 11.536 8.45744 11.5361 8.45667C11.5362 8.45612 11.5383 8.44332 11.5444 8.42201C11.5505 8.40066 11.5621 8.36539 11.583 8.32202C11.6288 8.22672 11.7112 8.11015 11.8444 8.01608C11.9698 7.92757 12.0855 7.89787 12.1391 7.88761C12.186 7.87862 12.2098 7.88025 12.1754 7.88096C12.1383 7.88173 12.1065 7.88106 12.0215 7.88106V8.88106ZM12.5503 7.73421L13.5503 7.73421C13.5503 7.48349 13.5792 7.41696 13.5717 7.43563C13.5641 7.45472 13.5417 7.50108 13.4934 7.55294C13.444 7.60615 13.3898 7.64099 13.3467 7.66086C13.3086 7.67844 13.2902 7.67927 13.3101 7.67591C13.3308 7.67243 13.3715 7.66779 13.445 7.66523C13.5183 7.66267 13.605 7.66269 13.7182 7.66381C13.825 7.66486 13.9595 7.66696 14.0982 7.66696L14.0982 6.66696L14.0982 5.66696C13.8871 5.66696 13.5896 5.65898 13.3754 5.66644C13.1528 5.67419 12.8252 5.69884 12.5087 5.84491C12.1357 6.017 11.867 6.31288 11.7151 6.69196C11.5827 7.02266 11.5503 7.38801 11.5503 7.73422L12.5503 7.73421ZM14.0982 6.66696V7.66696C14.0445 7.66696 13.9518 7.64916 13.8609 7.58683C13.8211 7.55956 13.7935 7.53168 13.7763 7.51103C13.7679 7.50091 13.7621 7.4927 13.7585 7.48727C13.7568 7.48453 13.7555 7.48243 13.7547 7.48104C13.7538 7.47965 13.7535 7.47891 13.7535 7.47891C13.7534 7.4789 13.7538 7.47956 13.7545 7.48095C13.7551 7.48234 13.756 7.48438 13.7572 7.48713C13.7596 7.4927 13.7628 7.50068 13.7665 7.5114C13.7742 7.5333 13.7831 7.56305 13.7926 7.60216C13.812 7.68266 13.8288 7.78172 13.845 7.90476C13.8693 8.08891 13.9052 8.48949 13.9631 8.75117C13.9938 8.8899 14.0554 9.12512 14.2029 9.34428C14.3799 9.60729 14.7128 9.88106 15.1943 9.88106L15.1943 8.88106L15.1943 7.88106C15.5381 7.88106 15.7666 8.08563 15.8621 8.22756C15.9281 8.32564 15.9311 8.38788 15.9159 8.31904C15.8819 8.16557 15.8765 8.01263 15.8278 7.64326C15.791 7.36369 15.7233 6.92725 15.523 6.54692C15.4152 6.34227 15.2491 6.11376 14.9919 5.93738C14.7244 5.75396 14.4164 5.66696 14.0982 5.66696V6.66696ZM15.1943 8.88106L15.1943 9.88106C15.4452 9.88106 15.7329 9.81149 15.9833 9.60843C16.2215 9.41517 16.3338 9.17528 16.3881 9.00391C16.4411 8.83635 16.4563 8.67982 16.4624 8.57642C16.4686 8.47005 16.4674 8.36502 16.4667 8.29818C16.466 8.21785 16.4658 8.17769 16.4673 8.14527C16.469 8.11037 16.4711 8.1374 16.4548 8.19338C16.438 8.25092 16.3825 8.40527 16.2214 8.54314C16.0441 8.69491 15.8485 8.73421 15.7231 8.73421L15.7231 7.73421L15.7231 6.73421C15.4654 6.73421 15.1713 6.80936 14.9208 7.02385C14.6865 7.22443 14.5829 7.46838 14.5348 7.63344C14.4871 7.79693 14.4745 7.9494 14.4697 8.0489C14.4648 8.15087 14.4662 8.25406 14.4668 8.31709C14.4676 8.3936 14.4674 8.43193 14.4658 8.45996C14.4639 8.49095 14.4624 8.45986 14.4815 8.39982C14.5017 8.33596 14.5625 8.18567 14.7234 8.05513C14.8964 7.91478 15.081 7.88106 15.1943 7.88106L15.1943 8.88106ZM15.7231 7.73421V8.73421C15.811 8.73421 15.7622 8.74569 15.682 8.70756C15.5767 8.65748 15.5463 8.58978 15.5631 8.62211C15.639 8.76789 15.7806 9.26449 15.7806 10.6013L16.7806 10.6013L17.7806 10.6013C17.7806 9.25194 17.6579 8.31499 17.3372 7.69876C17.1557 7.3501 16.894 7.06928 16.5408 6.90135C16.2127 6.74535 15.8995 6.73421 15.7231 6.73421V7.73421ZM16.7806 10.6013L15.7806 10.6013C15.7806 11.2921 15.7998 11.8194 15.8148 12.2304C15.8304 12.6565 15.8388 12.9095 15.8274 13.1121C15.8176 13.2886 15.7938 13.3914 15.7534 13.4933C15.7063 13.6119 15.6195 13.7716 15.4294 14.0464L16.2518 14.6153L17.0743 15.1841C17.2971 14.862 17.4828 14.5573 17.6123 14.2311C17.7484 13.8881 17.8052 13.5657 17.8243 13.2237C17.842 12.9079 17.8278 12.5491 17.8135 12.1574C17.7986 11.7504 17.7806 11.2536 17.7806 10.6013L16.7806 10.6013ZM16.2518 14.6153L15.4294 14.0464C15.0165 14.6434 14.6199 15.2168 14.3266 15.641C14.1799 15.8531 14.059 16.0279 13.9748 16.1496C13.9327 16.2105 13.8997 16.2581 13.8773 16.2905C13.8661 16.3067 13.8575 16.3191 13.8518 16.3275C13.8489 16.3317 13.8467 16.3348 13.8452 16.3369C13.8445 16.338 13.8439 16.3388 13.8436 16.3393C13.8434 16.3396 13.8433 16.3398 13.8432 16.3399C13.8431 16.34 13.8431 16.34 13.8431 16.3401C13.843 16.3401 13.843 16.3401 13.843 16.3401C13.843 16.3401 13.843 16.3401 14.6655 16.909C15.4879 17.4778 15.4879 17.4778 15.4879 17.4778C15.4879 17.4778 15.488 17.4778 15.488 17.4777C15.488 17.4777 15.488 17.4777 15.4881 17.4776C15.4882 17.4775 15.4883 17.4773 15.4885 17.477C15.4889 17.4765 15.4894 17.4757 15.4901 17.4746C15.4916 17.4725 15.4938 17.4693 15.4967 17.4651C15.5024 17.4568 15.511 17.4444 15.5222 17.4282C15.5446 17.3958 15.5776 17.3482 15.6197 17.2873C15.7039 17.1655 15.8248 16.9907 15.9715 16.7786C16.2649 16.3545 16.6614 15.781 17.0743 15.1841L16.2518 14.6153ZM14.6655 16.909C13.6655 16.909 13.6655 16.9087 13.6655 16.9085C13.6655 16.9084 13.6655 16.9082 13.6655 16.908C13.6655 16.9078 13.6655 16.9075 13.6655 16.9072C13.6655 16.9067 13.6655 16.9063 13.6655 16.9059C13.6655 16.9051 13.6655 16.9046 13.6655 16.9043C13.6655 16.9037 13.6655 16.9041 13.6655 16.9054C13.6654 16.9079 13.6653 16.9139 13.665 16.9229C13.6643 16.9411 13.6629 16.9701 13.66 17.006C13.6537 17.0822 13.6421 17.1685 13.6238 17.2423C13.602 17.3304 13.5889 17.3269 13.6231 17.2808C13.6452 17.2509 13.6959 17.1922 13.7853 17.1406C13.8814 17.0851 13.9916 17.0558 14.0982 17.0558V18.0558V19.0558C14.6376 19.0558 15.015 18.7613 15.2293 18.4724C15.423 18.2113 15.5162 17.9211 15.5653 17.7225C15.618 17.5095 15.6418 17.3091 15.6532 17.1703C15.6591 17.0987 15.6622 17.0381 15.6637 16.9935C15.6645 16.9712 15.665 16.9526 15.6652 16.9383C15.6653 16.9312 15.6654 16.9251 15.6654 16.9202C15.6654 16.9178 15.6655 16.9156 15.6655 16.9137C15.6655 16.9128 15.6655 16.9119 15.6655 16.9111C15.6655 16.9107 15.6655 16.9103 15.6655 16.91C15.6655 16.9098 15.6655 16.9095 15.6655 16.9095C15.6655 16.9092 15.6655 16.909 14.6655 16.909ZM14.0982 18.0558L14.0982 17.0558C14.3174 17.0558 14.4251 17.1718 14.3875 17.1376C14.3417 17.0959 14.2888 17.0301 14.1495 16.8565C14.04 16.72 13.8595 16.4948 13.6312 16.3103C13.3872 16.1132 13.0244 15.909 12.5503 15.909L12.5503 16.909L12.5503 17.909C12.4202 17.909 12.3521 17.8481 12.3742 17.866C12.412 17.8965 12.4691 17.958 12.5896 18.1082C12.6805 18.2214 12.85 18.4423 13.0402 18.6156C13.2385 18.7964 13.5955 19.0558 14.0982 19.0558L14.0982 18.0558ZM12.5503 16.909L12.5503 15.909C11.6334 15.909 11.1091 16.6412 10.9144 16.9541C10.7893 17.1551 10.6986 17.3487 10.6399 17.4877C10.61 17.5586 10.5869 17.6189 10.5706 17.6636C10.5624 17.686 10.5558 17.7048 10.5509 17.7192C10.5484 17.7264 10.5464 17.7325 10.5447 17.7375C10.5439 17.7401 10.5431 17.7423 10.5425 17.7442C10.5422 17.7452 10.5419 17.7461 10.5416 17.7469C10.5415 17.7473 10.5414 17.7477 10.5412 17.7481C10.5412 17.7483 10.5411 17.7485 10.5411 17.7486C10.541 17.7489 10.5409 17.7491 11.4927 18.0558C12.4445 18.3625 12.4445 18.3627 12.4444 18.3629C12.4444 18.363 12.4443 18.3633 12.4442 18.3634C12.4441 18.3637 12.444 18.364 12.444 18.3643C12.4438 18.3648 12.4436 18.3653 12.4435 18.3657C12.4432 18.3666 12.443 18.3671 12.4429 18.3675C12.4427 18.3682 12.4428 18.3679 12.4432 18.3667C12.444 18.3643 12.4461 18.3584 12.4493 18.3494C12.4559 18.3314 12.467 18.3021 12.4825 18.2655C12.5146 18.1895 12.5592 18.0963 12.6126 18.0107C12.6694 17.9193 12.7124 17.8749 12.728 17.8621C12.7377 17.8542 12.6733 17.909 12.5503 17.909L12.5503 16.909ZM11.4927 18.0558V17.0558H8.31997V18.0558V19.0558H11.4927V18.0558ZM14.6659 15.7621H15.6659V11.1747H14.6659H13.6659V15.7621H14.6659ZM14.6659 11.1747V10.1747H13.6076V11.1747V12.1747H14.6659V11.1747ZM13.6076 11.1747H12.6076V15.7621H13.6076H14.6076V11.1747H13.6076ZM13.6076 15.7621V16.7621H14.6659V15.7621V14.7621H13.6076V15.7621ZM11.4924 14.6153H10.4924C10.4924 14.9381 10.5959 15.3534 10.7191 15.669C10.7838 15.8345 10.8806 16.0432 11.0214 16.2295C11.1254 16.3672 11.4541 16.7621 12.0216 16.7621V15.7621V14.7621C12.2415 14.7621 12.4019 14.8447 12.487 14.9037C12.5681 14.9599 12.6087 15.0127 12.617 15.0237C12.632 15.0436 12.6142 15.0237 12.582 14.9413C12.5537 14.8688 12.5283 14.7839 12.5108 14.7062C12.5023 14.6683 12.497 14.6379 12.4941 14.6169C12.4908 14.5928 12.4924 14.594 12.4924 14.6153H11.4924ZM12.0216 15.7621V16.7621C12.5805 16.7621 12.9093 16.3821 13.0221 16.2345C13.1662 16.046 13.2637 15.8349 13.3282 15.6683C13.4523 15.348 13.5507 14.935 13.5507 14.6153H12.5507H11.5507C11.5507 14.5931 11.5515 14.6259 11.5323 14.7139C11.5153 14.7916 11.4906 14.8753 11.4632 14.946C11.432 15.0266 11.4155 15.043 11.433 15.0201C11.4428 15.0072 11.4848 14.9538 11.5673 14.8979C11.6547 14.8387 11.8111 14.7621 12.0216 14.7621V15.7621ZM12.5507 14.6153H13.5507V12.3216H12.5507H11.5507V14.6153H12.5507ZM12.5507 12.3216H13.5507C13.5507 11.9988 13.4473 11.5834 13.324 11.2678C13.2593 11.1023 13.1626 10.8937 13.0217 10.7074C12.9177 10.5696 12.589 10.1747 12.0216 10.1747V11.1747V12.1747C11.8016 12.1747 11.6412 12.0922 11.5561 12.0332C11.475 11.9769 11.4344 11.9241 11.4261 11.9131C11.4111 11.8933 11.4289 11.9131 11.4611 11.9955C11.4894 12.0681 11.5148 12.153 11.5323 12.2307C11.5408 12.2686 11.5461 12.299 11.549 12.32C11.5523 12.344 11.5507 12.3428 11.5507 12.3216H12.5507ZM12.0216 11.1747V10.1747C11.4627 10.1747 11.1338 10.5547 11.021 10.7023C10.8769 10.8909 10.7794 11.102 10.7149 11.2685C10.5908 11.5889 10.4924 12.0019 10.4924 12.3216H11.4924H12.4924C12.4924 12.3437 12.4916 12.3109 12.5109 12.223C12.5279 12.1453 12.5525 12.0616 12.5799 11.9909C12.6111 11.9102 12.6276 11.8938 12.6101 11.9167C12.6003 11.9296 12.5583 11.9831 12.4758 12.0389C12.3884 12.0981 12.232 12.1747 12.0216 12.1747V11.1747ZM11.4924 12.3216H10.4924V14.6153H11.4924H12.4924V12.3216H11.4924ZM9.37724 14.6153H8.37724C8.37724 14.9381 8.48069 15.3534 8.60397 15.669C8.66862 15.8345 8.7654 16.0432 8.90621 16.2295C9.01029 16.3672 9.33896 16.7621 9.9064 16.7621V15.7621V14.7621C10.1263 14.7621 10.2867 14.8447 10.3719 14.9037C10.453 14.9599 10.4935 15.0127 10.5019 15.0237C10.5168 15.0436 10.4991 15.0237 10.4669 14.9413C10.4385 14.8688 10.4131 14.7839 10.3957 14.7062C10.3872 14.6683 10.3818 14.6379 10.3789 14.6169C10.3756 14.5928 10.3772 14.594 10.3772 14.6153H9.37724ZM9.9064 15.7621V16.7621C10.4653 16.7621 10.7941 16.3821 10.9069 16.2345C11.051 16.046 11.1486 15.8349 11.2131 15.6683C11.3371 15.348 11.4356 14.935 11.4356 14.6153H10.4356H9.43555C9.43555 14.5931 9.43636 14.6259 9.4171 14.7139C9.40009 14.7916 9.37545 14.8753 9.34807 14.946C9.31682 15.0266 9.30033 15.043 9.31782 15.0201C9.32768 15.0072 9.36964 14.9538 9.45213 14.8979C9.53951 14.8387 9.69596 14.7621 9.9064 14.7621V15.7621ZM10.4356 14.6153H11.4356V12.3216H10.4356H9.43555V14.6153H10.4356ZM10.4356 12.3216H11.4356C11.4356 11.9988 11.3321 11.5834 11.2088 11.2678C11.1442 11.1023 11.0474 10.8937 10.9066 10.7074C10.8025 10.5696 10.4738 10.1747 9.9064 10.1747V11.1747V12.1747C9.68648 12.1747 9.52607 12.0922 9.44092 12.0332C9.35982 11.9769 9.31926 11.9241 9.31094 11.9131C9.29595 11.8933 9.31372 11.9131 9.34591 11.9955C9.37426 12.0681 9.39966 12.153 9.41712 12.2307C9.42564 12.2686 9.43096 12.299 9.43386 12.32C9.43719 12.344 9.43555 12.3428 9.43555 12.3216H10.4356ZM9.9064 11.1747V10.1747C9.3475 10.1747 9.01865 10.5547 8.90588 10.7023C8.76177 10.8909 8.66424 11.102 8.59973 11.2685C8.47565 11.5889 8.37724 12.0019 8.37724 12.3216H9.37724H10.3772C10.3772 12.3437 10.3764 12.3109 10.3957 12.223C10.4127 12.1453 10.4373 12.0616 10.4647 11.9909C10.496 11.9102 10.5125 11.8938 10.495 11.9167C10.4851 11.9296 10.4432 11.9831 10.3607 12.0389C10.2733 12.0981 10.1168 12.1747 9.9064 12.1747V11.1747ZM9.37724 12.3216H8.37724V14.6153H9.37724H10.3772V12.3216H9.37724Z" fill="var(--stroke-0, black)" mask="url(#path-1-outside-1_317_144)"/>
</g>
<defs>
<filter id="filter0_d_317_144" x="-2.19345e-05" y="0" width="19.8326" height="22.0558" filterUnits="userSpaceOnUse" color-interpolation-filters="sRGB">
<feFlood flood-opacity="0" result="BackgroundImageFix"/>
<feColorMatrix in="SourceAlpha" type="matrix" values="0 0 0 0 0 0 0 0 0 0 0 0 0 0 0 0 0 0 127 0" result="hardAlpha"/>
<feOffset dy="1"/>
<feGaussianBlur stdDeviation="1"/>
<feColorMatrix type="matrix" values="0 0 0 0 0 0 0 0 0 0 0 0 0 0 0 0 0 0 1 0"/>
<feBlend mode="normal" in2="BackgroundImageFix" result="effect1_dropShadow_317_144"/>
<feBlend mode="normal" in="SourceGraphic" in2="effect1_dropShadow_317_144" result="shape"/>
</filter>
</defs>
</svg>
