<svg preserveAspectRatio="none" width="100%" height="100%" overflow="visible" style="display: block;" viewBox="0 0 24 6" fill="none" xmlns="http://www.w3.org/2000/svg">
<g id="iconmonstr-menu-7">
<path id="Shape" fill-rule="evenodd" clip-rule="evenodd" d="M5.99583 3C5.99583 4.657 4.65377 6 2.99792 6C1.34207 6 0 4.657 0 3C0 1.343 1.34207 0 2.99792 0C4.65377 0 5.99583 1.343 5.99583 3ZM14.9896 3C14.9896 4.657 13.6475 6 11.9917 6C10.3358 6 8.99375 4.657 8.99375 3C8.99375 1.343 10.3358 0 11.9917 0C13.6475 0 14.9896 1.343 14.9896 3ZM23.9833 3C23.9833 4.657 22.6413 6 20.9854 6C19.3296 6 17.9875 4.657 17.9875 3C17.9875 1.343 19.3296 0 20.9854 0C22.6413 0 23.9833 1.343 23.9833 3Z" fill="var(--fill-0, black)"/>
</g>
</svg>
