<svg preserveAspectRatio="none" width="100%" height="100%" overflow="visible" style="display: block;" viewBox="0 0 27 29" fill="none" xmlns="http://www.w3.org/2000/svg">
<g id="Pointer" filter="url(#filter0_d_317_191)">
<mask id="path-1-outside-1_317_191" maskUnits="userSpaceOnUse" x="2.24527" y="1.2625" width="23" height="24" fill="black">
<rect fill="white" x="2.24527" y="1.2625" width="23" height="24"/>
<path fill-rule="evenodd" clip-rule="evenodd" d="M11.0996 24.1375C11.0996 24.1375 7.63449 21.4832 6.41541 19.45C5.19633 17.4168 2.88623 14.8266 3.29259 13.2C3.69895 11.5734 5.19633 11.0608 6.41541 12.2807C7.63449 13.5007 8.4557 16.1439 9.26842 15.7372C10.0811 15.3306 9.4716 11.4675 8.65888 9.23091C7.84616 6.99437 6.99883 2.2625 8.65888 2.2625C10.3189 2.2625 10.3189 3.825 11.0996 6.16875C11.8803 8.5125 11.2708 11.6375 11.8803 11.6375C12.4899 11.6375 12.7225 11.0916 12.7225 10.075C12.7225 9.79873 12.7766 9.56523 12.8865 9.37166C13.181 8.85294 13.876 8.62094 15.0032 8.62094C16.5509 8.62094 15.7839 11.6375 16.5646 11.6375C17.3453 11.6375 17.3453 11.7016 17.3453 10.075C17.3453 8.44843 18.0692 8.62094 19.6306 8.62094C21.192 8.62094 20.4361 11.6375 21.2488 11.6375C22.0615 11.6375 21.2488 10.075 22.0295 10.075C22.8102 10.075 23.5909 10.3215 23.5909 13.9813C23.5909 17.6411 24.0293 17.8234 22.8102 19.45C21.5911 21.0766 20.4681 22.575 20.4681 22.575C20.4681 22.575 20.4681 24.1375 19.6306 24.1375C18.7931 24.1375 18.3612 22.575 17.3453 22.575C16.3294 22.575 15.7839 24.1375 15.7839 24.1375H11.0996ZM20.4686 21.0125V14.7625H18.9062V21.0125H20.4686ZM15.7834 19.45C15.7834 19.8733 16.1458 21.0125 16.5646 21.0125C16.9961 21.0125 17.3459 19.8803 17.3459 19.45V16.325C17.3459 15.9017 16.9835 14.7625 16.5646 14.7625C16.1332 14.7625 15.7834 15.8947 15.7834 16.325V19.45ZM12.6606 19.45C12.6606 19.8733 13.023 21.0125 13.4419 21.0125C13.8733 21.0125 14.2231 19.8803 14.2231 19.45V16.325C14.2231 15.9017 13.8607 14.7625 13.4419 14.7625C13.0104 14.7625 12.6606 15.8947 12.6606 16.325V19.45Z"/>
</mask>
<path fill-rule="evenodd" clip-rule="evenodd" d="M11.0996 24.1375C11.0996 24.1375 7.63449 21.4832 6.41541 19.45C5.19633 17.4168 2.88623 14.8266 3.29259 13.2C3.69895 11.5734 5.19633 11.0608 6.41541 12.2807C7.63449 13.5007 8.4557 16.1439 9.26842 15.7372C10.0811 15.3306 9.4716 11.4675 8.65888 9.23091C7.84616 6.99437 6.99883 2.2625 8.65888 2.2625C10.3189 2.2625 10.3189 3.825 11.0996 6.16875C11.8803 8.5125 11.2708 11.6375 11.8803 11.6375C12.4899 11.6375 12.7225 11.0916 12.7225 10.075C12.7225 9.79873 12.7766 9.56523 12.8865 9.37166C13.181 8.85294 13.876 8.62094 15.0032 8.62094C16.5509 8.62094 15.7839 11.6375 16.5646 11.6375C17.3453 11.6375 17.3453 11.7016 17.3453 10.075C17.3453 8.44843 18.0692 8.62094 19.6306 8.62094C21.192 8.62094 20.4361 11.6375 21.2488 11.6375C22.0615 11.6375 21.2488 10.075 22.0295 10.075C22.8102 10.075 23.5909 10.3215 23.5909 13.9813C23.5909 17.6411 24.0293 17.8234 22.8102 19.45C21.5911 21.0766 20.4681 22.575 20.4681 22.575C20.4681 22.575 20.4681 24.1375 19.6306 24.1375C18.7931 24.1375 18.3612 22.575 17.3453 22.575C16.3294 22.575 15.7839 24.1375 15.7839 24.1375H11.0996ZM20.4686 21.0125V14.7625H18.9062V21.0125H20.4686ZM15.7834 19.45C15.7834 19.8733 16.1458 21.0125 16.5646 21.0125C16.9961 21.0125 17.3459 19.8803 17.3459 19.45V16.325C17.3459 15.9017 16.9835 14.7625 16.5646 14.7625C16.1332 14.7625 15.7834 15.8947 15.7834 16.325V19.45ZM12.6606 19.45C12.6606 19.8733 13.023 21.0125 13.4419 21.0125C13.8733 21.0125 14.2231 19.8803 14.2231 19.45V16.325C14.2231 15.9017 13.8607 14.7625 13.4419 14.7625C13.0104 14.7625 12.6606 15.8947 12.6606 16.325V19.45Z" fill="var(--fill-0, white)"/>
<path d="M11.0996 24.1375L10.4915 24.9314L10.7607 25.1375H11.0996V24.1375ZM6.41541 19.45L5.55776 19.9642L5.55776 19.9642L6.41541 19.45ZM3.29259 13.2L4.26277 13.4424L4.26277 13.4424L3.29259 13.2ZM6.41541 12.2807L5.70806 12.9876L5.70806 12.9876L6.41541 12.2807ZM9.26842 15.7372L8.82096 14.8429L8.82096 14.8429L9.26842 15.7372ZM8.65888 9.23091L9.59875 8.88938L9.59875 8.88938L8.65888 9.23091ZM8.65888 2.2625L8.65888 1.2625L8.65888 1.2625L8.65888 2.2625ZM11.8803 11.6375L11.8803 12.6375L11.8803 12.6375L11.8803 11.6375ZM12.7225 10.075L11.7225 10.075L12.7225 10.075ZM12.8865 9.37166L12.0169 8.87793L12.0169 8.87793L12.8865 9.37166ZM15.0032 8.62094L15.0032 7.62094L15.0032 7.62094L15.0032 8.62094ZM16.5646 11.6375L16.5646 10.6375L16.5646 10.6375L16.5646 11.6375ZM17.3453 10.075L16.3453 10.075L16.3453 10.075L17.3453 10.075ZM19.6306 8.62094L19.6306 7.62094L19.6306 7.62094L19.6306 8.62094ZM21.2488 11.6375L21.2488 12.6375L21.2488 11.6375ZM22.0295 10.075L22.0295 9.075L22.0295 9.075L22.0295 10.075ZM23.5909 13.9813L22.5909 13.9813L23.5909 13.9813ZM20.4681 22.575L19.6679 21.9753L19.4681 22.2419V22.575H20.4681ZM19.6306 24.1375L19.6306 23.1375L19.6306 23.1375L19.6306 24.1375ZM17.3453 22.575L17.3453 21.575L17.3453 22.575ZM15.7839 24.1375V25.1375H16.4939L16.728 24.4671L15.7839 24.1375ZM20.4686 21.0125V22.0125H21.4686V21.0125H20.4686ZM20.4686 14.7625H21.4686V13.7625H20.4686V14.7625ZM18.9062 14.7625V13.7625H17.9062V14.7625H18.9062ZM18.9062 21.0125H17.9062V22.0125H18.9062V21.0125ZM11.0996 24.1375C11.7077 23.3436 11.7078 23.3437 11.7078 23.3437C11.7078 23.3437 11.7079 23.3438 11.7079 23.3438C11.7079 23.3438 11.7078 23.3437 11.7077 23.3436C11.7075 23.3435 11.7071 23.3432 11.7065 23.3427C11.7052 23.3417 11.7032 23.3401 11.7003 23.3379C11.6946 23.3335 11.6856 23.3266 11.6737 23.3173C11.6498 23.2988 11.6139 23.2708 11.5673 23.2341C11.4742 23.1606 11.3385 23.0526 11.1714 22.9162C10.8366 22.6431 10.3783 22.2586 9.88401 21.8133C8.868 20.8979 7.79858 19.8122 7.27306 18.9358L6.41541 19.45L5.55776 19.9642C6.25132 21.121 7.52402 22.3791 8.54535 23.2992C9.06971 23.7716 9.55388 24.1777 9.90696 24.4658C10.0838 24.6101 10.2283 24.7252 10.3294 24.8049C10.3799 24.8447 10.4197 24.8757 10.4471 24.8971C10.4609 24.9077 10.4716 24.916 10.479 24.9217C10.4828 24.9246 10.4857 24.9269 10.4878 24.9285C10.4888 24.9293 10.4897 24.9299 10.4903 24.9304C10.4906 24.9306 10.4909 24.9308 10.4911 24.931C10.4912 24.9311 10.4913 24.9312 10.4913 24.9312C10.4915 24.9313 10.4915 24.9314 11.0996 24.1375ZM6.41541 19.45L7.27306 18.9358C6.94919 18.3956 6.55759 17.826 6.17961 17.2772C5.79416 16.7175 5.4197 16.1749 5.09643 15.6489C4.77125 15.1198 4.52428 14.6491 4.38017 14.2427C4.23267 13.8267 4.22897 13.5777 4.26277 13.4424L3.29259 13.2L2.32241 12.9576C2.15303 13.6356 2.28571 14.3204 2.49516 14.9111C2.708 15.5113 3.03855 16.1202 3.39249 16.6961C3.74833 17.2751 4.15458 17.8629 4.53245 18.4116C4.91778 18.9711 5.27209 19.4878 5.55776 19.9642L6.41541 19.45ZM3.29259 13.2L4.26277 13.4424C4.40414 12.8765 4.68286 12.6784 4.84526 12.6281C4.98819 12.5838 5.29597 12.5752 5.70806 12.9876L6.41541 12.2807L7.12276 11.5739C6.31577 10.7663 5.26532 10.4041 4.2532 10.7178C3.26055 11.0254 2.58741 11.8969 2.32241 12.9576L3.29259 13.2ZM6.41541 12.2807L5.70806 12.9876C6.20441 13.4843 6.62294 14.2804 7.1377 15.1349C7.36279 15.5086 7.63636 15.9406 7.94519 16.2485C8.10246 16.4052 8.33118 16.5945 8.63358 16.6998C8.97474 16.8187 9.35777 16.8107 9.71589 16.6315L9.26842 15.7372L8.82096 14.8429C8.97589 14.7654 9.15548 14.7638 9.29141 14.8111C9.38858 14.845 9.41028 14.8849 9.35722 14.8321C9.2454 14.7206 9.08509 14.4918 8.8509 14.103C8.44711 13.4326 7.8455 12.2971 7.12276 11.5739L6.41541 12.2807ZM9.26842 15.7372L9.71589 16.6315C10.1281 16.4253 10.3341 16.0625 10.4375 15.8038C10.5457 15.5331 10.5986 15.2367 10.6256 14.9609C10.68 14.4045 10.6463 13.7333 10.5664 13.0535C10.4057 11.6866 10.0335 10.0858 9.59875 8.88938L8.65888 9.23091L7.71901 9.57244C8.09699 10.6126 8.43596 12.0616 8.58003 13.287C8.6525 13.9034 8.66954 14.414 8.63509 14.7662C8.61762 14.9447 8.5912 15.0343 8.58034 15.0615C8.5647 15.1006 8.61194 14.9475 8.82096 14.8429L9.26842 15.7372ZM8.65888 9.23091L9.59875 8.88938C9.2204 7.84819 8.82754 6.19666 8.72898 4.83577C8.67871 4.14161 8.7135 3.62419 8.80332 3.32C8.84696 3.17223 8.88174 3.15167 8.85509 3.17825C8.8033 3.2299 8.71831 3.2625 8.65888 3.2625L8.65888 2.2625L8.65888 1.2625C8.18444 1.2625 7.7628 1.44298 7.44278 1.76214C7.14789 2.05623 6.98287 2.42282 6.8852 2.75361C6.6924 3.40653 6.67856 4.21186 6.7342 4.98023C6.84748 6.54441 7.28464 8.37708 7.71901 9.57244L8.65888 9.23091ZM8.65888 2.2625L8.65888 3.2625C8.90796 3.2625 8.996 3.31733 9.03315 3.34503C9.08733 3.38541 9.17891 3.4823 9.29584 3.74428C9.41528 4.01191 9.52306 4.36109 9.66067 4.8438C9.79268 5.30684 9.94686 5.87228 10.1509 6.48478L11.0996 6.16875L12.0484 5.85273C11.8621 5.29335 11.7235 4.78458 11.584 4.29547C11.4502 3.82603 11.3078 3.34513 11.1222 2.92916C10.934 2.50756 10.6656 2.06733 10.2284 1.7415C9.77431 1.40299 9.23983 1.2625 8.65888 1.2625L8.65888 2.2625ZM11.0996 6.16875L10.1509 6.48478C10.4862 7.49139 10.5326 8.71004 10.5544 9.80195C10.5644 10.3067 10.5697 10.8402 10.6186 11.2354C10.6419 11.4243 10.686 11.6891 10.8022 11.9312C10.9265 12.1902 11.2553 12.6375 11.8803 12.6375L11.8803 11.6375L11.8803 10.6375C12.353 10.6375 12.5675 10.9871 12.6054 11.0661C12.6352 11.1282 12.6208 11.1305 12.6034 10.9898C12.5708 10.7258 12.5653 10.3316 12.554 9.76212C12.5329 8.7056 12.4938 7.18986 12.0484 5.85273L11.0996 6.16875ZM11.8803 11.6375L11.8803 12.6375C12.1864 12.6375 12.5059 12.5672 12.7983 12.3848C13.0892 12.2034 13.2884 11.9516 13.4209 11.6916C13.6666 11.2096 13.7225 10.6211 13.7225 10.075L12.7225 10.075L11.7225 10.075C11.7225 10.2943 11.7097 10.4628 11.6894 10.5887C11.6686 10.7175 11.6445 10.7728 11.6391 10.7833C11.6372 10.7869 11.6641 10.7351 11.7399 10.6878C11.7752 10.6658 11.8099 10.6521 11.8386 10.6446C11.8663 10.6373 11.8819 10.6375 11.8803 10.6375L11.8803 11.6375ZM12.7225 10.075L13.7225 10.075C13.7225 9.92903 13.7506 9.87516 13.7561 9.86539L12.8865 9.37166L12.0169 8.87793C11.8026 9.25531 11.7225 9.66843 11.7225 10.075L12.7225 10.075ZM12.8865 9.37166L13.7561 9.86539C13.7599 9.8588 13.7668 9.8479 13.7893 9.83071C13.8147 9.81135 13.8666 9.77931 13.9626 9.74578C14.1648 9.67509 14.4947 9.62094 15.0032 9.62094L15.0032 8.62094L15.0032 7.62094C13.8572 7.62094 12.6099 7.83351 12.0169 8.87793L12.8865 9.37166ZM15.0032 8.62094V9.62094C15.0256 9.62094 14.9916 9.62362 14.9429 9.59244C14.9011 9.5656 14.8977 9.54499 14.9172 9.57987C14.9739 9.68134 15.0312 9.88889 15.0801 10.2598C15.1162 10.534 15.1588 11.0462 15.2321 11.3805C15.2712 11.5585 15.3445 11.8299 15.513 12.0748C15.7147 12.3679 16.0706 12.6375 16.5646 12.6375L16.5646 11.6375L16.5646 10.6375C16.8633 10.6375 17.0724 10.8128 17.1606 10.941C17.2156 11.0209 17.2087 11.0566 17.1856 10.9518C17.1349 10.7205 17.1261 10.4786 17.0629 9.99868C17.0125 9.61542 16.9226 9.06883 16.6634 8.60469C16.5249 8.35677 16.3215 8.10049 16.0223 7.90868C15.7163 7.71253 15.3677 7.62094 15.0032 7.62094V8.62094ZM16.5646 11.6375V12.6375C16.6909 12.6375 16.9678 12.6461 17.19 12.6068C17.3276 12.5825 17.5138 12.5315 17.7006 12.4098C17.898 12.2812 18.0396 12.1106 18.1345 11.9283C18.2933 11.6236 18.3195 11.2807 18.3316 11.06C18.3456 10.8033 18.3453 10.4692 18.3453 10.075L17.3453 10.075L16.3453 10.075C16.3453 10.4941 16.3449 10.762 16.3346 10.9507C16.3296 11.0422 16.3234 11.0879 16.3202 11.1057C16.3165 11.1261 16.322 11.0787 16.3608 11.0042C16.407 10.9155 16.4876 10.8131 16.6088 10.7342C16.7193 10.6621 16.814 10.6423 16.8418 10.6374C16.865 10.6333 16.8631 10.6361 16.8032 10.6373C16.741 10.6384 16.6796 10.6375 16.5646 10.6375V11.6375ZM17.3453 10.075L18.3453 10.075C18.3453 9.72132 18.3881 9.5875 18.4001 9.55976C18.4018 9.55587 18.3916 9.57967 18.361 9.61002C18.3302 9.64057 18.3019 9.65477 18.2942 9.65805C18.2911 9.65938 18.3123 9.65003 18.3753 9.64022C18.4385 9.63037 18.5252 9.6228 18.6469 9.61889C18.9164 9.61022 19.1911 9.62094 19.6306 9.62094L19.6306 8.62094L19.6306 7.62094C19.2894 7.62094 18.8881 7.6101 18.5827 7.61992C18.2709 7.62994 17.8779 7.66156 17.5106 7.81796C17.0877 7.99807 16.7599 8.31541 16.5655 8.76343C16.393 9.16082 16.3453 9.6154 16.3453 10.075L17.3453 10.075ZM19.6306 8.62094V9.62094C19.6564 9.62094 19.6261 9.62449 19.5804 9.59559C19.5412 9.57078 19.539 9.55231 19.5594 9.58796C19.6181 9.69085 19.6774 9.89882 19.7305 10.2707C19.7702 10.548 19.8185 11.0585 19.9002 11.3994C19.9437 11.5807 20.0241 11.8532 20.202 12.0972C20.414 12.3878 20.7706 12.6375 21.2488 12.6375L21.2488 11.6375L21.2488 10.6375C21.5238 10.6375 21.7263 10.7929 21.8179 10.9186C21.8755 10.9976 21.8694 11.0345 21.8451 10.933C21.7912 10.7082 21.7786 10.4646 21.7104 9.98774C21.6558 9.60548 21.5605 9.05932 21.2964 8.5966C21.1553 8.34944 20.9497 8.09531 20.6498 7.90554C20.3435 7.71167 19.9952 7.62094 19.6306 7.62094V8.62094ZM21.2488 11.6375L21.2488 12.6375C21.5146 12.6375 21.8155 12.5711 22.0829 12.3709C22.3453 12.1745 22.4802 11.9204 22.5497 11.7181C22.6675 11.3748 22.6525 10.987 22.6511 10.846C22.6485 10.5886 22.6587 10.5801 22.646 10.6205C22.6302 10.6703 22.5759 10.8077 22.4251 10.9268C22.2655 11.0529 22.1045 11.075 22.0295 11.075L22.0295 10.075L22.0295 9.075C21.7594 9.075 21.453 9.14593 21.1852 9.35747C20.9263 9.56207 20.801 9.82153 20.7389 10.0178C20.6336 10.3511 20.6498 10.7333 20.6512 10.8665C20.6538 11.1161 20.6408 11.119 20.6581 11.0686C20.6772 11.0128 20.7362 10.8807 20.8844 10.7698C21.0376 10.6551 21.1861 10.6375 21.2488 10.6375L21.2488 11.6375ZM22.0295 10.075V11.075C22.1853 11.075 22.2116 11.0911 22.201 11.0864C22.1624 11.0695 22.1786 11.0524 22.232 11.147C22.3857 11.4196 22.5909 12.161 22.5909 13.9813L23.5909 13.9813L24.5909 13.9813C24.5909 12.1417 24.4057 10.93 23.974 10.1645C23.7346 9.73992 23.4093 9.43252 23.0046 9.25497C22.6281 9.08975 22.264 9.075 22.0295 9.075V10.075ZM23.5909 13.9813L22.5909 13.9813C22.5909 14.9171 22.619 15.6312 22.6411 16.1905C22.6639 16.7664 22.6772 17.1257 22.6595 17.4176C22.6436 17.6806 22.6036 17.8528 22.5279 18.0288C22.4439 18.2241 22.2977 18.4664 22.01 18.8503L22.8102 19.45L23.6104 20.0497C23.9323 19.6203 24.1884 19.2299 24.3651 18.8191C24.5501 18.3891 24.629 17.982 24.6559 17.5386C24.681 17.1241 24.6609 16.6499 24.6396 16.1114C24.6176 15.5564 24.5909 14.8753 24.5909 13.9813L23.5909 13.9813ZM22.8102 19.45L22.01 18.8503C21.4005 19.6636 20.8149 20.4448 20.3818 21.0227C20.1652 21.3117 19.9867 21.5498 19.8624 21.7157C19.8002 21.7987 19.7516 21.8636 19.7185 21.9077C19.702 21.9298 19.6893 21.9467 19.6808 21.958C19.6765 21.9637 19.6733 21.968 19.6712 21.9709C19.6701 21.9724 19.6693 21.9735 19.6687 21.9742C19.6684 21.9745 19.6682 21.9748 19.6681 21.975C19.668 21.9751 19.668 21.9752 19.6679 21.9752C19.6679 21.9752 19.6679 21.9752 19.6679 21.9753C19.6679 21.9753 19.6679 21.9753 20.4681 22.575C21.2683 23.1747 21.2683 23.1747 21.2683 23.1747C21.2683 23.1747 21.2683 23.1747 21.2683 23.1747C21.2684 23.1746 21.2684 23.1746 21.2685 23.1745C21.2686 23.1743 21.2688 23.174 21.2691 23.1736C21.2697 23.1729 21.2705 23.1718 21.2716 23.1704C21.2737 23.1675 21.2769 23.1632 21.2812 23.1575C21.2897 23.1461 21.3024 23.1292 21.3189 23.1072C21.352 23.063 21.4007 22.9981 21.4628 22.9152C21.5871 22.7493 21.7656 22.5112 21.9822 22.2222C22.4153 21.6443 23.0009 20.863 23.6104 20.0497L22.8102 19.45ZM20.4681 22.575C19.4681 22.575 19.4681 22.5747 19.4681 22.5745C19.4681 22.5744 19.4681 22.5742 19.4681 22.574C19.4681 22.5737 19.4681 22.5734 19.4681 22.5732C19.4681 22.5727 19.4681 22.5722 19.4681 22.5719C19.4681 22.5712 19.4681 22.5709 19.4681 22.5708C19.4681 22.5708 19.4681 22.5721 19.468 22.5747C19.468 22.5798 19.4677 22.5898 19.4672 22.6039C19.4661 22.6323 19.4638 22.6763 19.459 22.7302C19.4489 22.8426 19.4299 22.9765 19.3975 23.0974C19.3616 23.2312 19.3289 23.2749 19.3354 23.2668C19.3659 23.2288 19.4764 23.1375 19.6306 23.1375V24.1375V25.1375C20.2035 25.1375 20.6281 24.8509 20.8941 24.5199C21.1362 24.2189 21.2605 23.872 21.3293 23.6151C21.4016 23.3453 21.4349 23.0886 21.451 22.9081C21.4593 22.8156 21.4635 22.7374 21.4657 22.6804C21.4668 22.6518 21.4674 22.6282 21.4677 22.6104C21.4679 22.6015 21.468 22.5941 21.468 22.5881C21.4681 22.5852 21.4681 22.5826 21.4681 22.5804C21.4681 22.5793 21.4681 22.5783 21.4681 22.5774C21.4681 22.577 21.4681 22.5765 21.4681 22.5761C21.4681 22.5759 21.4681 22.5756 21.4681 22.5755C21.4681 22.5753 21.4681 22.575 20.4681 22.575ZM19.6306 24.1375L19.6306 23.1375C19.7546 23.1375 19.7933 23.2008 19.7068 23.1281C19.6075 23.0445 19.5043 22.9242 19.3095 22.7001C19.1445 22.5103 18.9048 22.2366 18.611 22.0175C18.2998 21.7855 17.8773 21.575 17.3453 21.575L17.3453 22.575L17.3453 23.575C17.3212 23.575 17.3336 23.5598 17.4154 23.6208C17.5144 23.6946 17.6256 23.8116 17.8002 24.0124C17.945 24.1789 18.1704 24.4492 18.4194 24.6586C18.6812 24.8789 19.0879 25.1375 19.6306 25.1375L19.6306 24.1375ZM17.3453 22.575L17.3453 21.575C16.3026 21.575 15.6512 22.3572 15.3545 22.7972C15.1834 23.051 15.0577 23.2978 14.9756 23.4773C14.9339 23.5685 14.9018 23.6458 14.8794 23.7025C14.8681 23.731 14.8592 23.7545 14.8526 23.7723C14.8493 23.7812 14.8466 23.7887 14.8445 23.7946C14.8434 23.7976 14.8425 23.8002 14.8417 23.8024C14.8413 23.8035 14.8409 23.8045 14.8406 23.8055C14.8404 23.8059 14.8403 23.8063 14.8402 23.8067C14.8401 23.8069 14.84 23.8072 14.8399 23.8073C14.8398 23.8076 14.8398 23.8079 15.7839 24.1375C16.728 24.4671 16.7279 24.4674 16.7278 24.4676C16.7278 24.4677 16.7277 24.468 16.7276 24.4681C16.7275 24.4684 16.7274 24.4687 16.7273 24.469C16.7271 24.4695 16.727 24.47 16.7269 24.4703C16.7266 24.471 16.7265 24.4714 16.7265 24.4714C16.7264 24.4715 16.7269 24.4702 16.7279 24.4676C16.7298 24.4625 16.7335 24.4525 16.7392 24.4382C16.7505 24.4095 16.769 24.3647 16.7943 24.3094C16.8462 24.1959 16.9205 24.0521 17.0128 23.9153C17.2428 23.5741 17.372 23.575 17.3453 23.575L17.3453 22.575ZM15.7839 24.1375V23.1375H11.0996V24.1375V25.1375H15.7839V24.1375ZM20.4686 21.0125H21.4686V14.7625H20.4686H19.4686V21.0125H20.4686ZM20.4686 14.7625V13.7625H18.9062V14.7625V15.7625H20.4686V14.7625ZM18.9062 14.7625H17.9062V21.0125H18.9062H19.9062V14.7625H18.9062ZM18.9062 21.0125V22.0125H20.4686V21.0125V20.0125H18.9062V21.0125ZM15.7834 19.45H14.7834C14.7834 19.8432 14.9234 20.3719 15.096 20.7798C15.1864 20.9933 15.315 21.2451 15.4922 21.4614C15.641 21.6432 15.9986 22.0125 16.5646 22.0125V21.0125V20.0125C16.7471 20.0125 16.8802 20.0759 16.9496 20.1203C16.9842 20.1424 17.0074 20.1624 17.0202 20.1743C17.0331 20.1864 17.0393 20.194 17.0395 20.1943C17.0399 20.1948 17.0366 20.1907 17.03 20.1809C17.0236 20.1712 17.0152 20.1577 17.0052 20.1399C16.9848 20.1037 16.9618 20.0568 16.9378 20.0002C16.8891 19.8852 16.8471 19.7547 16.8181 19.636C16.7861 19.5046 16.7834 19.4417 16.7834 19.45H15.7834ZM16.5646 21.0125V22.0125C17.1233 22.0125 17.4814 21.6569 17.6389 21.4667C17.8197 21.2484 17.949 20.9943 18.0391 20.7797C18.2124 20.3668 18.3459 19.8406 18.3459 19.45H17.3459H16.3459C16.3459 19.448 16.3423 19.5148 16.3115 19.6449C16.2833 19.7637 16.2424 19.8928 16.195 20.0056C16.1716 20.0612 16.1493 20.1067 16.1298 20.1414C16.1095 20.1774 16.0979 20.1918 16.0985 20.1911C16.0994 20.19 16.1063 20.1818 16.1199 20.1692C16.1334 20.1568 16.1571 20.1369 16.1919 20.1151C16.2628 20.0708 16.3916 20.0125 16.5646 20.0125V21.0125ZM17.3459 19.45H18.3459V16.325H17.3459H16.3459V19.45H17.3459ZM17.3459 16.325H18.3459C18.3459 15.9318 18.2059 15.4031 18.0332 14.9952C17.9428 14.7817 17.8143 14.5299 17.6371 14.3136C17.4882 14.1318 17.1306 13.7625 16.5646 13.7625V14.7625V15.7625C16.3822 15.7625 16.2491 15.6991 16.1796 15.6547C16.1451 15.6326 16.1218 15.6126 16.1091 15.6007C16.0961 15.5886 16.0899 15.581 16.0897 15.5807C16.0893 15.5802 16.0927 15.5843 16.0992 15.5941C16.1057 15.6038 16.1141 15.6173 16.1241 15.6351C16.1444 15.6713 16.1674 15.7182 16.1914 15.7748C16.2401 15.8898 16.2822 16.0203 16.3111 16.139C16.3431 16.2704 16.3459 16.3333 16.3459 16.325H17.3459ZM16.5646 14.7625V13.7625C16.0059 13.7625 15.6478 14.1181 15.4903 14.3083C15.3095 14.5267 15.1802 14.7807 15.0901 14.9954C14.9168 15.4082 14.7834 15.9344 14.7834 16.325H15.7834H16.7834C16.7834 16.327 16.7869 16.2602 16.8178 16.1301C16.846 16.0113 16.8869 15.8823 16.9343 15.7694C16.9576 15.7138 16.9799 15.6683 16.9994 15.6336C17.0197 15.5976 17.0313 15.5832 17.0307 15.5839C17.0298 15.585 17.023 15.5932 17.0093 15.6058C16.9958 15.6182 16.9721 15.6381 16.9373 15.6599C16.8664 15.7042 16.7377 15.7625 16.5646 15.7625V14.7625ZM15.7834 16.325H14.7834V19.45H15.7834H16.7834V16.325H15.7834ZM12.6606 19.45H11.6606C11.6606 19.8432 11.8006 20.3719 11.9733 20.7798C12.0637 20.9933 12.1922 21.2451 12.3694 21.4614C12.5182 21.6432 12.8759 22.0125 13.4419 22.0125V21.0125V20.0125C13.6243 20.0125 13.7574 20.0759 13.8269 20.1203C13.8614 20.1424 13.8846 20.1624 13.8974 20.1743C13.9103 20.1864 13.9165 20.194 13.9168 20.1943C13.9171 20.1948 13.9138 20.1907 13.9073 20.1809C13.9008 20.1712 13.8924 20.1577 13.8824 20.1399C13.8621 20.1037 13.839 20.0568 13.8151 20.0002C13.7664 19.8852 13.7243 19.7547 13.6954 19.636C13.6633 19.5046 13.6606 19.4417 13.6606 19.45H12.6606ZM13.4419 21.0125V22.0125C14.0006 22.0125 14.3586 21.6569 14.5161 21.4667C14.697 21.2484 14.8263 20.9943 14.9163 20.7797C15.0896 20.3668 15.2231 19.8406 15.2231 19.45H14.2231H13.2231C13.2231 19.448 13.2196 19.5148 13.1887 19.6449C13.1605 19.7637 13.1196 19.8928 13.0722 20.0056C13.0489 20.0612 13.0266 20.1067 13.007 20.1414C12.9868 20.1774 12.9751 20.1918 12.9758 20.1911C12.9766 20.19 12.9835 20.1818 12.9971 20.1692C13.0106 20.1568 13.0343 20.1369 13.0692 20.1151C13.14 20.0708 13.2688 20.0125 13.4419 20.0125V21.0125ZM14.2231 19.45H15.2231V16.325H14.2231H13.2231V19.45H14.2231ZM14.2231 16.325H15.2231C15.2231 15.9318 15.0831 15.4031 14.9104 14.9952C14.82 14.7817 14.6915 14.5299 14.5143 14.3136C14.3655 14.1318 14.0078 13.7625 13.4419 13.7625V14.7625V15.7625C13.2594 15.7625 13.1263 15.6991 13.0568 15.6547C13.0223 15.6326 12.9991 15.6126 12.9863 15.6007C12.9734 15.5886 12.9672 15.581 12.9669 15.5807C12.9666 15.5802 12.9699 15.5843 12.9764 15.5941C12.9829 15.6038 12.9913 15.6173 13.0013 15.6351C13.0216 15.6713 13.0447 15.7182 13.0686 15.7748C13.1173 15.8898 13.1594 16.0203 13.1883 16.139C13.2204 16.2704 13.2231 16.3333 13.2231 16.325H14.2231ZM13.4419 14.7625V13.7625C12.8831 13.7625 12.5251 14.1181 12.3676 14.3083C12.1867 14.5267 12.0574 14.7807 11.9674 14.9954C11.7941 15.4082 11.6606 15.9344 11.6606 16.325H12.6606H13.6606C13.6606 16.327 13.6641 16.2602 13.695 16.1301C13.7232 16.0113 13.7641 15.8823 13.8115 15.7694C13.8348 15.7138 13.8571 15.6683 13.8767 15.6336C13.8969 15.5976 13.9086 15.5832 13.9079 15.5839C13.9071 15.585 13.9002 15.5932 13.8866 15.6058C13.8731 15.6182 13.8494 15.6381 13.8145 15.6599C13.7437 15.7042 13.6149 15.7625 13.4419 15.7625V14.7625ZM12.6606 16.325H11.6606V19.45H12.6606H13.6606V16.325H12.6606Z" fill="var(--stroke-0, black)" mask="url(#path-1-outside-1_317_191)"/>
</g>
<defs>
<filter id="filter0_d_317_191" x="0.245216" y="0.262505" width="26.4223" height="27.875" filterUnits="userSpaceOnUse" color-interpolation-filters="sRGB">
<feFlood flood-opacity="0" result="BackgroundImageFix"/>
<feColorMatrix in="SourceAlpha" type="matrix" values="0 0 0 0 0 0 0 0 0 0 0 0 0 0 0 0 0 0 127 0" result="hardAlpha"/>
<feOffset dy="1"/>
<feGaussianBlur stdDeviation="1"/>
<feColorMatrix type="matrix" values="0 0 0 0 0 0 0 0 0 0 0 0 0 0 0 0 0 0 1 0"/>
<feBlend mode="normal" in2="BackgroundImageFix" result="effect1_dropShadow_317_191"/>
<feBlend mode="normal" in="SourceGraphic" in2="effect1_dropShadow_317_191" result="shape"/>
</filter>
</defs>
</svg>
