<svg preserveAspectRatio="none" width="100%" height="100%" overflow="visible" style="display: block;" viewBox="0 0 24 24" fill="none" xmlns="http://www.w3.org/2000/svg">
<g id="iconmonstr-magnifier-2">
<path id="Shape" fill-rule="evenodd" clip-rule="evenodd" d="M23.7925 21.646L17.5918 15.441C18.758 13.836 19.4475 11.862 19.4475 9.73C19.4475 4.365 15.0855 0 9.72324 0C4.36197 0 0 4.365 0 9.73C0 15.096 4.36197 19.46 9.72324 19.46C11.7558 19.46 13.6435 18.833 15.2064 17.762L21.4401 24L23.7925 21.646V21.646ZM2.854 9.73C2.854 5.938 5.93686 2.853 9.72623 2.853C13.5156 2.853 16.5984 5.938 16.5984 9.73C16.5984 13.522 13.5156 16.607 9.72623 16.607C5.93586 16.607 2.854 13.522 2.854 9.73Z" fill="var(--fill-0, black)"/>
</g>
</svg>
