<svg preserveAspectRatio="none" width="100%" height="100%" overflow="visible" style="display: block;" viewBox="0 0 20 24" fill="none" xmlns="http://www.w3.org/2000/svg">
<g id="iconmonstr-trash-can-1">
<path id="Shape" fill-rule="evenodd" clip-rule="evenodd" d="M1 6V24H18.9875V6H1ZM5.99583 20C5.99583 20.552 5.54783 21 4.99583 21C4.44383 21 3.99583 20.552 3.99583 20V10C3.99583 9.448 4.44383 9 4.99583 9C5.54783 9 5.99583 9.448 5.99583 10V20ZM10.9924 20C10.9924 20.552 10.5444 21 9.99236 21C9.44036 21 8.99236 20.552 8.99236 20V10C8.99236 9.448 9.44036 9 9.99236 9C10.5444 9 10.9924 9.448 10.9924 10V20ZM15.9889 20C15.9889 20.552 15.5409 21 14.9889 21C14.4369 21 13.9889 20.552 13.9889 20V10C13.9889 9.448 14.4369 9 14.9889 9C15.5409 9 15.9889 9.448 15.9889 10V20ZM19.9861 2V4H0V2H5.70703C6.60641 2 7.3369 0.901 7.3369 0H12.6482C12.6482 0.901 13.3777 2 14.2781 2H19.9861Z" fill="var(--fill-0, black)"/>
</g>
</svg>
