<svg preserveAspectRatio="none" width="100%" height="100%" overflow="visible" style="display: block;" viewBox="0 0 20 20" fill="none" xmlns="http://www.w3.org/2000/svg">
<g id="Pointer" filter="url(#filter0_d_317_160)">
<mask id="path-1-outside-1_317_160" maskUnits="userSpaceOnUse" x="2" y="1" width="16" height="16" fill="black">
<rect fill="white" x="2" y="1" width="16" height="16"/>
<path fill-rule="evenodd" clip-rule="evenodd" d="M8.02682 16C8.02682 16 5.80912 14.3013 5.0289 13C4.24869 11.6987 2.77022 10.041 3.03029 9C3.29036 7.95899 4.24869 7.63091 5.0289 8.41167C5.80912 9.19243 6.33469 10.8841 6.85484 10.6238C7.37498 10.3636 6.98487 7.89117 6.46473 6.45978C5.94459 5.02839 5.40229 2 6.46473 2C7.52717 2 7.52717 3 8.02682 4.5C8.52647 6 8.13636 8 8.52647 8C8.91658 8 9.06545 7.65063 9.06545 7C9.06545 6.82319 9.10009 6.67375 9.17043 6.54986C9.35891 6.21788 9.80372 6.0694 10.5251 6.0694C11.5156 6.0694 11.0247 8 11.5244 8C12.024 8 12.024 8.04101 12.024 7C12.024 5.95899 12.4874 6.0694 13.4867 6.0694C14.486 6.0694 14.0022 8 14.5223 8C15.0425 8 14.5223 7 15.022 7C15.5216 7 16.0213 7.15773 16.0213 9.5C16.0213 11.8423 16.3018 11.959 15.5216 13C14.7414 14.041 14.0227 15 14.0227 15C14.0227 15 14.0227 16 13.4867 16C12.9507 16 12.6742 15 12.024 15C11.3739 15 11.0247 16 11.0247 16H8.02682ZM14.023 14V10H13.023V14H14.023ZM11.0244 13C11.0244 13.2709 11.2564 14 11.5244 14C11.8006 14 12.0244 13.2754 12.0244 13V11C12.0244 10.7291 11.7925 10 11.5244 10C11.2483 10 11.0244 10.7246 11.0244 11V13ZM9.02582 13C9.02582 13.2709 9.25776 14 9.52582 14C9.80197 14 10.0258 13.2754 10.0258 13V11C10.0258 10.7291 9.79389 10 9.52582 10C9.24968 10 9.02582 10.7246 9.02582 11V13Z"/>
</mask>
<path fill-rule="evenodd" clip-rule="evenodd" d="M8.02682 16C8.02682 16 5.80912 14.3013 5.0289 13C4.24869 11.6987 2.77022 10.041 3.03029 9C3.29036 7.95899 4.24869 7.63091 5.0289 8.41167C5.80912 9.19243 6.33469 10.8841 6.85484 10.6238C7.37498 10.3636 6.98487 7.89117 6.46473 6.45978C5.94459 5.02839 5.40229 2 6.46473 2C7.52717 2 7.52717 3 8.02682 4.5C8.52647 6 8.13636 8 8.52647 8C8.91658 8 9.06545 7.65063 9.06545 7C9.06545 6.82319 9.10009 6.67375 9.17043 6.54986C9.35891 6.21788 9.80372 6.0694 10.5251 6.0694C11.5156 6.0694 11.0247 8 11.5244 8C12.024 8 12.024 8.04101 12.024 7C12.024 5.95899 12.4874 6.0694 13.4867 6.0694C14.486 6.0694 14.0022 8 14.5223 8C15.0425 8 14.5223 7 15.022 7C15.5216 7 16.0213 7.15773 16.0213 9.5C16.0213 11.8423 16.3018 11.959 15.5216 13C14.7414 14.041 14.0227 15 14.0227 15C14.0227 15 14.0227 16 13.4867 16C12.9507 16 12.6742 15 12.024 15C11.3739 15 11.0247 16 11.0247 16H8.02682ZM14.023 14V10H13.023V14H14.023ZM11.0244 13C11.0244 13.2709 11.2564 14 11.5244 14C11.8006 14 12.0244 13.2754 12.0244 13V11C12.0244 10.7291 11.7925 10 11.5244 10C11.2483 10 11.0244 10.7246 11.0244 11V13ZM9.02582 13C9.02582 13.2709 9.25776 14 9.52582 14C9.80197 14 10.0258 13.2754 10.0258 13V11C10.0258 10.7291 9.79389 10 9.52582 10C9.24968 10 9.02582 10.7246 9.02582 11V13Z" fill="var(--fill-0, white)"/>
<path d="M8.02682 16L7.41873 16.7939L7.68783 17H8.02682V16ZM5.0289 13L4.17125 13.5142L4.17125 13.5142L5.0289 13ZM3.03029 9L4.00047 9.24238L4.00047 9.24238L3.03029 9ZM5.0289 8.41167L4.32155 9.11853L4.32155 9.11853L5.0289 8.41167ZM6.85484 10.6238L6.40737 9.72951L6.40737 9.72951L6.85484 10.6238ZM6.46473 6.45978L7.4046 6.11825L7.4046 6.11825L6.46473 6.45978ZM6.46473 2L6.46473 1L6.46473 1L6.46473 2ZM8.52647 8L8.52647 9L8.52647 9L8.52647 8ZM9.06545 7L8.06545 7L8.06545 7L9.06545 7ZM9.17043 6.54986L8.30082 6.05613L8.30082 6.05613L9.17043 6.54986ZM10.5251 6.0694L10.5251 5.0694L10.5251 5.0694L10.5251 6.0694ZM11.5244 8L11.5244 7L11.5244 7L11.5244 8ZM12.024 7L11.024 7L12.024 7ZM13.4867 6.0694L13.4867 5.0694L13.4867 5.0694L13.4867 6.0694ZM14.5223 8L14.5223 9L14.5223 9L14.5223 8ZM15.022 7L15.022 6L15.022 6L15.022 7ZM16.0213 9.5L15.0213 9.5L16.0213 9.5ZM14.0227 15L13.2225 14.4003L13.0227 14.6669V15H14.0227ZM13.4867 16L13.4867 15L13.4867 15L13.4867 16ZM12.024 15L12.024 14L12.024 15ZM11.0247 16V17H11.7348L11.9689 16.3296L11.0247 16ZM14.023 14V15H15.023V14H14.023ZM14.023 10H15.023V9H14.023V10ZM13.023 10V9H12.023V10H13.023ZM13.023 14H12.023V15H13.023V14ZM8.02682 16C8.63491 15.2061 8.63498 15.2062 8.63504 15.2062C8.63505 15.2062 8.6351 15.2063 8.63512 15.2063C8.63516 15.2063 8.63516 15.2063 8.63513 15.2063C8.63507 15.2063 8.63488 15.2061 8.63456 15.2059C8.63391 15.2054 8.63274 15.2045 8.63106 15.2032C8.62771 15.2006 8.62232 15.1964 8.61501 15.1907C8.60038 15.1794 8.57808 15.162 8.54898 15.1391C8.49076 15.0932 8.40552 15.0253 8.30031 14.9394C8.08939 14.7673 7.80072 14.5251 7.48977 14.245C6.84047 13.6601 6.19264 12.9963 5.88655 12.4858L5.0289 13L4.17125 13.5142C4.64538 14.305 5.4965 15.1412 6.15111 15.7309C6.49212 16.0381 6.80664 16.302 7.03592 16.489C7.1508 16.5828 7.24492 16.6578 7.31103 16.7099C7.34409 16.7359 7.3702 16.7563 7.38844 16.7705C7.39756 16.7775 7.40472 16.7831 7.4098 16.787C7.41235 16.789 7.41437 16.7905 7.41586 16.7917C7.41661 16.7922 7.41722 16.7927 7.4177 16.7931C7.41794 16.7933 7.41814 16.7934 7.41831 16.7935C7.4184 16.7936 7.4185 16.7937 7.41855 16.7937C7.41864 16.7938 7.41873 16.7939 8.02682 16ZM5.0289 13L5.88655 12.4858C5.67239 12.1286 5.41506 11.7546 5.17447 11.4052C4.92642 11.045 4.69249 10.7059 4.49145 10.3788C4.28852 10.0486 4.1455 9.7722 4.06564 9.54699C3.98239 9.3122 4.00324 9.2313 4.00047 9.24238L3.03029 9L2.06011 8.75762C1.9273 9.28921 2.03544 9.8059 2.18063 10.2154C2.32922 10.6344 2.55582 11.049 2.78752 11.426C3.02112 11.8061 3.28684 12.1905 3.52731 12.5396C3.77525 12.8996 3.9953 13.2208 4.17125 13.5142L5.0289 13ZM3.03029 9L4.00047 9.24238C4.06869 8.96932 4.17607 8.96375 4.13057 8.97785C4.11403 8.98298 4.10904 8.97716 4.12945 8.98345C4.15362 8.9909 4.22288 9.0198 4.32155 9.11853L5.0289 8.41167L5.73625 7.70481C5.14869 7.11684 4.34272 6.81826 3.53851 7.06749C2.75377 7.3107 2.25196 7.98968 2.06011 8.75762L3.03029 9ZM5.0289 8.41167L4.32155 9.11853C4.59846 9.39564 4.83337 9.84402 5.1828 10.4241C5.32521 10.6605 5.52069 10.9736 5.75381 11.206C5.87321 11.325 6.06467 11.4874 6.33013 11.5799C6.63435 11.6858 6.98076 11.679 7.3023 11.5181L6.85484 10.6238L6.40737 9.72951C6.59888 9.63369 6.81509 9.63094 6.98795 9.69115C7.12207 9.73786 7.18103 9.80471 7.16583 9.78956C7.12973 9.75357 7.04752 9.64369 6.89599 9.39214C6.65754 8.99628 6.23955 8.20846 5.73625 7.70481L5.0289 8.41167ZM6.85484 10.6238L7.3023 11.5181C7.67793 11.3302 7.85533 11.0052 7.93731 10.8001C8.02408 10.583 8.06273 10.3561 8.08171 10.1621C8.12015 9.76917 8.09554 9.31067 8.04305 8.86421C7.93721 7.96397 7.69306 6.91205 7.4046 6.11825L6.46473 6.45978L5.52486 6.80131C5.75655 7.43889 5.96751 8.33887 6.05673 9.09774C6.10177 9.48083 6.10967 9.77869 6.09121 9.96731C6.08175 10.0641 6.06961 10.0842 6.08018 10.0577C6.08597 10.0432 6.16178 9.8524 6.40737 9.72951L6.85484 10.6238ZM6.46473 6.45978L7.4046 6.11825C7.17254 5.47964 6.92907 4.45526 6.86865 3.62089C6.83744 3.18998 6.86348 2.91066 6.90243 2.77875C6.92063 2.71712 6.91945 2.76624 6.84451 2.84098C6.74444 2.94078 6.59886 3 6.46473 3L6.46473 2L6.46473 1C6.06499 1 5.70394 1.15386 5.43221 1.42486C5.1856 1.67081 5.05655 1.96771 4.9843 2.21236C4.84238 2.693 4.83729 3.26023 4.87387 3.76535C4.94902 4.80302 5.23677 6.00853 5.52486 6.80131L6.46473 6.45978ZM6.46473 2L6.46473 3C6.5644 3 6.54039 3.01967 6.48912 2.98145C6.45486 2.95591 6.48163 2.95612 6.54364 3.09506C6.60817 3.23964 6.67092 3.4394 6.75968 3.75073C6.84282 4.04238 6.94431 4.41447 7.07807 4.81603L8.02682 4.5L8.97557 4.18397C8.8595 3.83553 8.77362 3.52012 8.68304 3.20239C8.59807 2.90435 8.50073 2.57286 8.37 2.27994C8.23675 1.98138 8.03308 1.63784 7.6844 1.37792C7.3187 1.10533 6.89627 1 6.46473 1L6.46473 2ZM8.02682 4.5L7.07807 4.81603C7.27285 5.40077 7.30388 6.12722 7.31792 6.83241C7.32413 7.14378 7.32745 7.51036 7.36165 7.78683C7.37768 7.91641 7.41126 8.13395 7.51189 8.3437C7.62062 8.57031 7.92888 9 8.52647 9L8.52647 8L8.52647 7C9.02654 7 9.26166 7.36718 9.31509 7.47857C9.36044 7.57308 9.35659 7.62265 9.34652 7.5413C9.32854 7.39589 9.32502 7.16871 9.31753 6.79259C9.30419 6.12278 9.28045 5.09923 8.97557 4.18397L8.02682 4.5ZM8.52647 8L8.52647 9C8.77771 9 9.05077 8.94197 9.30446 8.78374C9.55663 8.62647 9.72484 8.41067 9.83318 8.19814C10.0305 7.81098 10.0654 7.36312 10.0654 7L9.06545 7L8.06545 7C8.06545 7.12781 8.0579 7.21542 8.04886 7.27141C8.03936 7.33028 8.03253 7.32671 8.05132 7.28984C8.07368 7.24597 8.13153 7.15818 8.24606 7.08675C8.36213 7.01436 8.47029 7 8.52647 7L8.52647 8ZM9.06545 7L10.0654 7C10.0654 6.97642 10.0678 6.97204 10.0655 6.98188C10.063 6.99279 10.056 7.01545 10.04 7.04359L9.17043 6.54986L8.30082 6.05613C8.12612 6.36382 8.06545 6.69289 8.06545 7L9.06545 7ZM9.17043 6.54986L10.04 7.04359C9.98578 7.13917 9.919 7.14971 9.97787 7.12914C10.0536 7.10267 10.2195 7.0694 10.5251 7.0694L10.5251 6.0694L10.5251 5.0694C9.7849 5.0694 8.78777 5.19845 8.30082 6.05613L9.17043 6.54986ZM10.5251 6.0694V7.0694C10.4779 7.0694 10.3872 7.05511 10.2923 6.99423C10.2041 6.93771 10.1647 6.87467 10.1558 6.85865C10.1556 6.85831 10.1864 6.93011 10.2174 7.16524C10.2356 7.3037 10.269 7.68022 10.32 7.91269C10.3479 8.03976 10.4067 8.26874 10.5549 8.48397C10.7361 8.74737 11.0656 9 11.5244 9L11.5244 8L11.5244 7C11.8583 7 12.0938 7.1923 12.2024 7.35012C12.2779 7.45977 12.2853 7.53792 12.2735 7.48399C12.2451 7.35448 12.2456 7.24835 12.2003 6.90416C12.1677 6.65664 12.1043 6.2458 11.9019 5.88346C11.7919 5.68645 11.6245 5.47259 11.3716 5.31048C11.1119 5.14402 10.8199 5.0694 10.5251 5.0694V6.0694ZM11.5244 8V9C11.5805 9 11.8047 9.00717 11.9873 8.97487C12.1052 8.95405 12.2749 8.90867 12.448 8.79593C12.6317 8.67622 12.7622 8.51789 12.8484 8.35244C12.9896 8.08148 13.0071 7.79055 13.0147 7.65011C13.0244 7.47352 13.024 7.24779 13.024 7L12.024 7L11.024 7C11.024 7.27271 11.0237 7.43223 11.0177 7.54074C11.0149 7.5922 11.012 7.60483 11.0137 7.59543C11.015 7.58855 11.0271 7.51969 11.0747 7.42831C11.1297 7.3228 11.2212 7.20814 11.3562 7.12023C11.4804 7.03928 11.5916 7.01382 11.6392 7.00541C11.6821 6.99783 11.7032 6.99928 11.6703 6.99991C11.6349 7.00058 11.6042 7 11.5244 7V8ZM12.024 7L13.024 7C13.024 6.90469 13.0295 6.84474 13.0346 6.81076C13.0398 6.77658 13.0425 6.78326 13.0294 6.81359C13.0144 6.84795 12.9834 6.90267 12.9276 6.95798C12.8717 7.01348 12.814 7.04667 12.7724 7.06437C12.7354 7.08012 12.7184 7.0806 12.7387 7.07745C12.7592 7.07425 12.7987 7.07015 12.8687 7.0679C12.9385 7.06565 13.0208 7.06567 13.1278 7.06665C13.2289 7.06757 13.3557 7.0694 13.4867 7.0694L13.4867 6.0694L13.4867 5.0694C13.286 5.0694 13.0064 5.06244 12.8044 5.06893C12.5961 5.07563 12.2883 5.09671 11.9888 5.22428C11.6336 5.37555 11.356 5.64575 11.1947 6.01725C11.0555 6.33812 11.024 6.68678 11.024 7L12.024 7ZM13.4867 6.0694V7.0694C13.4422 7.0694 13.3546 7.05598 13.262 6.99738C13.1759 6.94289 13.1371 6.882 13.1284 6.86674C13.122 6.85549 13.1326 6.87088 13.1489 6.93331C13.1647 6.99373 13.1794 7.07216 13.1942 7.17618C13.2145 7.31772 13.2518 7.69247 13.3092 7.93153C13.3404 8.06196 13.4053 8.29209 13.5615 8.50631C13.7518 8.76726 14.0807 9 14.5223 9L14.5223 8L14.5223 7C14.8339 7 15.0641 7.17241 15.1774 7.32778C15.2566 7.43642 15.2661 7.51573 15.254 7.46515C15.2245 7.34223 15.2229 7.23433 15.1741 6.89322C15.1389 6.6467 15.0714 6.23629 14.8654 5.87538C14.7534 5.67912 14.5844 5.46741 14.3315 5.30733C14.072 5.14316 13.781 5.0694 13.4867 5.0694V6.0694ZM14.5223 8L14.5223 9C14.7516 9 15.025 8.94234 15.2718 8.75762C15.5137 8.57659 15.6349 8.34446 15.6954 8.16849C15.7531 8.00043 15.769 7.84495 15.7752 7.74667C15.7816 7.64565 15.7804 7.54702 15.7798 7.48976C15.779 7.41788 15.779 7.38954 15.7801 7.36861C15.7813 7.34541 15.782 7.38729 15.7598 7.45759C15.7357 7.53375 15.6686 7.69311 15.4983 7.82764C15.3192 7.96911 15.1321 8 15.022 8L15.022 7L15.022 6C14.7869 6 14.5068 6.06214 14.2585 6.25829C14.019 6.44751 13.9064 6.685 13.8527 6.85491C13.8009 7.01896 13.7877 7.17021 13.7828 7.2642C13.7778 7.36046 13.7793 7.45712 13.7799 7.51024C13.7806 7.57798 13.7803 7.60435 13.7792 7.62051C13.778 7.63942 13.7782 7.59332 13.8037 7.51901C13.832 7.43679 13.9046 7.28279 14.0734 7.15645C14.2471 7.02641 14.4231 7 14.5223 7L14.5223 8ZM15.022 7V8C15.1075 8 15.0635 8.01052 14.9871 7.97697C14.8826 7.9311 14.8373 7.86178 14.838 7.8629C14.8512 7.88637 14.9032 7.99713 14.9478 8.27805C14.9914 8.55269 15.0213 8.94537 15.0213 9.5L16.0213 9.5L17.0213 9.5C17.0213 8.31925 16.9064 7.45903 16.58 6.88039C16.3933 6.5493 16.1294 6.29416 15.7907 6.14552C15.48 6.0092 15.1862 6 15.022 6V7ZM16.0213 9.5L15.0213 9.5C15.0213 10.1065 15.0395 10.5694 15.0537 10.9282C15.0686 11.3034 15.0758 11.5128 15.0659 11.6775C15.0576 11.8133 15.039 11.8812 15.0102 11.9482C14.9732 12.0344 14.8994 12.1628 14.7214 12.4003L15.5216 13L16.3218 13.5997C16.534 13.3167 16.7177 13.0402 16.8475 12.7385C16.9855 12.4176 17.043 12.1147 17.0622 11.7984C17.0796 11.5111 17.0655 11.187 17.0521 10.8491C17.0381 10.4947 17.0213 10.0647 17.0213 9.5L16.0213 9.5ZM15.5216 13L14.7214 12.4003C14.3313 12.9208 13.9566 13.4208 13.6794 13.7906C13.5408 13.9756 13.4265 14.128 13.347 14.2342C13.3072 14.2872 13.276 14.3288 13.2549 14.357C13.2443 14.3712 13.2362 14.382 13.2307 14.3892C13.228 14.3929 13.2259 14.3956 13.2245 14.3975C13.2239 14.3984 13.2233 14.3991 13.223 14.3996C13.2228 14.3998 13.2227 14.4 13.2226 14.4001C13.2225 14.4001 13.2225 14.4002 13.2225 14.4002C13.2225 14.4002 13.2225 14.4002 13.2225 14.4003C13.2225 14.4003 13.2225 14.4003 14.0227 15C14.8229 15.5997 14.8229 15.5997 14.8229 15.5997C14.8229 15.5997 14.8229 15.5997 14.8229 15.5997C14.8229 15.5997 14.8229 15.5996 14.823 15.5996C14.8231 15.5994 14.8232 15.5993 14.8234 15.599C14.8237 15.5986 14.8243 15.5979 14.8249 15.597C14.8263 15.5951 14.8284 15.5923 14.8311 15.5887C14.8366 15.5814 14.8447 15.5706 14.8553 15.5565C14.8764 15.5282 14.9076 15.4867 14.9474 15.4336C15.0269 15.3275 15.1412 15.175 15.2798 14.9901C15.557 14.6202 15.9317 14.1202 16.3218 13.5997L15.5216 13ZM14.0227 15C13.0227 15 13.0227 14.9997 13.0227 14.9995C13.0227 14.9994 13.0227 14.9992 13.0227 14.999C13.0227 14.9987 13.0227 14.9984 13.0227 14.9981C13.0227 14.9975 13.0227 14.997 13.0227 14.9965C13.0227 14.9955 13.0227 14.9948 13.0227 14.9942C13.0227 14.9931 13.0227 14.9929 13.0227 14.9934C13.0227 14.9944 13.0226 14.9983 13.0223 15.0047C13.0218 15.0178 13.0207 15.0397 13.0182 15.0673C13.0129 15.127 13.0033 15.1906 12.9897 15.2411C12.9727 15.3046 12.9683 15.278 13.0172 15.2172C13.047 15.1801 13.1033 15.1225 13.1932 15.0746C13.288 15.0241 13.3911 15 13.4867 15V16V17C13.9842 17 14.3522 16.7485 14.5759 16.4703C14.7756 16.222 14.8716 15.9454 14.9216 15.7589C14.975 15.5594 14.9989 15.373 15.0103 15.2452C15.0162 15.179 15.0193 15.1229 15.0209 15.0812C15.0217 15.0603 15.0221 15.0427 15.0224 15.0291C15.0225 15.0223 15.0226 15.0164 15.0226 15.0115C15.0226 15.0091 15.0226 15.0069 15.0226 15.005C15.0227 15.004 15.0227 15.0031 15.0227 15.0023C15.0227 15.0019 15.0227 15.0015 15.0227 15.0011C15.0227 15.0009 15.0227 15.0006 15.0227 15.0005C15.0227 15.0003 15.0227 15 14.0227 15ZM13.4867 16L13.4867 15C13.686 15 13.7909 15.0985 13.7672 15.0785C13.7305 15.0477 13.6865 14.9976 13.5528 14.8438C13.4489 14.7244 13.2725 14.521 13.0493 14.3546C12.8089 14.1753 12.4646 14 12.024 14L12.024 15L12.024 16C11.9086 16 11.8427 15.9497 11.8537 15.9579C11.882 15.979 11.9301 16.0256 12.0436 16.1562C12.1272 16.2524 12.2935 16.4523 12.4797 16.609C12.6788 16.7765 13.0193 17 13.4867 17L13.4867 16ZM12.024 15L12.024 14C11.1643 14 10.6533 14.6415 10.4514 14.941C10.3277 15.1244 10.2381 15.3009 10.1801 15.4277C10.1505 15.4925 10.1275 15.5478 10.1111 15.5892C10.1029 15.61 10.0963 15.6274 10.0912 15.6411C10.0887 15.6479 10.0865 15.6538 10.0848 15.6587C10.0839 15.6612 10.0831 15.6634 10.0824 15.6653C10.0821 15.6663 10.0817 15.6672 10.0814 15.6681C10.0813 15.6685 10.0812 15.6689 10.081 15.6693C10.0809 15.6695 10.0808 15.6697 10.0808 15.6698C10.0807 15.6701 10.0806 15.6704 11.0247 16C11.9689 16.3296 11.9688 16.3299 11.9687 16.3301C11.9686 16.3302 11.9686 16.3305 11.9685 16.3306C11.9684 16.331 11.9683 16.3313 11.9682 16.3316C11.968 16.3322 11.9678 16.3327 11.9676 16.3332C11.9672 16.3342 11.967 16.335 11.9668 16.3355C11.9664 16.3366 11.9663 16.3369 11.9664 16.3364C11.9668 16.3354 11.9683 16.3314 11.9709 16.3249C11.9762 16.3116 11.9855 16.2887 11.9988 16.2598C12.0266 16.1991 12.0649 16.1256 12.1097 16.059C12.1316 16.0266 12.1516 16.0009 12.1688 15.9816C12.1771 15.9723 12.1839 15.9654 12.1889 15.9607C12.1939 15.956 12.1964 15.9541 12.1962 15.9543C12.1952 15.9551 12.1326 16 12.024 16L12.024 15ZM11.0247 16V15H8.02682V16V17H11.0247V16ZM14.023 14H15.023V10H14.023H13.023V14H14.023ZM14.023 10V9H13.023V10V11H14.023V10ZM13.023 10H12.023V14H13.023H14.023V10H13.023ZM13.023 14V15H14.023V14V13H13.023V14ZM11.0244 13H10.0244C10.0244 13.317 10.1318 13.7051 10.253 13.9914C10.3177 14.1441 10.4158 14.3399 10.5595 14.5154C10.6749 14.6564 10.9962 15 11.5244 15V14V13C11.7257 13 11.8773 13.0698 11.9648 13.1257C12.0481 13.179 12.0932 13.2315 12.1069 13.2483C12.1318 13.2786 12.1216 13.2752 12.0948 13.2118C12.0719 13.1576 12.0508 13.0927 12.0364 13.0338C12.0295 13.0054 12.0257 12.9845 12.0239 12.9727C12.0216 12.9576 12.0244 12.9687 12.0244 13H11.0244ZM11.5244 14V15C12.0443 15 12.3654 14.6699 12.4892 14.5203C12.6364 14.3426 12.7354 14.1443 12.8001 13.9903C12.9224 13.6987 13.0244 13.3132 13.0244 13H12.0244H11.0244C11.0244 12.9593 11.0288 12.9716 11.0121 13.0416C10.9982 13.1004 10.9778 13.164 10.9559 13.2163C10.9301 13.2778 10.9213 13.2779 10.9489 13.2447C10.9642 13.2261 11.0107 13.1732 11.0951 13.1204C11.1843 13.0647 11.332 13 11.5244 13V14ZM12.0244 13H13.0244V11H12.0244H11.0244V13H12.0244ZM12.0244 11H13.0244C13.0244 10.683 12.917 10.2949 12.7959 10.0086C12.7312 9.85585 12.6331 9.66013 12.4893 9.48459C12.3739 9.34365 12.0527 9 11.5244 9V10V11C11.3231 11 11.1715 10.9302 11.0841 10.8743C11.0008 10.821 10.9557 10.7685 10.942 10.7517C10.9171 10.7214 10.9272 10.7248 10.9541 10.7882C10.977 10.8424 10.9981 10.9073 11.0124 10.9662C11.0194 10.9946 11.0232 11.0155 11.025 11.0273C11.0272 11.0424 11.0244 11.0313 11.0244 11H12.0244ZM11.5244 10V9C11.0046 9 10.6835 9.33014 10.5596 9.4797C10.4125 9.65742 10.3135 9.85568 10.2488 10.0097C10.1264 10.3013 10.0244 10.6868 10.0244 11H11.0244H12.0244C12.0244 11.0407 12.0201 11.0284 12.0367 10.9584C12.0507 10.8996 12.071 10.836 12.093 10.7837C12.1188 10.7222 12.1275 10.7221 12.1 10.7553C12.0846 10.7739 12.0382 10.8268 11.9538 10.8796C11.8646 10.9353 11.7169 11 11.5244 11V10ZM11.0244 11H10.0244V13H11.0244H12.0244V11H11.0244ZM9.02582 13H8.02582C8.02582 13.317 8.13321 13.7051 8.2544 13.9914C8.31906 14.1441 8.41717 14.3399 8.56092 14.5154C8.67633 14.6564 8.99754 15 9.52582 15V14V13C9.72712 13 9.87873 13.0698 9.9662 13.1257C10.0495 13.179 10.0946 13.2315 10.1083 13.2483C10.1332 13.2786 10.123 13.2752 10.0962 13.2118C10.0732 13.1576 10.0522 13.0927 10.0378 13.0338C10.0309 13.0054 10.0271 12.9845 10.0253 12.9727C10.023 12.9576 10.0258 12.9687 10.0258 13H9.02582ZM9.52582 14V15C10.0457 15 10.3668 14.6699 10.4906 14.5203C10.6378 14.3426 10.7368 14.1443 10.8014 13.9903C10.9238 13.6987 11.0258 13.3132 11.0258 13H10.0258H9.02582C9.02582 12.9593 9.03015 12.9716 9.01353 13.0416C8.99958 13.1004 8.97923 13.164 8.95731 13.2163C8.93147 13.2778 8.92272 13.2779 8.95026 13.2447C8.96562 13.2261 9.01205 13.1732 9.09645 13.1204C9.18564 13.0647 9.33334 13 9.52582 13V14ZM10.0258 13H11.0258V11H10.0258H9.02582V13H10.0258ZM10.0258 11H11.0258C11.0258 10.683 10.9184 10.2949 10.7972 10.0086C10.7326 9.85585 10.6345 9.66013 10.4907 9.48459C10.3753 9.34365 10.0541 9 9.52582 9V10V11C9.32452 11 9.17291 10.9302 9.08544 10.8743C9.00217 10.821 8.95708 10.7685 8.94335 10.7517C8.91849 10.7214 8.92862 10.7248 8.95545 10.7882C8.9784 10.8424 8.99948 10.9073 9.01381 10.9662C9.02075 10.9946 9.02459 11.0155 9.02635 11.0273C9.02862 11.0424 9.02582 11.0313 9.02582 11H10.0258ZM9.52582 10V9C9.00595 9 8.68487 9.33014 8.56102 9.4797C8.41384 9.65742 8.31484 9.85568 8.2502 10.0097C8.12781 10.3013 8.02582 10.6868 8.02582 11H9.02582H10.0258C10.0258 11.0407 10.0215 11.0284 10.0381 10.9584C10.0521 10.8996 10.0724 10.836 10.0943 10.7837C10.1202 10.7222 10.1289 10.7221 10.1014 10.7553C10.086 10.7739 10.0396 10.8268 9.9552 10.8796C9.866 10.9353 9.71831 11 9.52582 11V10ZM9.02582 11H8.02582V13H9.02582H10.0258V11H9.02582Z" fill="var(--stroke-0, black)" mask="url(#path-1-outside-1_317_160)"/>
</g>
<defs>
<filter id="filter0_d_317_160" x="-5.13792e-05" y="0" width="19.0703" height="20" filterUnits="userSpaceOnUse" color-interpolation-filters="sRGB">
<feFlood flood-opacity="0" result="BackgroundImageFix"/>
<feColorMatrix in="SourceAlpha" type="matrix" values="0 0 0 0 0 0 0 0 0 0 0 0 0 0 0 0 0 0 127 0" result="hardAlpha"/>
<feOffset dy="1"/>
<feGaussianBlur stdDeviation="1"/>
<feColorMatrix type="matrix" values="0 0 0 0 0 0 0 0 0 0 0 0 0 0 0 0 0 0 1 0"/>
<feBlend mode="normal" in2="BackgroundImageFix" result="effect1_dropShadow_317_160"/>
<feBlend mode="normal" in="SourceGraphic" in2="effect1_dropShadow_317_160" result="shape"/>
</filter>
</defs>
</svg>
