<svg preserveAspectRatio="none" width="100%" height="100%" overflow="visible" style="display: block;" viewBox="0 0 21 20" fill="none" xmlns="http://www.w3.org/2000/svg">
<g id="Drag" filter="url(#filter0_d_317_99)">
<mask id="path-1-outside-1_317_99" maskUnits="userSpaceOnUse" x="2" y="1" width="17" height="16" fill="black">
<rect fill="white" x="2" y="1" width="17" height="16"/>
<path fill-rule="evenodd" clip-rule="evenodd" d="M8.02681 16C8.02681 16 5.80911 14.3013 5.0289 13C4.24868 11.6987 2.77022 10.041 3.03029 9C3.29036 7.95899 4.24868 7.63091 5.0289 8.41167C5.80911 9.19243 6.00771 10.7603 6.52785 10.5C7.048 10.2397 7.048 8.93139 6.52785 7.5C6.00771 6.06861 4.46611 3 5.52855 3C6.59099 3 7.02751 3 7.52716 4.5C8.02681 6 8.13636 8 8.52646 8C8.91657 8 8.52646 8.41167 9.06544 7C9.12856 6.83467 8.9951 3.62389 9.06544 3.5C9.25392 3.16802 9.32756 2 10.0489 2C10.3944 2 11.0247 2.5 11.0247 4.5C11.0247 6.5 11.1417 8 11.5244 8C12.024 8 12.024 8.04101 12.024 7C12.024 6.56239 12.024 5 12.024 4.5C12.024 4 12.9074 3 13.4867 3C14.486 3 14.0021 8 14.5223 8C14.7471 8 15.5216 6 15.5216 6C15.5216 6 16.2372 5 16.5209 5C17.5202 5 17.0206 8 16.5209 9C16.0212 10 16.3018 11.959 15.5216 13C14.7414 14.041 14.0226 15 14.0226 15C14.0226 15 14.0226 16 13.4867 16C12.9507 16 12.6742 15 12.024 15C11.3739 15 11.0247 16 11.0247 16H8.02681ZM14.023 14V10H13.023V14H14.023ZM11.0244 13C11.0244 13.2709 11.2563 14 11.5244 14C11.8005 14 12.0244 13.2754 12.0244 13V11C12.0244 10.7291 11.7925 10 11.5244 10C11.2483 10 11.0244 10.7246 11.0244 11V13ZM9.02579 13C9.02579 13.2709 9.25772 14 9.52579 14C9.80193 14 10.0258 13.2754 10.0258 13V11C10.0258 10.7291 9.79386 10 9.52579 10C9.24965 10 9.02579 10.7246 9.02579 11V13Z"/>
</mask>
<path fill-rule="evenodd" clip-rule="evenodd" d="M8.02681 16C8.02681 16 5.80911 14.3013 5.0289 13C4.24868 11.6987 2.77022 10.041 3.03029 9C3.29036 7.95899 4.24868 7.63091 5.0289 8.41167C5.80911 9.19243 6.00771 10.7603 6.52785 10.5C7.048 10.2397 7.048 8.93139 6.52785 7.5C6.00771 6.06861 4.46611 3 5.52855 3C6.59099 3 7.02751 3 7.52716 4.5C8.02681 6 8.13636 8 8.52646 8C8.91657 8 8.52646 8.41167 9.06544 7C9.12856 6.83467 8.9951 3.62389 9.06544 3.5C9.25392 3.16802 9.32756 2 10.0489 2C10.3944 2 11.0247 2.5 11.0247 4.5C11.0247 6.5 11.1417 8 11.5244 8C12.024 8 12.024 8.04101 12.024 7C12.024 6.56239 12.024 5 12.024 4.5C12.024 4 12.9074 3 13.4867 3C14.486 3 14.0021 8 14.5223 8C14.7471 8 15.5216 6 15.5216 6C15.5216 6 16.2372 5 16.5209 5C17.5202 5 17.0206 8 16.5209 9C16.0212 10 16.3018 11.959 15.5216 13C14.7414 14.041 14.0226 15 14.0226 15C14.0226 15 14.0226 16 13.4867 16C12.9507 16 12.6742 15 12.024 15C11.3739 15 11.0247 16 11.0247 16H8.02681ZM14.023 14V10H13.023V14H14.023ZM11.0244 13C11.0244 13.2709 11.2563 14 11.5244 14C11.8005 14 12.0244 13.2754 12.0244 13V11C12.0244 10.7291 11.7925 10 11.5244 10C11.2483 10 11.0244 10.7246 11.0244 11V13ZM9.02579 13C9.02579 13.2709 9.25772 14 9.52579 14C9.80193 14 10.0258 13.2754 10.0258 13V11C10.0258 10.7291 9.79386 10 9.52579 10C9.24965 10 9.02579 10.7246 9.02579 11V13Z" fill="var(--fill-0, white)"/>
<path d="M8.02681 16L7.41872 16.7939L7.68783 17H8.02681V16ZM5.0289 13L4.17125 13.5142L4.17125 13.5142L5.0289 13ZM3.03029 9L4.00047 9.24238L4.00047 9.24238L3.03029 9ZM5.0289 8.41167L4.32154 9.11853L4.32154 9.11853L5.0289 8.41167ZM6.52785 10.5L6.08039 9.6057L6.08039 9.6057L6.52785 10.5ZM6.52785 7.5L7.46772 7.15847L7.46772 7.15847L6.52785 7.5ZM5.52855 3L5.52855 2L5.52855 2L5.52855 3ZM8.52646 8L8.52646 9L8.52646 9L8.52646 8ZM9.06544 7L9.99966 7.35669L9.99966 7.35669L9.06544 7ZM9.06544 3.5L8.19582 3.00627L8.19582 3.00627L9.06544 3.5ZM10.0489 2L10.0489 1L10.0489 1L10.0489 2ZM11.0247 4.5L12.0247 4.5L12.0247 4.5L11.0247 4.5ZM11.5244 8L11.5244 7L11.5244 7L11.5244 8ZM12.024 7L11.024 7L11.024 7L12.024 7ZM12.024 4.5L13.024 4.5L13.024 4.5L12.024 4.5ZM13.4867 3L13.4867 2L13.4867 2L13.4867 3ZM14.5223 8L14.5223 9L14.5223 8ZM15.5216 6L14.7084 5.41806L14.6348 5.52092L14.5891 5.63888L15.5216 6ZM16.5209 5L16.5209 4L16.5209 4L16.5209 5ZM16.5209 9L15.6263 8.55304L15.6263 8.55304L16.5209 9ZM14.0226 15L13.2224 14.4003L13.0226 14.6669V15H14.0226ZM13.4867 16L13.4867 15L13.4867 15L13.4867 16ZM12.024 15L12.024 14L12.024 15ZM11.0247 16V17H11.7348L11.9688 16.3296L11.0247 16ZM14.023 14V15H15.023V14H14.023ZM14.023 10H15.023V9H14.023V10ZM13.023 10V9H12.023V10H13.023ZM13.023 14H12.023V15H13.023V14ZM8.02681 16C8.6349 15.2061 8.63497 15.2062 8.63503 15.2062C8.63504 15.2062 8.6351 15.2063 8.63511 15.2063C8.63515 15.2063 8.63515 15.2063 8.63512 15.2063C8.63506 15.2063 8.63487 15.2061 8.63455 15.2059C8.6339 15.2054 8.63273 15.2045 8.63106 15.2032C8.6277 15.2006 8.62231 15.1964 8.615 15.1907C8.60037 15.1794 8.57807 15.162 8.54897 15.1391C8.49075 15.0932 8.40551 15.0253 8.3003 14.9394C8.08938 14.7673 7.80071 14.5251 7.48977 14.245C6.84047 13.6601 6.19263 12.9963 5.88655 12.4858L5.0289 13L4.17125 13.5142C4.64538 14.305 5.4965 15.1412 6.1511 15.7309C6.49211 16.0381 6.80663 16.302 7.03591 16.489C7.15079 16.5828 7.24491 16.6578 7.31102 16.7099C7.34408 16.7359 7.37019 16.7563 7.38843 16.7705C7.39755 16.7775 7.40471 16.7831 7.40979 16.787C7.41234 16.789 7.41436 16.7905 7.41585 16.7917C7.4166 16.7922 7.41721 16.7927 7.41769 16.7931C7.41793 16.7933 7.41813 16.7934 7.4183 16.7935C7.41839 16.7936 7.41849 16.7937 7.41854 16.7937C7.41863 16.7938 7.41872 16.7939 8.02681 16ZM5.0289 13L5.88655 12.4858C5.67239 12.1286 5.41505 11.7546 5.17447 11.4052C4.92642 11.045 4.69249 10.7059 4.49145 10.3788C4.28852 10.0486 4.1455 9.7722 4.06564 9.54699C3.98239 9.3122 4.00324 9.2313 4.00047 9.24238L3.03029 9L2.06011 8.75762C1.9273 9.28921 2.03544 9.8059 2.18063 10.2154C2.32922 10.6344 2.55582 11.049 2.78752 11.426C3.02112 11.8061 3.28684 12.1905 3.52731 12.5396C3.77525 12.8996 3.9953 13.2208 4.17125 13.5142L5.0289 13ZM3.03029 9L4.00047 9.24238C4.06869 8.96931 4.17607 8.96375 4.13057 8.97785C4.11403 8.98298 4.10904 8.97716 4.12944 8.98345C4.15361 8.9909 4.22288 9.0198 4.32154 9.11853L5.0289 8.41167L5.73625 7.70481C5.14869 7.11684 4.34272 6.81826 3.53851 7.06749C2.75377 7.3107 2.25196 7.98968 2.06011 8.75762L3.03029 9ZM5.0289 8.41167L4.32154 9.11853C4.55486 9.35202 4.71955 9.7303 4.9689 10.2673C5.06377 10.4717 5.21463 10.7964 5.42124 11.0401C5.53142 11.17 5.7257 11.3613 6.02124 11.4628C6.35864 11.5787 6.69673 11.5337 6.97532 11.3943L6.52785 10.5L6.08039 9.6057C6.22894 9.53137 6.44705 9.49433 6.67098 9.57125C6.85305 9.6338 6.94038 9.73917 6.94661 9.74651C6.9578 9.75972 6.9449 9.74703 6.90827 9.67999C6.87387 9.61704 6.83408 9.53531 6.78291 9.42509C6.60787 9.04809 6.28314 8.25209 5.73625 7.70481L5.0289 8.41167ZM6.52785 10.5L6.97532 11.3943C7.41795 11.1728 7.6471 10.7805 7.76193 10.4598C7.8785 10.1341 7.91796 9.77778 7.91796 9.43918C7.91796 8.75694 7.75708 7.95474 7.46772 7.15847L6.52785 7.5L5.58798 7.84153C5.81877 8.47665 5.91796 9.04433 5.91796 9.43918C5.91796 9.63911 5.89241 9.7481 5.87894 9.78571C5.86373 9.8282 5.89783 9.69704 6.08039 9.6057L6.52785 10.5ZM6.52785 7.5L7.46772 7.15847C7.32838 6.77499 7.12192 6.28495 6.92773 5.8127C6.72668 5.32376 6.5299 4.83334 6.38274 4.39497C6.22601 3.92813 6.16473 3.63035 6.16328 3.49136C6.16249 3.41627 6.18246 3.53336 6.07403 3.69402C5.91724 3.92637 5.67188 4 5.52855 4L5.52855 3L5.52855 2C5.11961 2 4.69002 2.16952 4.4162 2.57528C4.19076 2.90935 4.16092 3.27736 4.16339 3.51231C4.16842 3.99342 4.32584 4.55225 4.48673 5.03149C4.65718 5.5392 4.87693 6.08431 5.07801 6.57332C5.28596 7.07901 5.46726 7.50931 5.58798 7.84153L6.52785 7.5ZM5.52855 3L5.52855 4C5.81195 4 5.97385 4.00144 6.10131 4.01651C6.21135 4.02953 6.22654 4.04639 6.21443 4.03893C6.19392 4.0263 6.33699 4.09127 6.57841 4.81603L7.52716 4.5L8.47591 4.18397C8.21767 3.40873 7.89266 2.7237 7.26336 2.33607C6.66736 1.96894 5.96535 2 5.52855 2L5.52855 3ZM7.52716 4.5L6.57841 4.81603C6.80316 5.49076 6.94033 6.27957 7.08761 7.01013C7.15539 7.34631 7.2328 7.70711 7.33091 7.99085C7.37808 8.12727 7.45384 8.3188 7.57929 8.49378C7.69476 8.65486 8.00027 9 8.52646 9L8.52646 8L8.52646 7C8.95513 7 9.17187 7.28264 9.20474 7.32849C9.24757 7.38823 9.24687 7.41179 9.22111 7.33728C9.17334 7.19914 9.119 6.96619 9.04817 6.61487C8.91824 5.97043 8.75081 5.00924 8.47591 4.18397L7.52716 4.5ZM8.52646 8L8.52646 9C8.41084 9 8.27965 8.9585 8.17302 8.89248C8.12947 8.86551 8.19974 8.90948 8.22555 8.924C8.25028 8.9379 8.31357 8.97265 8.39982 9.00196C8.48682 9.03153 8.64689 9.07299 8.84778 9.04841C9.34146 8.988 9.56371 8.6222 9.62379 8.50483C9.68247 8.39017 9.70688 8.28531 9.70957 8.27468C9.73104 8.18983 9.75474 7.99819 9.99966 7.35669L9.06544 7L8.13121 6.64331C7.98803 7.01835 7.9014 7.2857 7.84658 7.47917C7.81898 7.57659 7.80009 7.65298 7.7864 7.7124C7.77976 7.74125 7.77457 7.76515 7.77134 7.78C7.76677 7.80093 7.76803 7.79453 7.77068 7.78408C7.77238 7.77734 7.77744 7.75765 7.78593 7.73159C7.79353 7.70823 7.81132 7.65635 7.84342 7.59363C7.87376 7.53435 7.93952 7.42 8.06204 7.30997C8.20062 7.18551 8.38658 7.08993 8.60486 7.06322C8.80292 7.03898 8.95988 7.07995 9.0434 7.10834C9.12617 7.13647 9.18561 7.16934 9.206 7.1808C9.21908 7.18816 9.22914 7.19424 9.23446 7.1975C9.2398 7.20077 9.24359 7.20318 9.24372 7.20326C9.24751 7.20566 9.2351 7.19775 9.2259 7.19205C9.16734 7.15579 9.06856 7.10053 8.93267 7.05887C8.80122 7.01856 8.66502 7 8.52646 7L8.52646 8ZM9.06544 7L9.99966 7.35669C10.0428 7.24363 10.0567 7.14457 10.0602 7.12071C10.0664 7.07854 10.0699 7.03993 10.0721 7.01142C10.0766 6.95342 10.0789 6.89052 10.0804 6.83157C10.0833 6.71129 10.0834 6.55895 10.0821 6.39302C10.0796 6.0593 10.0708 5.63134 10.0625 5.21457C10.0541 4.79303 10.0462 4.38291 10.0446 4.0708C10.0438 3.9134 10.0447 3.79213 10.0473 3.71123C10.0487 3.66897 10.0501 3.65238 10.05 3.65304C10.0499 3.65436 10.0494 3.65905 10.0485 3.66639C10.0476 3.67328 10.0457 3.68642 10.0425 3.70388C10.0395 3.71976 10.0333 3.75031 10.022 3.78899C10.013 3.81977 9.98829 3.89996 9.93505 3.99373L9.06544 3.5L8.19582 3.00627C8.10367 3.16857 8.07909 3.32258 8.07639 3.33707C8.0669 3.38791 8.0619 3.43319 8.05907 3.46277C8.05321 3.52416 8.0502 3.58941 8.04834 3.64713C8.04453 3.76617 8.04382 3.91736 8.04465 4.08098C8.04633 4.4109 8.05463 4.83703 8.06293 5.25434C8.07132 5.67642 8.07973 6.0899 8.08221 6.40857C8.08345 6.56884 8.0831 6.69544 8.08097 6.78288C8.07988 6.82779 8.07856 6.85094 8.07801 6.8582C8.07769 6.86231 8.07837 6.85114 8.08135 6.83082C8.08164 6.82881 8.09199 6.74603 8.13121 6.64331L9.06544 7ZM9.06544 3.5L9.93505 3.99373C10.0064 3.86815 10.0522 3.7416 10.0799 3.65947C10.1098 3.57069 10.1369 3.47651 10.1586 3.40061C10.2073 3.23032 10.2429 3.10528 10.287 2.99387C10.3332 2.87741 10.3571 2.86141 10.3351 2.88408C10.2871 2.9336 10.178 3 10.0489 3L10.0489 2L10.0489 1C9.00116 1 8.57271 1.89108 8.42767 2.25715C8.33967 2.47924 8.2764 2.70844 8.23575 2.85053C8.17797 3.05252 8.17031 3.05121 8.19582 3.00627L9.06544 3.5ZM10.0489 2L10.0489 3C9.72633 3 9.68882 2.79274 9.78478 2.97198C9.87774 3.14562 10.0247 3.58631 10.0247 4.5L11.0247 4.5L12.0247 4.5C12.0247 3.41369 11.8566 2.60438 11.548 2.02802C11.2424 1.45726 10.717 1 10.0489 1L10.0489 2ZM11.0247 4.5H10.0247C10.0247 5.5077 10.0536 6.43354 10.1386 7.1224C10.1798 7.45685 10.2416 7.80174 10.3491 8.08705C10.4018 8.22683 10.4901 8.42057 10.6447 8.59497C10.812 8.78365 11.1082 9 11.5244 9L11.5244 8L11.5244 7C11.8449 7 12.0538 7.16948 12.1414 7.26831C12.2163 7.35286 12.2327 7.4138 12.2206 7.3817C12.1986 7.32327 12.1594 7.16815 12.1235 6.8776C12.0543 6.31646 12.0247 5.4923 12.0247 4.5H11.0247ZM11.5244 8V9C11.5804 9 11.8046 9.00717 11.9873 8.97487C12.1051 8.95405 12.2749 8.90867 12.4479 8.79593C12.6317 8.67622 12.7622 8.51789 12.8484 8.35244C12.9896 8.08148 13.007 7.79055 13.0147 7.65011C13.0244 7.47352 13.024 7.24779 13.024 7L12.024 7L11.024 7C11.024 7.27271 11.0237 7.43223 11.0177 7.54074C11.0149 7.5922 11.012 7.60483 11.0137 7.59543C11.015 7.58855 11.0271 7.51969 11.0747 7.42831C11.1297 7.3228 11.2212 7.20815 11.3561 7.12023C11.4804 7.03928 11.5916 7.01382 11.6392 7.00541C11.682 6.99783 11.7032 6.99928 11.6702 6.99991C11.6349 7.00058 11.6042 7 11.5244 7V8ZM12.024 7L13.024 7C13.024 6.56239 13.024 5 13.024 4.5H12.024H11.024C11.024 5 11.024 6.56239 11.024 7L12.024 7ZM12.024 4.5L13.024 4.5C13.024 4.57775 13.0083 4.61856 13.011 4.61073C13.0122 4.60694 13.0208 4.5841 13.0436 4.54327C13.0901 4.46022 13.1676 4.35304 13.2673 4.24679C13.3676 4.13991 13.4656 4.06039 13.5396 4.01463C13.6312 3.958 13.6073 4 13.4867 4L13.4867 3L13.4867 2C13.0764 2 12.7248 2.167 12.4879 2.3135C12.2334 2.47086 12.0019 2.67259 11.8089 2.87821C11.6154 3.08446 11.4358 3.32103 11.2986 3.56611C11.1758 3.78533 11.024 4.12131 11.024 4.5L12.024 4.5ZM13.4867 3V4C13.1154 4 12.9482 3.74408 12.9431 3.73572C12.9404 3.73125 12.9768 3.79889 13.0203 3.99645C13.1041 4.37641 13.151 4.92646 13.1857 5.5551C13.218 6.14027 13.2402 6.8185 13.2858 7.31095C13.3083 7.55413 13.3421 7.82628 13.4069 8.05623C13.4374 8.16455 13.4954 8.34154 13.6129 8.51184C13.7325 8.6851 14.0265 9 14.5223 9L14.5223 8L14.5223 7C14.9531 7 15.1899 7.27584 15.259 7.37586C15.3259 7.47291 15.34 7.54248 15.332 7.51409C15.3198 7.47059 15.2982 7.35212 15.2773 7.12655C15.2361 6.6815 15.2193 6.10973 15.1826 5.4449C15.1483 4.82354 15.0963 4.12359 14.9735 3.56605C14.9137 3.29486 14.8199 2.97187 14.6504 2.69397C14.4784 2.41217 14.1077 2 13.4867 2V3ZM14.5223 8L14.5223 9C14.8852 9 15.127 8.81395 15.2013 8.75352C15.3018 8.67186 15.3745 8.58523 15.418 8.52941C15.5084 8.41368 15.5866 8.28258 15.6473 8.17334C15.7738 7.94577 15.9062 7.6629 16.0204 7.40538C16.137 7.14233 16.2452 6.88181 16.3236 6.68867C16.363 6.59166 16.3953 6.51065 16.4179 6.45354C16.4292 6.42497 16.438 6.40234 16.4442 6.38662C16.4473 6.37875 16.4496 6.37262 16.4513 6.36833C16.4521 6.36618 16.4528 6.3645 16.4533 6.3633C16.4535 6.36269 16.4537 6.36221 16.4538 6.36185C16.4539 6.36166 16.454 6.36151 16.454 6.36139C16.454 6.36133 16.4541 6.36127 16.4541 6.36124C16.4541 6.36118 16.4541 6.36112 15.5216 6C14.5891 5.63888 14.5891 5.63884 14.5891 5.63881C14.5891 5.63881 14.5891 5.63879 14.5891 5.63879C14.5891 5.63879 14.5891 5.63882 14.5891 5.63888C14.589 5.639 14.5889 5.63925 14.5888 5.6396C14.5885 5.64032 14.5881 5.64151 14.5874 5.64315C14.5861 5.64643 14.5842 5.65152 14.5815 5.65831C14.5762 5.67188 14.5682 5.69221 14.5579 5.71833C14.5372 5.7706 14.5073 5.84584 14.4705 5.93633C14.3967 6.11819 14.2972 6.35767 14.1921 6.59462C14.0846 6.8371 13.9812 7.05423 13.8992 7.20166C13.8557 7.27992 13.8366 7.30507 13.8415 7.29872C13.8424 7.29759 13.8754 7.25392 13.9398 7.20156C13.9781 7.17043 14.1875 7 14.5223 7L14.5223 8ZM15.5216 6C16.3348 6.58194 16.3348 6.58201 16.3347 6.58208C16.3347 6.5821 16.3347 6.58216 16.3346 6.58219C16.3346 6.58226 16.3346 6.58232 16.3345 6.58236C16.3345 6.58244 16.3345 6.58246 16.3345 6.58242C16.3345 6.58235 16.3347 6.58205 16.3351 6.58152C16.3359 6.58047 16.3373 6.57853 16.3393 6.57576C16.3433 6.57022 16.3498 6.56138 16.3583 6.54972C16.3755 6.52634 16.4011 6.49195 16.4329 6.45028C16.4973 6.36581 16.5832 6.25679 16.674 6.15092C16.7692 6.03989 16.8496 5.95616 16.9041 5.90834C16.9323 5.88369 16.9304 5.8892 16.9016 5.90602C16.8944 5.91024 16.7506 6 16.5209 6L16.5209 5L16.5209 4C16.2203 4 15.992 4.12101 15.8914 4.17992C15.7692 4.25142 15.6649 4.33506 15.586 4.40416C15.4266 4.54384 15.2749 4.71011 15.1557 4.84908C15.0321 4.99321 14.9214 5.13419 14.8428 5.23722C14.803 5.2893 14.7705 5.33304 14.7475 5.36435C14.7359 5.38003 14.7267 5.39267 14.7201 5.40178C14.7168 5.40633 14.7142 5.41001 14.7122 5.41274C14.7112 5.4141 14.7104 5.41524 14.7097 5.41613C14.7094 5.41657 14.7092 5.41695 14.7089 5.41728C14.7088 5.41744 14.7087 5.41758 14.7086 5.41771C14.7086 5.41778 14.7085 5.41787 14.7085 5.4179C14.7084 5.41798 14.7084 5.41806 15.5216 6ZM16.5209 5V6C16.3624 6 16.2076 5.92776 16.1085 5.82505C16.0352 5.74908 16.0343 5.70067 16.0521 5.76225C16.0891 5.89023 16.1138 6.15745 16.0855 6.5538C16.0292 7.34367 15.8001 8.20531 15.6263 8.55304L16.5209 9L17.4155 9.44696C17.7414 8.79469 18.0119 7.65633 18.0805 6.6962C18.1146 6.21755 18.1081 5.67227 17.9734 5.2065C17.9053 4.97121 17.7834 4.6806 17.5481 4.43666C17.287 4.16599 16.9292 4 16.5209 4V5ZM16.5209 9L15.6263 8.55304C15.4337 8.93853 15.3382 9.36656 15.277 9.73779C15.2162 10.1068 15.1746 10.5251 15.1337 10.8649C15.0397 11.6436 14.9279 12.1248 14.7214 12.4003L15.5216 13L16.3218 13.5997C16.8955 12.8342 17.0335 11.8154 17.1193 11.1044C17.1681 10.6993 17.1989 10.3752 17.2504 10.0632C17.3015 9.75331 17.3582 9.56147 17.4155 9.44696L16.5209 9ZM15.5216 13L14.7214 12.4003C14.3313 12.9208 13.9565 13.4208 13.6793 13.7906C13.5407 13.9756 13.4265 14.128 13.3469 14.2342C13.3071 14.2872 13.276 14.3288 13.2548 14.357C13.2443 14.3712 13.2362 14.382 13.2307 14.3892C13.228 14.3929 13.2259 14.3956 13.2245 14.3975C13.2238 14.3984 13.2233 14.3991 13.223 14.3996C13.2228 14.3998 13.2227 14.4 13.2226 14.4001C13.2225 14.4001 13.2225 14.4002 13.2225 14.4002C13.2225 14.4002 13.2225 14.4002 13.2224 14.4003C13.2224 14.4003 13.2224 14.4003 14.0226 15C14.8228 15.5997 14.8228 15.5997 14.8228 15.5997C14.8229 15.5997 14.8229 15.5997 14.8229 15.5997C14.8229 15.5997 14.8229 15.5996 14.823 15.5996C14.8231 15.5994 14.8232 15.5993 14.8234 15.599C14.8237 15.5986 14.8242 15.5979 14.8249 15.5969C14.8263 15.5951 14.8284 15.5923 14.8311 15.5887C14.8366 15.5814 14.8447 15.5706 14.8552 15.5565C14.8764 15.5282 14.9075 15.4867 14.9473 15.4336C15.0269 15.3275 15.1411 15.175 15.2797 14.9901C15.5569 14.6202 15.9317 14.1202 16.3218 13.5997L15.5216 13ZM14.0226 15C13.0226 15 13.0226 14.9997 13.0226 14.9995C13.0226 14.9994 13.0226 14.9992 13.0226 14.999C13.0226 14.9987 13.0226 14.9984 13.0226 14.9981C13.0226 14.9975 13.0226 14.997 13.0226 14.9965C13.0226 14.9955 13.0227 14.9948 13.0227 14.9942C13.0227 14.9931 13.0227 14.9929 13.0227 14.9934C13.0226 14.9944 13.0226 14.9983 13.0223 15.0047C13.0218 15.0178 13.0207 15.0397 13.0182 15.0673C13.0129 15.127 13.0033 15.1906 12.9897 15.2411C12.9727 15.3046 12.9682 15.278 13.0172 15.2172C13.047 15.1801 13.1033 15.1225 13.1932 15.0746C13.2879 15.0241 13.391 15 13.4867 15V16V17C13.9842 17 14.3522 16.7485 14.5759 16.4703C14.7755 16.222 14.8716 15.9454 14.9216 15.7589C14.975 15.5594 14.9989 15.373 15.0103 15.2452C15.0162 15.179 15.0193 15.1229 15.0209 15.0812C15.0217 15.0603 15.0221 15.0427 15.0223 15.0291C15.0225 15.0223 15.0225 15.0164 15.0226 15.0115C15.0226 15.0091 15.0226 15.0069 15.0226 15.005C15.0226 15.004 15.0226 15.0031 15.0226 15.0023C15.0226 15.0019 15.0226 15.0015 15.0226 15.0011C15.0226 15.0009 15.0226 15.0006 15.0226 15.0005C15.0226 15.0003 15.0226 15 14.0226 15ZM13.4867 16L13.4867 15C13.686 15 13.7909 15.0985 13.7672 15.0785C13.7305 15.0477 13.6865 14.9976 13.5528 14.8438C13.4489 14.7244 13.2724 14.521 13.0493 14.3546C12.8089 14.1753 12.4646 14 12.024 14L12.024 15L12.024 16C11.9086 16 11.8427 15.9497 11.8537 15.9579C11.882 15.979 11.93 16.0256 12.0435 16.1562C12.1272 16.2524 12.2935 16.4523 12.4797 16.609C12.6788 16.7765 13.0193 17 13.4867 17L13.4867 16ZM12.024 15L12.024 14C11.1642 14 10.6533 14.6415 10.4514 14.941C10.3277 15.1244 10.2381 15.3009 10.1801 15.4277C10.1504 15.4925 10.1275 15.5478 10.1111 15.5892C10.1029 15.61 10.0963 15.6274 10.0912 15.6411C10.0887 15.6479 10.0865 15.6538 10.0847 15.6587C10.0839 15.6612 10.0831 15.6634 10.0824 15.6653C10.082 15.6663 10.0817 15.6672 10.0814 15.6681C10.0813 15.6685 10.0811 15.6689 10.081 15.6693C10.0809 15.6695 10.0808 15.6697 10.0808 15.6698C10.0807 15.6701 10.0806 15.6704 11.0247 16C11.9688 16.3296 11.9687 16.3299 11.9687 16.3301C11.9686 16.3302 11.9685 16.3305 11.9685 16.3306C11.9684 16.331 11.9683 16.3313 11.9681 16.3316C11.9679 16.3322 11.9677 16.3327 11.9676 16.3332C11.9672 16.3342 11.9669 16.335 11.9667 16.3355C11.9663 16.3366 11.9662 16.3369 11.9664 16.3364C11.9668 16.3354 11.9683 16.3314 11.9709 16.3249C11.9762 16.3116 11.9855 16.2887 11.9988 16.2598C12.0266 16.1991 12.0648 16.1256 12.1097 16.059C12.1316 16.0266 12.1516 16.0009 12.1688 15.9816C12.1771 15.9723 12.1839 15.9654 12.1889 15.9607C12.1939 15.956 12.1964 15.9541 12.1962 15.9543C12.1951 15.9551 12.1326 16 12.024 16L12.024 15ZM11.0247 16V15H8.02681V16V17H11.0247V16ZM14.023 14H15.023V10H14.023H13.023V14H14.023ZM14.023 10V9H13.023V10V11H14.023V10ZM13.023 10H12.023V14H13.023H14.023V10H13.023ZM13.023 14V15H14.023V14V13H13.023V14ZM11.0244 13H10.0244C10.0244 13.317 10.1318 13.7051 10.253 13.9914C10.3176 14.1441 10.4157 14.3399 10.5595 14.5154C10.6749 14.6564 10.9961 15 11.5244 15V14V13C11.7257 13 11.8773 13.0698 11.9648 13.1257C12.048 13.179 12.0931 13.2315 12.1069 13.2483C12.1317 13.2786 12.1216 13.2752 12.0948 13.2118C12.0718 13.1576 12.0507 13.0927 12.0364 13.0338C12.0295 13.0054 12.0256 12.9845 12.0239 12.9727C12.0216 12.9576 12.0244 12.9687 12.0244 13H11.0244ZM11.5244 14V15C12.0443 15 12.3653 14.6699 12.4892 14.5203C12.6364 14.3426 12.7354 14.1443 12.8 13.9903C12.9224 13.6987 13.0244 13.3132 13.0244 13H12.0244H11.0244C11.0244 12.9593 11.0287 12.9716 11.0121 13.0416C10.9982 13.1004 10.9778 13.164 10.9559 13.2163C10.93 13.2778 10.9213 13.2779 10.9488 13.2447C10.9642 13.2261 11.0106 13.1732 11.095 13.1204C11.1842 13.0647 11.3319 13 11.5244 13V14ZM12.0244 13H13.0244V11H12.0244H11.0244V13H12.0244ZM12.0244 11H13.0244C13.0244 10.683 12.917 10.2949 12.7958 10.0086C12.7312 9.85585 12.633 9.66013 12.4893 9.48459C12.3739 9.34365 12.0527 9 11.5244 9V10V11C11.3231 11 11.1715 10.9302 11.084 10.8743C11.0008 10.821 10.9557 10.7685 10.9419 10.7517C10.9171 10.7214 10.9272 10.7248 10.954 10.7882C10.977 10.8424 10.9981 10.9073 11.0124 10.9662C11.0193 10.9946 11.0232 11.0155 11.0249 11.0273C11.0272 11.0424 11.0244 11.0313 11.0244 11H12.0244ZM11.5244 10V9C11.0045 9 10.6834 9.33014 10.5596 9.4797C10.4124 9.65742 10.3134 9.85568 10.2488 10.0097C10.1264 10.3013 10.0244 10.6868 10.0244 11H11.0244H12.0244C12.0244 11.0407 12.0201 11.0284 12.0367 10.9584C12.0506 10.8996 12.071 10.836 12.0929 10.7837C12.1188 10.7222 12.1275 10.7221 12.1 10.7553C12.0846 10.7739 12.0382 10.8268 11.9538 10.8796C11.8646 10.9353 11.7169 11 11.5244 11V10ZM11.0244 11H10.0244V13H11.0244H12.0244V11H11.0244ZM9.02579 13H8.02579C8.02579 13.317 8.13318 13.7051 8.25437 13.9914C8.31903 14.1441 8.41714 14.3399 8.56088 14.5154C8.6763 14.6564 8.99751 15 9.52579 15V14V13C9.72709 13 9.8787 13.0698 9.96617 13.1257C10.0494 13.179 10.0945 13.2315 10.1083 13.2483C10.1331 13.2786 10.123 13.2752 10.0962 13.2118C10.0732 13.1576 10.0521 13.0927 10.0378 13.0338C10.0309 13.0054 10.027 12.9845 10.0253 12.9727C10.023 12.9576 10.0258 12.9687 10.0258 13H9.02579ZM9.52579 14V15C10.0457 15 10.3667 14.6699 10.4906 14.5203C10.6378 14.3426 10.7368 14.1443 10.8014 13.9903C10.9238 13.6987 11.0258 13.3132 11.0258 13H10.0258H9.02579C9.02579 12.9593 9.03012 12.9716 9.0135 13.0416C8.99955 13.1004 8.9792 13.164 8.95727 13.2163C8.93143 13.2778 8.92269 13.2779 8.95023 13.2447C8.96559 13.2261 9.01202 13.1732 9.09641 13.1204C9.18561 13.0647 9.3333 13 9.52579 13V14ZM10.0258 13H11.0258V11H10.0258H9.02579V13H10.0258ZM10.0258 11H11.0258C11.0258 10.683 10.9184 10.2949 10.7972 10.0086C10.7325 9.85585 10.6344 9.66013 10.4907 9.48459C10.3753 9.34365 10.0541 9 9.52579 9V10V11C9.32449 11 9.17288 10.9302 9.08541 10.8743C9.00214 10.821 8.95705 10.7685 8.94331 10.7517C8.91845 10.7214 8.92859 10.7248 8.95542 10.7882C8.97837 10.8424 8.99944 10.9073 9.01378 10.9662C9.02072 10.9946 9.02456 11.0155 9.02632 11.0273C9.02858 11.0424 9.02579 11.0313 9.02579 11H10.0258ZM9.52579 10V9C9.00591 9 8.68484 9.33014 8.56098 9.4797C8.41381 9.65742 8.31481 9.85568 8.25016 10.0097C8.12778 10.3013 8.02579 10.6868 8.02579 11H9.02579H10.0258C10.0258 11.0407 10.0215 11.0284 10.0381 10.9584C10.052 10.8996 10.0724 10.836 10.0943 10.7837C10.1201 10.7222 10.1289 10.7221 10.1013 10.7553C10.086 10.7739 10.0396 10.8268 9.95516 10.8796C9.86597 10.9353 9.71827 11 9.52579 11V10ZM9.02579 11H8.02579V13H9.02579H10.0258V11H9.02579Z" fill="var(--stroke-0, black)" mask="url(#path-1-outside-1_317_99)"/>
</g>
<defs>
<filter id="filter0_d_317_99" x="-5.13792e-05" y="0" width="20.098" height="20" filterUnits="userSpaceOnUse" color-interpolation-filters="sRGB">
<feFlood flood-opacity="0" result="BackgroundImageFix"/>
<feColorMatrix in="SourceAlpha" type="matrix" values="0 0 0 0 0 0 0 0 0 0 0 0 0 0 0 0 0 0 127 0" result="hardAlpha"/>
<feOffset dy="1"/>
<feGaussianBlur stdDeviation="1"/>
<feColorMatrix type="matrix" values="0 0 0 0 0 0 0 0 0 0 0 0 0 0 0 0 0 0 1 0"/>
<feBlend mode="normal" in2="BackgroundImageFix" result="effect1_dropShadow_317_99"/>
<feBlend mode="normal" in="SourceGraphic" in2="effect1_dropShadow_317_99" result="shape"/>
</filter>
</defs>
</svg>
