<svg preserveAspectRatio="none" width="100%" height="100%" overflow="visible" style="display: block;" viewBox="0 0 24 18" fill="none" xmlns="http://www.w3.org/2000/svg">
<g id="iconmonstr-refresh-3">
<path id="Shape" fill-rule="evenodd" clip-rule="evenodd" d="M8.99374 9L4.53385 13.969L0 9H2.99791C2.99791 4.03 7.02511 0 11.9917 0C14.385 0 16.5535 0.942 18.1664 2.468L16.1638 4.699C15.0835 3.649 13.6125 3 11.9917 3C8.68496 3 5.99583 5.691 5.99583 9H8.99374ZM19.4495 4.031L14.9896 9H17.9875C17.9875 12.309 15.2984 15 11.9917 15C10.3698 15 8.89981 14.35 7.81956 13.301L5.81695 15.532C7.42883 17.058 9.59832 18 11.9917 18C16.9582 18 20.9854 13.97 20.9854 9H23.9833L19.4495 4.031V4.031Z" fill="var(--fill-0, black)"/>
</g>
</svg>
