<svg preserveAspectRatio="none" width="100%" height="100%" overflow="visible" style="display: block;" viewBox="0 0 16 16" fill="none" xmlns="http://www.w3.org/2000/svg">
<path id="Vector" d="M13.4972 2.06102C12.8465 1.40584 12.0722 0.886303 11.2193 0.532521C10.3663 0.178738 9.45162 -0.00225646 8.5282 2.46408e-05V2.46408e-05C7.60527 -0.00242709 6.69101 0.178103 5.83828 0.531176C4.98555 0.884249 4.21126 1.40286 3.5602 2.05702L0.293202 5.32003C0.105562 5.50753 9.38263e-05 5.7619 6.25718e-08 6.02717C-9.37012e-05 6.29244 0.105195 6.54688 0.292703 6.73453C0.480211 6.92217 0.734579 7.02763 0.999849 7.02773C1.26512 7.02782 1.51956 6.92253 1.7072 6.73503L4.9722 3.47303C5.43775 3.00467 5.99159 2.63333 6.60164 2.38048C7.21169 2.12764 7.86583 1.99833 8.5262 2.00002V2.00002C9.52047 2.00035 10.4923 2.29546 11.3189 2.84802C12.1455 3.40059 12.7897 4.18582 13.17 5.10445C13.5504 6.02307 13.6499 7.03385 13.4559 8.009C13.2619 8.98416 12.7832 9.87991 12.0802 10.583L8.8182 13.845C8.63056 14.0327 8.52515 14.2872 8.52515 14.5525C8.52515 14.8179 8.63056 15.0724 8.8182 15.26C9.00584 15.4477 9.26034 15.5531 9.5257 15.5531C9.79107 15.5531 10.0456 15.4477 10.2332 15.26L13.4952 12C14.8112 10.6811 15.5505 8.89413 15.5509 7.03094C15.5513 5.16775 14.8127 3.38046 13.4972 2.06102V2.06102Z" fill="var(--fill-0, #3A4F39)"/>
</svg>
