<svg preserveAspectRatio="none" width="100%" height="100%" overflow="visible" style="display: block;" viewBox="0 0 24 24" fill="none" xmlns="http://www.w3.org/2000/svg">
<path id="Vector" d="M13.5015 6.50126C13.5015 6.89909 13.3435 7.28062 13.0622 7.56192C12.7809 7.84323 12.3993 8.00126 12.0015 8.00126C11.6037 8.00126 11.2222 7.84323 10.9409 7.56192C10.6596 7.28062 10.5015 6.89909 10.5015 6.50126C10.5015 6.10344 10.6596 5.72191 10.9409 5.4406C11.2222 5.1593 11.6037 5.00126 12.0015 5.00126C12.3993 5.00126 12.7809 5.1593 13.0622 5.4406C13.3435 5.72191 13.5015 6.10344 13.5015 6.50126V6.50126ZM24.0015 19.0013V12.3413C24.0388 9.25871 22.9086 6.27616 20.8378 3.99243C18.7671 1.70871 15.909 0.292901 12.8375 0.0292633C11.1232 -0.090679 9.40305 0.159003 7.79355 0.761416C6.18406 1.36383 4.72272 2.30492 3.50843 3.52101C2.29414 4.73711 1.35522 6.19983 0.755193 7.81022C0.155166 9.42061 -0.0919656 11.1411 0.0305181 12.8553C0.472518 19.2093 6.08352 24.0013 13.0845 24.0013H19.0015C20.3271 23.9997 21.598 23.4724 22.5353 22.535C23.4726 21.5977 23.9999 20.3269 24.0015 19.0013V19.0013ZM12.7015 2.02526C15.268 2.2523 17.6534 3.44217 19.3786 5.35582C21.1038 7.26946 22.0408 9.76508 22.0015 12.3413V19.0013C22.0015 19.7969 21.6855 20.56 21.1228 21.1226C20.5602 21.6852 19.7972 22.0013 19.0015 22.0013H13.0845C7.05052 22.0013 2.40152 18.1013 2.02652 12.7173C1.92807 11.3458 2.11349 9.96886 2.5712 8.67233C3.02891 7.3758 3.74907 6.18759 4.68669 5.18193C5.62431 4.17628 6.75924 3.37478 8.02059 2.82751C9.28193 2.28025 10.6426 1.99897 12.0175 2.00126C12.2445 2.00126 12.4735 2.01026 12.7015 2.02526ZM14.0015 18.0013V12.0013C14.0015 11.4708 13.7908 10.9621 13.4157 10.5871C13.0407 10.212 12.532 10.0013 12.0015 10.0013H11.0015C10.7363 10.0013 10.4819 10.1066 10.2944 10.2942C10.1069 10.4817 10.0015 10.736 10.0015 11.0013C10.0015 11.2665 10.1069 11.5208 10.2944 11.7084C10.4819 11.8959 10.7363 12.0013 11.0015 12.0013H12.0015V18.0013C12.0015 18.2665 12.1069 18.5208 12.2944 18.7084C12.4819 18.8959 12.7363 19.0013 13.0015 19.0013C13.2667 19.0013 13.5211 18.8959 13.7086 18.7084C13.8962 18.5208 14.0015 18.2665 14.0015 18.0013Z" fill="var(--fill-0, #3A4F39)"/>
</svg>
