<svg preserveAspectRatio="none" width="100%" height="100%" overflow="visible" style="display: block;" viewBox="0 0 8 8" fill="none" xmlns="http://www.w3.org/2000/svg">
<path id="Vector" d="M6.99999 2.99999H4.99999V0.999998C4.99999 0.734782 4.89463 0.480429 4.7071 0.292893C4.51956 0.105357 4.26521 0 3.99999 0C3.73478 0 3.48042 0.105357 3.29289 0.292893C3.10535 0.480429 2.99999 0.734782 2.99999 0.999998V2.99999H0.999998C0.734782 2.99999 0.480428 3.10535 0.292892 3.29289C0.105356 3.48042 0 3.73478 0 3.99999C0 4.26521 0.105356 4.51956 0.292892 4.7071C0.480428 4.89463 0.734782 4.99999 0.999998 4.99999H2.99999V6.99999C2.99999 7.2652 3.10535 7.51956 3.29289 7.70709C3.48042 7.89463 3.73478 7.99998 3.99999 7.99998C4.26521 7.99998 4.51956 7.89463 4.7071 7.70709C4.89463 7.51956 4.99999 7.2652 4.99999 6.99999V4.99999H6.99999C7.2652 4.99999 7.51956 4.89463 7.70709 4.7071C7.89463 4.51956 7.99998 4.26521 7.99998 3.99999C7.99998 3.73478 7.89463 3.48042 7.70709 3.29289C7.51956 3.10535 7.2652 2.99999 6.99999 2.99999Z" fill="var(--fill-0, #3A4F39)"/>
</svg>
