<svg preserveAspectRatio="none" width="100%" height="100%" overflow="visible" style="display: block;" viewBox="0 0 14 8" fill="none" xmlns="http://www.w3.org/2000/svg">
<path id="Vector" d="M13.0041 7.14336C12.8725 7.14412 12.742 7.11889 12.6202 7.06913C12.4983 7.01937 12.3875 6.94604 12.2941 6.85336L7.71409 2.26337C7.62113 2.16964 7.51053 2.09525 7.38867 2.04448C7.26681 1.99371 7.1361 1.96757 7.00409 1.96757C6.87208 1.96757 6.74137 1.99371 6.61951 2.04448C6.49766 2.09525 6.38705 2.16964 6.29409 2.26337L1.71409 6.85336C1.52579 7.04166 1.27039 7.14745 1.00409 7.14745C0.73779 7.14745 0.482395 7.04166 0.294092 6.85336C0.105788 6.66506 0 6.40966 0 6.14336C0 6.0115 0.0259719 5.88093 0.0764322 5.75911C0.126893 5.63729 0.200853 5.5266 0.294092 5.43336L4.88409 0.853372C5.45403 0.305806 6.21374 0 7.00409 0C7.79445 0 8.55415 0.305806 9.12409 0.853372L13.7141 5.43336C13.8078 5.52633 13.8822 5.63693 13.933 5.75879C13.9838 5.88064 14.0099 6.01135 14.0099 6.14336C14.0099 6.27537 13.9838 6.40608 13.933 6.52794C13.8822 6.6498 13.8078 6.7604 13.7141 6.85336C13.6207 6.94604 13.5098 7.01937 13.388 7.06913C13.2662 7.11889 13.1357 7.14412 13.0041 7.14336Z" fill="var(--fill-0, #3A4F39)"/>
</svg>
