<svg preserveAspectRatio="none" width="100%" height="100%" overflow="visible" style="display: block;" viewBox="0 0 24 24" fill="none" xmlns="http://www.w3.org/2000/svg">
<path id="Vector" d="M22.988 11C22.7228 11 22.4684 11.1054 22.2809 11.2929C22.0934 11.4804 21.988 11.7348 21.988 12C21.9961 14.3253 21.1964 16.5812 19.7255 18.3822C18.2547 20.1831 16.2039 21.4173 13.9239 21.8738C11.6439 22.3303 9.27605 21.9807 7.22519 20.8849C5.17433 19.789 3.56775 18.0148 2.68004 15.8657C1.79233 13.7165 1.67861 11.3257 2.35832 9.10201C3.03803 6.87828 4.46897 4.95966 6.40655 3.67407C8.34414 2.38849 10.6681 1.81575 12.9811 2.05377C15.2942 2.29179 17.4528 3.32578 19.088 4.979C19.0551 4.98797 19.0217 4.99498 18.988 5H15.988C15.7228 5 15.4684 5.10536 15.2809 5.29289C15.0934 5.48043 14.988 5.73478 14.988 6C14.988 6.26522 15.0934 6.51957 15.2809 6.70711C15.4684 6.89464 15.7228 7 15.988 7H18.988C19.7837 7 20.5467 6.68393 21.1093 6.12132C21.6719 5.55871 21.988 4.79565 21.988 4V1C21.988 0.734784 21.8826 0.48043 21.6951 0.292893C21.5076 0.105357 21.2532 0 20.988 0C20.7228 0 20.4684 0.105357 20.2809 0.292893C20.0934 0.48043 19.988 0.734784 19.988 1V3.065C17.9406 1.23453 15.3269 0.162166 12.5839 0.0271026C9.84079 -0.107961 7.13445 0.702457 4.91708 2.32293C2.69971 3.94341 1.10564 6.27578 0.40123 8.9303C-0.30318 11.5848 -0.0752517 14.4007 1.04693 16.9074C2.16911 19.414 4.11756 21.4596 6.56669 22.7024C9.01582 23.9451 11.8173 24.3097 14.5029 23.7353C17.1885 23.1608 19.5957 21.682 21.3221 19.5461C23.0484 17.4101 23.9895 14.7464 23.988 12C23.988 11.7348 23.8826 11.4804 23.6951 11.2929C23.5076 11.1054 23.2532 11 22.988 11Z" fill="var(--fill-0, #3A4F39)"/>
</svg>
