<svg preserveAspectRatio="none" width="100%" height="100%" overflow="visible" style="display: block;" viewBox="0 0 24 8" fill="none" xmlns="http://www.w3.org/2000/svg">
<path id="Vector" d="M1 4.75026H3.736C3.95064 5.53999 4.41917 6.23715 5.06933 6.73419C5.71948 7.23123 6.51512 7.50052 7.3335 7.50052C8.15188 7.50052 8.94752 7.23123 9.59767 6.73419C10.2478 6.23715 10.7164 5.53999 10.931 4.75026H23C23.2652 4.75026 23.5196 4.6449 23.7071 4.45737C23.8946 4.26983 24 4.01548 24 3.75026C24 3.48504 23.8946 3.23069 23.7071 3.04315C23.5196 2.85562 23.2652 2.75026 23 2.75026H10.931C10.7164 1.96053 10.2478 1.26336 9.59767 0.766328C8.94752 0.269291 8.15188 0 7.3335 0C6.51512 0 5.71948 0.269291 5.06933 0.766328C4.41917 1.26336 3.95064 1.96053 3.736 2.75026H1C0.734784 2.75026 0.48043 2.85562 0.292893 3.04315C0.105357 3.23069 0 3.48504 0 3.75026C0 4.01548 0.105357 4.26983 0.292893 4.45737C0.48043 4.6449 0.734784 4.75026 1 4.75026V4.75026ZM7.333 2.00026C7.67912 2.00026 8.01746 2.10289 8.30525 2.29519C8.59303 2.48748 8.81734 2.76079 8.94979 3.08056C9.08224 3.40033 9.1169 3.7522 9.04937 4.09167C8.98185 4.43113 8.81518 4.74295 8.57044 4.9877C8.32569 5.23244 8.01387 5.39911 7.67441 5.46663C7.33494 5.53416 6.98307 5.4995 6.6633 5.36705C6.34353 5.23459 6.07022 5.01029 5.87793 4.72251C5.68564 4.43472 5.583 4.09638 5.583 3.75026C5.58353 3.28629 5.76807 2.84148 6.09615 2.51341C6.42422 2.18533 6.86903 2.00079 7.333 2.00026V2.00026Z" fill="var(--fill-0, #3A4F39)"/>
</svg>
