<svg preserveAspectRatio="none" width="100%" height="100%" overflow="visible" style="display: block;" viewBox="0 0 24 8" fill="none" xmlns="http://www.w3.org/2000/svg">
<path id="Vector" d="M23 2.75123H20.264C20.0497 1.96132 19.5814 1.2639 18.9313 0.76666C18.2812 0.269418 17.4855 0 16.667 0C15.8485 0 15.0528 0.269418 14.4027 0.76666C13.7526 1.2639 13.2843 1.96132 13.07 2.75123H1C0.734784 2.75123 0.48043 2.85659 0.292893 3.04412C0.105357 3.23166 0 3.48601 0 3.75123C0 4.01644 0.105357 4.2708 0.292893 4.45833C0.48043 4.64587 0.734784 4.75122 1 4.75122H13.07C13.2843 5.54114 13.7526 6.23855 14.4027 6.73579C15.0528 7.23304 15.8485 7.50245 16.667 7.50245C17.4855 7.50245 18.2812 7.23304 18.9313 6.73579C19.5814 6.23855 20.0497 5.54114 20.264 4.75122H23C23.2652 4.75122 23.5196 4.64587 23.7071 4.45833C23.8946 4.2708 24 4.01644 24 3.75123C24 3.48601 23.8946 3.23166 23.7071 3.04412C23.5196 2.85659 23.2652 2.75123 23 2.75123ZM16.667 5.50122C16.3209 5.50122 15.9825 5.39859 15.6948 5.2063C15.407 5.014 15.1827 4.74069 15.0502 4.42092C14.9178 4.10115 14.8831 3.74929 14.9506 3.40982C15.0181 3.07035 15.1848 2.75853 15.4296 2.51379C15.6743 2.26905 15.9861 2.10238 16.3256 2.03486C16.6651 1.96733 17.0169 2.00199 17.3367 2.13444C17.6565 2.26689 17.9298 2.4912 18.1221 2.77898C18.3144 3.06677 18.417 3.40511 18.417 3.75123C18.4165 4.21519 18.2319 4.66 17.9039 4.98808C17.5758 5.31615 17.131 5.50069 16.667 5.50122V5.50122Z" fill="var(--fill-0, #3A4F39)"/>
</svg>
