<svg preserveAspectRatio="none" width="100%" height="100%" overflow="visible" style="display: block;" viewBox="0 0 24 12" fill="none" xmlns="http://www.w3.org/2000/svg">
<path id="Vector" d="M23.7141 9.63894L15.5441 1.46894C15.0796 1.00331 14.5279 0.633877 13.9204 0.381813C13.313 0.129748 12.6618 0 12.0041 0C11.3464 0 10.6952 0.129748 10.0878 0.381813C9.4803 0.633877 8.92855 1.00331 8.46409 1.46894L0.294092 9.63894C0.105788 9.82724 0 10.0826 0 10.3489C0 10.6152 0.105788 10.8706 0.294092 11.0589C0.482395 11.2472 0.73779 11.353 1.00409 11.353C1.27039 11.353 1.52579 11.2472 1.71409 11.0589L9.88409 2.88894C10.4466 2.32714 11.2091 2.01158 12.0041 2.01158C12.7991 2.01158 13.5616 2.32714 14.1241 2.88894L22.2941 11.0589C22.3871 11.1527 22.4977 11.2271 22.6195 11.2778C22.7414 11.3286 22.8721 11.3547 23.0041 11.3547C23.1361 11.3547 23.2668 11.3286 23.3887 11.2778C23.5105 11.2271 23.6211 11.1527 23.7141 11.0589C23.8078 10.966 23.8822 10.8554 23.933 10.7335C23.9838 10.6117 24.0099 10.4809 24.0099 10.3489C24.0099 10.2169 23.9838 10.0862 23.933 9.96436C23.8822 9.8425 23.8078 9.7319 23.7141 9.63894V9.63894Z" fill="var(--fill-0, #3A4F39)"/>
</svg>
