<svg preserveAspectRatio="none" width="100%" height="100%" overflow="visible" style="display: block;" viewBox="0 0 24 8" fill="none" xmlns="http://www.w3.org/2000/svg">
<path id="Vector" d="M23 2.75025H10.931C10.7164 1.96052 10.2478 1.26336 9.59767 0.766326C8.94752 0.269291 8.15188 0 7.3335 0C6.51512 0 5.71948 0.269291 5.06933 0.766326C4.41917 1.26336 3.95064 1.96052 3.736 2.75025H1C0.734784 2.75025 0.48043 2.8556 0.292893 3.04314C0.105357 3.23068 0 3.48503 0 3.75025C0 4.01546 0.105357 4.26981 0.292893 4.45735C0.48043 4.64489 0.734784 4.75024 1 4.75024H3.736C3.95064 5.53997 4.41917 6.23713 5.06933 6.73416C5.71948 7.2312 6.51512 7.50049 7.3335 7.50049C8.15188 7.50049 8.94752 7.2312 9.59767 6.73416C10.2478 6.23713 10.7164 5.53997 10.931 4.75024H23C23.2652 4.75024 23.5196 4.64489 23.7071 4.45735C23.8946 4.26981 24 4.01546 24 3.75025C24 3.48503 23.8946 3.23068 23.7071 3.04314C23.5196 2.8556 23.2652 2.75025 23 2.75025ZM7.333 5.50024C6.98688 5.50024 6.64854 5.3976 6.36075 5.20531C6.07297 5.01302 5.84866 4.73971 5.71621 4.41994C5.58376 4.10017 5.5491 3.7483 5.61663 3.40884C5.68415 3.06937 5.85082 2.75755 6.09556 2.51281C6.3403 2.26807 6.65213 2.1014 6.99159 2.03388C7.33106 1.96635 7.68293 2.00101 8.0027 2.13346C8.32247 2.26592 8.59578 2.49022 8.78807 2.778C8.98036 3.06579 9.083 3.40413 9.083 3.75025C9.08221 4.21413 8.89758 4.65879 8.56956 4.9868C8.24154 5.31482 7.79689 5.49945 7.333 5.50024V5.50024Z" fill="var(--fill-0, #3A4F39)"/>
</svg>
