<svg preserveAspectRatio="none" width="100%" height="100%" overflow="visible" style="display: block;" viewBox="0 0 12 19" fill="none" xmlns="http://www.w3.org/2000/svg">
<path id="Vector" d="M3.5042 18.122C3.7828 18.4008 4.11361 18.6219 4.47771 18.7728C4.84181 18.9237 5.23207 19.0014 5.6262 19.0014C6.02033 19.0014 6.41059 18.9237 6.7747 18.7728C7.1388 18.6219 7.4696 18.4008 7.7482 18.122L10.9592 14.911C11.1314 14.7206 11.2237 14.4713 11.2171 14.2147C11.2105 13.958 11.1055 13.7138 10.9238 13.5325C10.7421 13.3512 10.4976 13.2467 10.241 13.2406C9.98437 13.2346 9.73524 13.3274 9.5452 13.5L6.6192 16.427L6.6262 1C6.6262 0.734784 6.52085 0.48043 6.33331 0.292893C6.14577 0.105357 5.89142 0 5.6262 0V0C5.36099 0 5.10663 0.105357 4.9191 0.292893C4.73156 0.48043 4.6262 0.734784 4.6262 1L4.6172 16.408L1.7072 13.5C1.51956 13.3125 1.26512 13.2072 0.999849 13.2073C0.734579 13.2074 0.480211 13.3129 0.292703 13.5005C0.105195 13.6881 -9.37056e-05 13.9426 6.25777e-08 14.2079C9.38308e-05 14.4731 0.105562 14.7275 0.293202 14.915L3.5042 18.122Z" fill="var(--fill-0, #3A4F39)"/>
</svg>
