<svg preserveAspectRatio="none" width="100%" height="100%" overflow="visible" style="display: block;" viewBox="0 0 24 24" fill="none" xmlns="http://www.w3.org/2000/svg">
<path id="Vector" d="M21.9328 12.875C21.74 15.1548 20.7735 17.3002 19.1937 18.9552C17.6139 20.6102 15.5157 21.6754 13.2473 21.9739C10.9789 22.2725 8.67664 21.7866 6.7224 20.5967C4.76816 19.4069 3.27946 17.5846 2.50327 15.4324C1.72708 13.2801 1.71007 10.9271 2.45505 8.76383C3.20004 6.60055 4.66224 4.75699 6.59907 3.53901C8.5359 2.32103 10.8309 1.80184 13.1034 2.06758C15.3759 2.33332 17.4892 3.36801 19.0928 5H15.9708C15.7056 5 15.4512 5.10536 15.2637 5.29289C15.0761 5.48043 14.9708 5.73478 14.9708 6C14.9708 6.26522 15.0761 6.51957 15.2637 6.70711C15.4512 6.89464 15.7056 7 15.9708 7H20.1138C20.6062 6.99974 21.0784 6.804 21.4266 6.45581C21.7748 6.10761 21.9705 5.63543 21.9708 5.143V1C21.9708 0.734784 21.8654 0.48043 21.6779 0.292893C21.4903 0.105357 21.236 0 20.9708 0V0C20.7056 0 20.4512 0.105357 20.2637 0.292893C20.0761 0.48043 19.9708 0.734784 19.9708 1V3.078C17.9595 1.28073 15.4007 0.214484 12.7082 0.0517113C10.0158 -0.111061 7.34722 0.639157 5.13403 2.18103C2.92083 3.72291 1.29247 5.96628 0.512286 8.54832C-0.267894 11.1304 -0.154266 13.9001 0.834793 16.4095C1.82385 18.919 3.63051 21.0214 5.96256 22.3768C8.29462 23.7322 11.0157 24.2614 13.6857 23.8786C16.3558 23.4958 18.8186 22.2236 20.676 20.2676C22.5333 18.3116 23.6766 15.7863 23.9208 13.1C23.9337 12.9607 23.9175 12.8203 23.8731 12.6877C23.8288 12.555 23.7573 12.4331 23.6632 12.3296C23.5691 12.2261 23.4545 12.1434 23.3267 12.0866C23.1989 12.0299 23.0606 12.0004 22.9208 12C22.6768 11.9971 22.4405 12.085 22.2579 12.2468C22.0752 12.4085 21.9593 12.6325 21.9328 12.875V12.875Z" fill="var(--fill-0, #3A4F39)"/>
</svg>
