<svg preserveAspectRatio="none" width="100%" height="100%" overflow="visible" style="display: block;" viewBox="0 0 24 24" fill="none" xmlns="http://www.w3.org/2000/svg">
<path id="Vector" d="M14.9607 7.01229V3.01229C14.9607 2.74707 15.066 2.49272 15.2535 2.30518C15.4411 2.11764 15.6954 2.01229 15.9607 2.01229C16.2259 2.01229 16.4802 2.11764 16.6678 2.30518C16.8553 2.49272 16.9606 2.74707 16.9606 3.01229V5.62329C17.5906 4.98929 21.6617 0.897288 22.2537 0.305288C22.3459 0.209778 22.4562 0.133596 22.5782 0.0811868C22.7002 0.0287778 22.8315 0.00119157 22.9642 3.77567e-05C23.097 -0.00111606 23.2287 0.0241857 23.3516 0.0744665C23.4745 0.124747 23.5862 0.199001 23.68 0.292893C23.7739 0.386786 23.8482 0.498438 23.8985 0.621334C23.9488 0.744231 23.9741 0.87591 23.9729 1.00869C23.9717 1.14147 23.9442 1.27269 23.8918 1.39469C23.8393 1.5167 23.7632 1.62704 23.6677 1.71929C23.0757 2.31129 19.0257 6.38429 18.3997 7.01229H20.9606C21.2259 7.01229 21.4802 7.11765 21.6678 7.30518C21.8553 7.49272 21.9606 7.74707 21.9606 8.01229C21.9606 8.2775 21.8553 8.53186 21.6678 8.71939C21.4802 8.90693 21.2259 9.01229 20.9606 9.01229H16.9606C16.4302 9.01229 15.9215 8.80157 15.5464 8.4265C15.1714 8.05143 14.9607 7.54272 14.9607 7.01229ZM23.0557 16.7513C23.6352 17.3324 23.9606 18.1196 23.9606 18.9403C23.9606 19.761 23.6352 20.5482 23.0557 21.1293L22.1437 22.1793C13.9527 30.0173 -5.97535 10.0953 1.74365 1.87929L2.89365 0.879288C3.47529 0.315834 4.25538 0.00402707 5.06515 0.0113257C5.87492 0.0186243 6.64926 0.344441 7.22065 0.918288C7.25165 0.948288 9.10365 3.35629 9.10365 3.35629C9.65157 3.93483 9.95644 4.70166 9.95532 5.49849C9.95421 6.29531 9.64719 7.06128 9.09765 7.63829L7.93965 9.09429C8.58064 10.6513 9.52291 12.0664 10.7123 13.2582C11.9018 14.45 13.3149 15.3952 14.8707 16.0393L16.3356 14.8743C16.9115 14.3233 17.6775 14.0153 18.4744 14.0141C19.2714 14.013 20.0383 14.3189 20.6157 14.8683C20.6157 14.8683 23.0247 16.7213 23.0557 16.7513V16.7513ZM21.6807 18.2053C21.6807 18.2053 19.2876 16.3633 19.2566 16.3333C19.0506 16.129 18.7723 16.0144 18.4821 16.0144C18.192 16.0144 17.9137 16.129 17.7076 16.3333C17.6806 16.3593 15.6637 17.9673 15.6637 17.9673C15.5277 18.0755 15.366 18.1464 15.1943 18.173C15.0226 18.1997 14.847 18.1812 14.6847 18.1193C12.6681 17.369 10.8364 16.1939 9.31374 14.6737C7.79111 13.1535 6.61312 11.3237 5.85965 9.30829C5.79285 9.14374 5.77107 8.96438 5.79655 8.78863C5.82204 8.61288 5.89386 8.44708 6.00465 8.30829C6.00465 8.30829 7.61265 6.29429 7.63965 6.26829C7.84392 6.06227 7.95853 5.7839 7.95853 5.49379C7.95853 5.20367 7.84392 4.9253 7.63965 4.71929C7.60965 4.68929 5.76765 2.29429 5.76765 2.29429C5.55855 2.1068 5.28565 2.00638 5.0049 2.01363C4.72414 2.02089 4.45679 2.13525 4.25765 2.33329L3.10765 3.33329C-2.53435 10.1163 14.7377 26.4303 20.6807 20.8163L21.5926 19.7653C21.8077 19.568 21.9372 19.2945 21.9536 19.0032C21.97 18.7118 21.8721 18.4255 21.6807 18.2053V18.2053Z" fill="var(--fill-0, #3A4F39)"/>
</svg>
