<svg preserveAspectRatio="none" width="100%" height="100%" overflow="visible" style="display: block;" viewBox="0 0 5 10" fill="none" xmlns="http://www.w3.org/2000/svg">
<path id="Vector" d="M1 0C0.734783 0 0.48043 0.105357 0.292893 0.292893C0.105357 0.48043 0 0.734784 0 1V6C5.66374e-05 6.2652 0.105451 6.51951 0.293 6.707L3.293 9.707C3.4816 9.88916 3.7342 9.98995 3.9964 9.98767C4.2586 9.9854 4.50941 9.88023 4.69482 9.69482C4.88023 9.50941 4.98539 9.2586 4.98767 8.9964C4.98995 8.73421 4.88916 8.4816 4.707 8.293L2 5.586V1C2 0.734784 1.89464 0.48043 1.70711 0.292893C1.51957 0.105357 1.26522 0 1 0V0Z" fill="var(--fill-0, #3A4F39)"/>
</svg>
