<svg preserveAspectRatio="none" width="100%" height="100%" overflow="visible" style="display: block;" viewBox="0 0 8 14" fill="none" xmlns="http://www.w3.org/2000/svg">
<path id="Vector" d="M1.69169e-05 12.1758V1.00582C-0.00113818 0.807191 0.0568839 0.612722 0.166685 0.447202C0.276487 0.281683 0.433092 0.152612 0.616536 0.0764449C0.79998 0.000278115 1.00195 -0.0195334 1.1967 0.0195363C1.39145 0.0586059 1.57015 0.154787 1.71002 0.295816L7.29003 5.88582C7.47628 6.07318 7.58083 6.32663 7.58083 6.59082C7.58083 6.855 7.47628 7.10845 7.29003 7.29582L1.71002 12.8858C1.57015 13.0268 1.39145 13.123 1.1967 13.1621C1.00195 13.2012 0.79998 13.1814 0.616536 13.1052C0.433092 13.029 0.276487 12.8999 0.166685 12.7344C0.0568839 12.5689 -0.00113818 12.3744 1.69169e-05 12.1758Z" fill="var(--fill-0, #3A4F39)"/>
</svg>
