<svg preserveAspectRatio="none" width="100%" height="100%" overflow="visible" style="display: block;" viewBox="0 0 25 24" fill="none" xmlns="http://www.w3.org/2000/svg">
<path id="Vector" d="M19.3595 14.6672C18.6035 14.6679 17.8589 14.8524 17.19 15.2051C16.5212 15.5577 15.9482 16.0678 15.5205 16.6912L9.01154 13.7522C9.47385 12.6359 9.47565 11.3819 9.01654 10.2642L15.5165 7.31025C16.1504 8.227 17.0919 8.88621 18.1701 9.16829C19.2484 9.45038 20.3921 9.33665 21.3937 8.84775C22.3953 8.35885 23.1885 7.52715 23.6294 6.50351C24.0703 5.47988 24.1297 4.33212 23.7969 3.26842C23.4641 2.20472 22.761 1.29554 21.8153 0.705803C20.8695 0.116061 19.7437 -0.11518 18.6421 0.0540236C17.5405 0.223227 16.5359 0.781668 15.8108 1.62805C15.0856 2.47443 14.6878 3.55269 14.6895 4.66725C14.6938 4.93105 14.7205 5.194 14.7695 5.45325L7.85954 8.59325C7.19588 7.97147 6.36505 7.55708 5.46912 7.40101C4.57318 7.24493 3.65117 7.35396 2.81635 7.71471C1.98153 8.07545 1.27027 8.67218 0.76994 9.43161C0.269611 10.191 0.00200942 11.0801 1.12722e-05 11.9895C-0.00198688 12.8989 0.261705 13.7891 0.758692 14.5507C1.25568 15.3124 1.96432 15.9122 2.79754 16.2766C3.63077 16.641 4.55229 16.7541 5.4489 16.602C6.34551 16.4498 7.17816 16.0391 7.84454 15.4202L14.7725 18.5483C14.7244 18.8073 14.698 19.0698 14.6935 19.3333C14.6933 20.2564 14.9669 21.1588 15.4797 21.9265C15.9924 22.6941 16.7213 23.2924 17.5741 23.6458C18.4269 23.9992 19.3654 24.0917 20.2708 23.9116C21.1762 23.7316 22.0079 23.2871 22.6606 22.6343C23.3134 21.9816 23.7579 21.1499 23.9379 20.2445C24.118 19.3391 24.0255 18.4006 23.6721 17.5478C23.3187 16.695 22.7204 15.9661 21.9528 15.4534C21.1851 14.9406 20.2827 14.6671 19.3595 14.6672V14.6672ZM19.3595 2.00025C19.8871 2.00005 20.4028 2.1563 20.8415 2.44923C21.2802 2.74217 21.6222 3.15862 21.8242 3.64594C22.0263 4.13325 22.0792 4.66953 21.9764 5.18694C21.8736 5.70435 21.6197 6.17966 21.2468 6.55275C20.8738 6.92583 20.3986 7.17994 19.8812 7.28293C19.3638 7.38592 18.8275 7.33316 18.3402 7.13133C17.8528 6.9295 17.4362 6.58767 17.1431 6.14906C16.85 5.71045 16.6935 5.19477 16.6935 4.66725C16.6941 3.96025 16.9751 3.28235 17.4749 2.78233C17.9748 2.28232 18.6525 2.00104 19.3595 2.00025V2.00025ZM4.69354 14.6672C4.16602 14.6674 3.65028 14.5112 3.21157 14.2183C2.77285 13.9253 2.43086 13.5089 2.22884 13.0216C2.02683 12.5342 1.97387 11.998 2.07667 11.4806C2.17946 10.9631 2.43339 10.4878 2.80634 10.1147C3.17928 9.74166 3.6545 9.48756 4.17187 9.38457C4.68924 9.28158 5.22554 9.33434 5.71293 9.53617C6.20032 9.738 6.61691 10.0798 6.91 10.5184C7.2031 10.957 7.35954 11.4727 7.35954 12.0002C7.35875 12.7072 7.07765 13.3849 6.57787 13.8849C6.0781 14.3848 5.40046 14.6662 4.69354 14.6672ZM19.3595 22.0003C18.8321 22.0003 18.3164 21.8438 17.8778 21.5508C17.4393 21.2577 17.0974 20.8412 16.8956 20.3539C16.6937 19.8665 16.6409 19.3303 16.7438 18.8129C16.8467 18.2956 17.1007 17.8204 17.4737 17.4474C17.8467 17.0744 18.3219 16.8204 18.8392 16.7175C19.3566 16.6146 19.8928 16.6674 20.3802 16.8693C20.8675 17.0711 21.284 17.413 21.5771 17.8515C21.8701 18.2901 22.0265 18.8058 22.0265 19.3333C22.026 20.0404 21.7449 20.7185 21.2448 21.2185C20.7448 21.7186 20.0667 21.9997 19.3595 22.0003V22.0003Z" fill="var(--fill-0, #3A4F39)"/>
</svg>
