<svg preserveAspectRatio="none" width="100%" height="100%" overflow="visible" style="display: block;" viewBox="0 0 12 24" fill="none" xmlns="http://www.w3.org/2000/svg">
<path id="Vector" d="M1.0058 24.0041C0.874192 24.0048 0.743729 23.9796 0.621892 23.9298C0.500055 23.8801 0.389238 23.8067 0.295798 23.7141C0.20207 23.6211 0.127676 23.5105 0.0769072 23.3886C0.0261385 23.2668 0 23.1361 0 23.0041C0 22.8721 0.0261385 22.7413 0.0769072 22.6195C0.127676 22.4976 0.20207 22.387 0.295798 22.2941L8.4658 14.1241C9.0276 13.5616 9.34316 12.7991 9.34316 12.0041C9.34316 11.2091 9.0276 10.4466 8.4658 9.88408L0.295798 1.71409C0.107495 1.52579 0.0017066 1.27039 0.0017066 1.00409C0.0017066 0.737789 0.107495 0.482395 0.295798 0.294091C0.484102 0.105788 0.739497 0 1.0058 0C1.2721 0 1.52749 0.105788 1.7158 0.294091L9.8858 8.46408C10.3514 8.92854 10.7209 9.48029 10.9729 10.0877C11.225 10.6952 11.3547 11.3464 11.3547 12.0041C11.3547 12.6617 11.225 13.313 10.9729 13.9204C10.7209 14.5279 10.3514 15.0796 9.8858 15.5441L1.7158 23.7141C1.62236 23.8067 1.51154 23.8801 1.3897 23.9298C1.26787 23.9796 1.1374 24.0048 1.0058 24.0041Z" fill="var(--fill-0, #3A4F39)"/>
</svg>
