<svg preserveAspectRatio="none" width="100%" height="100%" overflow="visible" style="display: block;" viewBox="0 0 12 24" fill="none" xmlns="http://www.w3.org/2000/svg">
<path id="Vector" d="M10.3489 24.0041C10.2173 24.0048 10.0869 23.9796 9.96503 23.9298C9.84319 23.8801 9.73238 23.8067 9.63894 23.7141L1.46894 15.5441C1.00331 15.0796 0.633877 14.5279 0.381813 13.9204C0.129748 13.313 0 12.6617 0 12.0041C0 11.3464 0.129748 10.6952 0.381813 10.0877C0.633877 9.48029 1.00331 8.92854 1.46894 8.46408L9.63894 0.294091C9.73218 0.200853 9.84287 0.126892 9.96469 0.0764318C10.0865 0.0259716 10.2171 9.82427e-10 10.3489 0C10.4808 -9.82426e-10 10.6114 0.0259716 10.7332 0.0764318C10.855 0.126892 10.9657 0.200853 11.0589 0.294091C11.1522 0.38733 11.2261 0.49802 11.2766 0.619842C11.3271 0.741664 11.353 0.872231 11.353 1.00409C11.353 1.13595 11.3271 1.26652 11.2766 1.38834C11.2261 1.51016 11.1522 1.62085 11.0589 1.71409L2.88894 9.88408C2.32714 10.4466 2.01158 11.2091 2.01158 12.0041C2.01158 12.7991 2.32714 13.5616 2.88894 14.1241L11.0589 22.2941C11.1527 22.387 11.2271 22.4976 11.2778 22.6195C11.3286 22.7413 11.3547 22.8721 11.3547 23.0041C11.3547 23.1361 11.3286 23.2668 11.2778 23.3886C11.2271 23.5105 11.1527 23.6211 11.0589 23.7141C10.9655 23.8067 10.8547 23.8801 10.7328 23.9298C10.611 23.9796 10.4805 24.0048 10.3489 24.0041Z" fill="var(--fill-0, #3A4F39)"/>
</svg>
