<svg preserveAspectRatio="none" width="100%" height="100%" overflow="visible" style="display: block;" viewBox="0 0 14 8" fill="none" xmlns="http://www.w3.org/2000/svg">
<path id="Vector" d="M0.995807 7.58578H12.1758C12.3736 7.58496 12.5667 7.5255 12.7306 7.41494C12.8946 7.30438 13.0222 7.14767 13.0971 6.96464C13.172 6.78161 13.191 6.58047 13.1516 6.38665C13.1122 6.19284 13.0162 6.01506 12.8758 5.87579L7.29581 0.295798C7.20284 0.20207 7.09224 0.127676 6.97038 0.076907C6.84853 0.0261384 6.71782 0 6.58581 0C6.4538 0 6.32309 0.0261384 6.20123 0.076907C6.07937 0.127676 5.96877 0.20207 5.87581 0.295798L0.295808 5.87579C0.155386 6.01506 0.059415 6.19284 0.0200298 6.38665C-0.0193553 6.58047 -0.000386119 6.78161 0.0745395 6.96464C0.149465 7.14767 0.276982 7.30438 0.440965 7.41494C0.604949 7.5255 0.798035 7.58496 0.995807 7.58578V7.58578Z" fill="var(--fill-0, #3A4F39)"/>
</svg>
