<svg preserveAspectRatio="none" width="100%" height="100%" overflow="visible" style="display: block;" viewBox="0 0 16 25" fill="none" xmlns="http://www.w3.org/2000/svg">
<path id="Vector" d="M11.008 24.0201C10.4538 24.021 9.91005 23.8687 9.43694 23.58C8.96382 23.2913 8.5797 22.8774 8.327 22.3841L5.2 15.6801L1.658 18.7731C1.51338 18.8995 1.33542 18.9816 1.14541 19.0095C0.955392 19.0374 0.761354 19.01 0.586487 18.9306C0.411619 18.8512 0.263321 18.7231 0.159317 18.5617C0.0553126 18.4002 3.44654e-06 18.2122 3.35332e-09 18.0201V3.00014C-2.73143e-05 2.42226 0.166853 1.85666 0.480578 1.37135C0.794304 0.886034 1.24152 0.50166 1.76847 0.264432C2.29542 0.0272045 2.87968 -0.0527797 3.45099 0.0340948C4.02231 0.120969 4.55638 0.371005 4.989 0.754144L15.689 10.9921C15.8278 11.1248 15.9256 11.2945 15.9705 11.4812C16.0154 11.6679 16.0057 11.8635 15.9424 12.0448C15.8792 12.2261 15.765 12.3853 15.6137 12.5035C15.4624 12.6216 15.2802 12.6937 15.089 12.7111L10.621 13.1181L13.686 19.6871C13.9125 20.1438 14.0189 20.6506 13.9952 21.1598C13.9714 21.669 13.8184 22.1638 13.5504 22.5974C13.2824 23.031 12.9083 23.3892 12.4635 23.6381C12.0187 23.887 11.5177 24.0185 11.008 24.0201ZM5.543 13.0521C5.61253 13.0522 5.68188 13.0592 5.75 13.0731C5.90181 13.1052 6.0441 13.1721 6.16559 13.2686C6.28708 13.3651 6.38445 13.4885 6.45 13.6291L10.125 21.5051C10.1867 21.6212 10.2707 21.7239 10.3721 21.8075C10.4735 21.891 10.5904 21.9538 10.7161 21.9922C10.8418 22.0306 10.9738 22.0439 11.1046 22.0313C11.2354 22.0186 11.3625 21.9804 11.4785 21.9186C11.5945 21.8569 11.6973 21.773 11.7808 21.6715C11.8644 21.5701 11.9272 21.4532 11.9656 21.3275C12.004 21.2018 12.0172 21.0698 12.0046 20.939C11.992 20.8082 11.9537 20.6812 11.892 20.5651L8.21 12.6741C8.14209 12.5287 8.11018 12.3691 8.11695 12.2088C8.12372 12.0485 8.16898 11.8921 8.24891 11.7529C8.32883 11.6138 8.44108 11.4959 8.57616 11.4093C8.71124 11.3226 8.86519 11.2698 9.025 11.2551L12.725 10.9181L3.634 2.22614C3.49154 2.10508 3.31718 2.02767 3.13183 2.00319C2.94648 1.97871 2.75801 2.00821 2.589 2.08814C2.41235 2.16584 2.26238 2.29366 2.15768 2.45578C2.05298 2.61789 1.99815 2.80717 2 3.00014V15.8201L4.885 13.3001C5.06708 13.1405 5.30088 13.0524 5.543 13.0521V13.0521Z" fill="var(--fill-0, #3A4F39)"/>
</svg>
