<svg preserveAspectRatio="none" width="100%" height="100%" overflow="visible" style="display: block;" viewBox="0 0 6 10" fill="none" xmlns="http://www.w3.org/2000/svg">
<path id="Vector" d="M4.84223 0C4.57701 0 4.32266 0.105357 4.13512 0.292893C3.94759 0.480429 3.84223 0.734782 3.84223 0.999998V5.32499L0.471232 7.43699C0.245798 7.57782 0.0855411 7.80243 0.025717 8.06142C-0.0341071 8.32041 0.0114015 8.59255 0.152231 8.81799C0.293061 9.04342 0.517677 9.20368 0.776664 9.2635C1.03565 9.32332 1.3078 9.27782 1.53323 9.13699L5.37323 6.73699C5.51832 6.64609 5.63763 6.51945 5.71975 6.36922C5.80187 6.21899 5.84405 6.05019 5.84223 5.87899V0.999998C5.84223 0.734782 5.73687 0.480429 5.54934 0.292893C5.3618 0.105357 5.10745 0 4.84223 0Z" fill="var(--fill-0, #3A4F39)"/>
</svg>
