<svg preserveAspectRatio="none" width="100%" height="100%" overflow="visible" style="display: block;" viewBox="0 0 9 9" fill="none" xmlns="http://www.w3.org/2000/svg">
<path id="Vector" d="M8.2807 0.292787C8.09317 0.105316 7.83886 0 7.5737 0C7.30853 0 7.05423 0.105316 6.8667 0.292787L4.2807 2.87879L1.69471 0.292787C1.50611 0.110629 1.25351 0.0098342 0.991309 0.0121126C0.729113 0.014391 0.4783 0.11956 0.292893 0.304968C0.107485 0.490376 0.00231622 0.741189 3.78026e-05 1.00339C-0.00224061 1.26558 0.0985535 1.51818 0.280711 1.70679L2.86671 4.29279L0.280711 6.87879C0.0985535 7.06739 -0.00224061 7.31999 3.78026e-05 7.58219C0.00231622 7.84438 0.107485 8.0952 0.292893 8.2806C0.4783 8.46601 0.729113 8.57118 0.991309 8.57346C1.25351 8.57574 1.50611 8.47494 1.69471 8.29279L4.2807 5.70679L6.8667 8.29279C7.0553 8.47494 7.3079 8.57574 7.5701 8.57346C7.8323 8.57118 8.08311 8.46601 8.26852 8.2806C8.45392 8.0952 8.55909 7.84438 8.56137 7.58219C8.56365 7.31999 8.46286 7.06739 8.2807 6.87879L5.6947 4.29279L8.2807 1.70679C8.46817 1.51926 8.57348 1.26495 8.57348 0.999786C8.57348 0.734622 8.46817 0.480314 8.2807 0.292787Z" fill="var(--fill-0, #3A4F39)"/>
</svg>
