<svg preserveAspectRatio="none" width="100%" height="100%" overflow="visible" style="display: block;" viewBox="0 0 24 13" fill="none" xmlns="http://www.w3.org/2000/svg">
<path id="Vector" d="M0.87736 8.3858L4.74736 12.2958C4.84032 12.3895 4.95092 12.4639 5.07278 12.5147C5.19464 12.5655 5.32535 12.5916 5.45736 12.5916C5.58937 12.5916 5.72008 12.5655 5.84194 12.5147C5.9638 12.4639 6.0744 12.3895 6.16736 12.2958C6.26109 12.2028 6.33548 12.0922 6.38625 11.9704C6.43702 11.8485 6.46316 11.7178 6.46316 11.5858C6.46316 11.4538 6.43702 11.3231 6.38625 11.2012C6.33548 11.0794 6.26109 10.9688 6.16736 10.8758L2.60736 7.2958H22.9974C23.2626 7.2958 23.5169 7.19044 23.7045 7.0029C23.892 6.81537 23.9974 6.56101 23.9974 6.2958C23.9974 6.03058 23.892 5.77623 23.7045 5.58869C23.5169 5.40116 23.2626 5.2958 22.9974 5.2958H2.54736L6.16736 1.6758C6.34465 1.48982 6.44355 1.24274 6.44355 0.985798C6.44355 0.728857 6.34465 0.481775 6.16736 0.295798C6.0744 0.20207 5.9638 0.127675 5.84194 0.0769067C5.72008 0.026138 5.58937 0 5.45736 0C5.32535 0 5.19464 0.026138 5.07278 0.0769067C4.95092 0.127675 4.84032 0.20207 4.74736 0.295798L0.87736 4.1458C0.315558 4.7083 0 5.4708 0 6.2658C0 7.0608 0.315558 7.8233 0.87736 8.3858V8.3858Z" fill="var(--fill-0, #3A4F39)"/>
</svg>
