<svg preserveAspectRatio="none" width="100%" height="100%" overflow="visible" style="display: block;" viewBox="0 0 24 8" fill="none" xmlns="http://www.w3.org/2000/svg">
<path id="Vector" d="M23 0C22.7348 0 22.4804 0.105356 22.2929 0.292892C22.1054 0.480428 22 0.734782 22 0.999998V4.99999C22 5.26521 21.8946 5.51956 21.7071 5.7071C21.5196 5.89463 21.2652 5.99999 21 5.99999H3C2.73478 5.99999 2.48043 5.89463 2.29289 5.7071C2.10536 5.51956 2 5.26521 2 4.99999V0.999998C2 0.734782 1.89464 0.480428 1.70711 0.292892C1.51957 0.105356 1.26522 0 1 0V0C0.734784 0 0.48043 0.105356 0.292893 0.292892C0.105357 0.480428 0 0.734782 0 0.999998L0 4.99999C0 5.79564 0.31607 6.5587 0.87868 7.12131C1.44129 7.68392 2.20435 7.99998 3 7.99998H21C21.7956 7.99998 22.5587 7.68392 23.1213 7.12131C23.6839 6.5587 24 5.79564 24 4.99999V0.999998C24 0.734782 23.8946 0.480428 23.7071 0.292892C23.5196 0.105356 23.2652 0 23 0Z" fill="var(--fill-0, #3A4F39)"/>
</svg>
