<svg preserveAspectRatio="none" width="100%" height="100%" overflow="visible" style="display: block;" viewBox="0 0 24 24" fill="none" xmlns="http://www.w3.org/2000/svg">
<path id="Vector" d="M12.9609 1.0016C12.9609 0.736381 13.0663 0.482027 13.2538 0.29449C13.4413 0.106954 13.6957 0.00159697 13.9609 0.00159697C16.6122 0.00450857 19.154 1.05901 21.0287 2.93375C22.9035 4.80848 23.958 7.35033 23.9609 10.0016C23.9609 10.2668 23.8555 10.5212 23.668 10.7087C23.4805 10.8962 23.2261 11.0016 22.9609 11.0016C22.6957 11.0016 22.4413 10.8962 22.2538 10.7087C22.0663 10.5212 21.9609 10.2668 21.9609 10.0016C21.9585 7.8806 21.1149 5.84715 19.6151 4.34737C18.1153 2.8476 16.0819 2.00398 13.9609 2.0016C13.6957 2.0016 13.4413 1.89624 13.2538 1.7087C13.0663 1.52117 12.9609 1.26681 12.9609 1.0016V1.0016ZM13.9609 6.0016C15.0218 6.0016 16.0392 6.42302 16.7893 7.17317C17.5395 7.92332 17.9609 8.94073 17.9609 10.0016C17.9609 10.2668 18.0663 10.5212 18.2538 10.7087C18.4413 10.8962 18.6957 11.0016 18.9609 11.0016C19.2261 11.0016 19.4805 10.8962 19.668 10.7087C19.8555 10.5212 19.9609 10.2668 19.9609 10.0016C19.9593 8.41079 19.3267 6.88559 18.2018 5.76071C17.0769 4.63584 15.5517 4.00319 13.9609 4.0016C13.6957 4.0016 13.4413 4.10695 13.2538 4.29449C13.0663 4.48203 12.9609 4.73638 12.9609 5.0016C12.9609 5.26681 13.0663 5.52117 13.2538 5.7087C13.4413 5.89624 13.6957 6.0016 13.9609 6.0016V6.0016ZM23.0539 16.7406C23.6334 17.3217 23.9588 18.1089 23.9588 18.9296C23.9588 19.7503 23.6334 20.5375 23.0539 21.1186L22.1439 22.1676C13.9539 30.0086 -5.97607 10.0836 1.74392 1.8676L2.89392 0.867597C3.47569 0.304274 4.25585 -0.00735395 5.06562 0.00013181C5.87539 0.00761757 6.64966 0.333615 7.22091 0.907597C7.25191 0.938597 9.10491 3.3456 9.10491 3.3456C9.65474 3.92323 9.96082 4.69053 9.95951 5.488C9.95821 6.28547 9.64963 7.05177 9.09791 7.6276L7.93991 9.0836C8.58076 10.6407 9.52297 12.0558 10.7124 13.2477C11.9019 14.4395 13.3151 15.3846 14.8709 16.0286L16.3359 14.8636C16.9118 14.3123 17.678 14.0041 18.4752 14.003C19.2724 14.0019 20.0394 14.3079 20.6169 14.8576C20.6169 14.8576 23.0229 16.7096 23.0539 16.7406ZM21.6779 18.1946C21.6779 18.1946 19.2849 16.3536 19.2539 16.3226C19.0479 16.1183 18.7695 16.0037 18.4794 16.0037C18.1893 16.0037 17.9109 16.1183 17.7049 16.3226C17.6779 16.3506 15.6609 17.9576 15.6609 17.9576C15.525 18.0658 15.3632 18.1367 15.1916 18.1634C15.0199 18.19 14.8442 18.1715 14.6819 18.1096C12.6664 17.3592 10.8356 16.1843 9.31375 14.6647C7.79185 13.145 6.61432 11.316 5.86092 9.3016C5.79411 9.13705 5.77234 8.95769 5.79782 8.78194C5.8233 8.60619 5.89513 8.44039 6.00592 8.3016C6.00592 8.3016 7.61291 6.2836 7.63991 6.2576C7.84418 6.05158 7.95879 5.77321 7.95879 5.4831C7.95879 5.19298 7.84418 4.91461 7.63991 4.7086C7.60891 4.6786 5.76792 2.2836 5.76792 2.2836C5.55882 2.0961 5.28592 1.99569 5.00516 2.00294C4.72441 2.0102 4.45706 2.12456 4.25792 2.3226L3.10792 3.3226C-2.53407 10.1066 14.7369 26.4196 20.6819 20.8016L21.5929 19.7516C21.8064 19.5539 21.9346 19.2809 21.9505 18.9903C21.9663 18.6997 21.8686 18.4144 21.6779 18.1946V18.1946Z" fill="var(--fill-0, #3A4F39)"/>
</svg>
