<svg preserveAspectRatio="none" width="100%" height="100%" overflow="visible" style="display: block;" viewBox="0 0 14 8" fill="none" xmlns="http://www.w3.org/2000/svg">
<path id="Vector" d="M0.995807 0H12.1758C12.3736 0.00082923 12.5667 0.060284 12.7306 0.170847C12.8946 0.281409 13.0222 0.438115 13.0971 0.621147C13.172 0.804179 13.191 1.00532 13.1516 1.19913C13.1122 1.39294 13.0162 1.57073 12.8758 1.71L7.29581 7.28999C7.20284 7.38372 7.09224 7.45811 6.97038 7.50888C6.84853 7.55965 6.71782 7.58578 6.58581 7.58578C6.4538 7.58578 6.32309 7.55965 6.20123 7.50888C6.07937 7.45811 5.96877 7.38372 5.87581 7.28999L0.295808 1.71C0.155386 1.57073 0.059415 1.39294 0.0200298 1.19913C-0.0193553 1.00532 -0.000386119 0.804179 0.0745395 0.621147C0.149465 0.438115 0.276982 0.281409 0.440965 0.170847C0.604949 0.060284 0.798035 0.00082923 0.995807 0V0Z" fill="var(--fill-0, #3A4F39)"/>
</svg>
