<svg preserveAspectRatio="none" width="100%" height="100%" overflow="visible" style="display: block;" viewBox="0 0 24 24" fill="none" xmlns="http://www.w3.org/2000/svg">
<path id="Vector" d="M0.999787 23.9766C1.26498 23.9766 1.51929 23.8712 1.70679 23.6836L8.32579 17.0646L9.57379 18.3566C10.5144 19.3506 11.8108 19.9311 13.1788 19.9706C13.6348 19.972 14.0877 19.8952 14.5178 19.7436C15.1823 19.5148 15.7662 19.098 16.1984 18.5438C16.6306 17.9896 16.8927 17.3219 16.9528 16.6216C17.0613 15.6075 16.9861 14.5821 16.7308 13.5946L16.5168 12.5526C16.4762 12.386 16.4792 12.2117 16.5255 12.0466C16.5717 11.8815 16.6596 11.731 16.7808 11.6096L18.3678 10.0216C18.4304 9.95879 18.5151 9.9229 18.6038 9.92163C18.6349 9.91584 18.667 9.91886 18.6965 9.93034C18.7261 9.94183 18.7518 9.96132 18.7708 9.98663C19.2731 10.5193 19.9488 10.8554 20.6767 10.9346C21.4045 11.0138 22.1367 10.8308 22.7418 10.4186C23.0968 10.1655 23.3924 9.83806 23.608 9.45904C23.8236 9.08003 23.954 8.65857 23.99 8.22403C24.0261 7.78949 23.967 7.35231 23.8169 6.94294C23.6668 6.53356 23.4292 6.16183 23.1208 5.85363L18.1998 0.930632C17.6945 0.412733 17.0232 0.0889164 16.3034 0.0157977C15.5835 -0.0573209 14.8609 0.124911 14.2618 0.530632C13.9067 0.783665 13.611 1.11107 13.3953 1.49004C13.1796 1.86902 13.0492 2.29045 13.013 2.725C12.9768 3.15954 13.0358 3.59674 13.1859 4.00616C13.3359 4.41558 13.5734 4.78737 13.8818 5.09563L13.9578 5.17163C14.0151 5.22933 14.0472 5.30733 14.0472 5.38863C14.0472 5.46993 14.0151 5.54794 13.9578 5.60563L12.3578 7.20563C12.235 7.32811 12.0826 7.41658 11.9153 7.46233C11.7481 7.50809 11.5718 7.50957 11.4038 7.46663L10.5868 7.25763C9.58184 6.99518 8.53777 6.91624 7.50479 7.02463C6.77215 7.10051 6.07647 7.38426 5.49976 7.84244C4.92305 8.30062 4.48935 8.91412 4.24979 9.61063C3.98835 10.3264 3.9368 11.1019 4.1012 11.846C4.2656 12.59 4.63912 13.2717 5.17779 13.8106L6.93579 15.6306L0.292787 22.2696C0.152977 22.4095 0.0577711 22.5876 0.0192035 22.7816C-0.0193641 22.9756 0.000438906 23.1766 0.0761089 23.3593C0.151779 23.542 0.279919 23.6981 0.444328 23.808C0.608738 23.9179 0.802037 23.9766 0.999787 23.9766ZM6.13479 10.2766C6.24747 9.93595 6.4565 9.63524 6.73657 9.4109C7.01663 9.18657 7.35572 9.04823 7.71279 9.01263C7.94301 8.98867 8.17432 8.97665 8.40579 8.97663C8.9731 8.97666 9.53806 9.04959 10.0868 9.19363L10.9098 9.40363C11.414 9.5312 11.9427 9.52594 12.4443 9.38837C12.9458 9.25079 13.4032 8.9856 13.7718 8.61863L15.3718 7.01863C15.8035 6.58562 16.046 5.9991 16.046 5.38763C16.046 4.77617 15.8035 4.18964 15.3718 3.75663L15.2958 3.68063C15.1922 3.57733 15.1126 3.45258 15.0625 3.31517C15.0124 3.17776 14.9931 3.03103 15.0059 2.88533C15.0187 2.73964 15.0632 2.59851 15.1365 2.47192C15.2097 2.34532 15.3098 2.23633 15.4298 2.15263C15.6432 2.02346 15.8946 1.97182 16.1416 2.00643C16.3886 2.04104 16.6161 2.15979 16.7858 2.34263L21.7098 7.26663C21.8133 7.36993 21.8929 7.49468 21.943 7.63209C21.9931 7.76951 22.0125 7.91623 21.9997 8.06193C21.9869 8.20763 21.9423 8.34875 21.8691 8.47535C21.7958 8.60194 21.6957 8.71093 21.5758 8.79463C21.3601 8.92557 21.1055 8.97724 20.8558 8.94073C20.6061 8.90423 20.377 8.78184 20.2078 8.59463C20.002 8.38249 19.7559 8.21372 19.4838 8.0983C19.2117 7.98288 18.9193 7.92315 18.6238 7.92263C18.0004 7.92547 17.4025 8.17078 16.9568 8.60663L15.3708 10.1936C15.0107 10.554 14.7482 11.0002 14.6083 11.4901C14.4683 11.9799 14.4554 12.4974 14.5708 12.9936L14.7898 14.0516C14.9916 14.8231 15.0529 15.6245 14.9708 16.4176C14.9469 16.7411 14.8285 17.0504 14.6302 17.3071C14.432 17.5639 14.1627 17.7567 13.8558 17.8616C13.3442 17.9961 12.805 17.983 12.3007 17.8237C11.7963 17.6644 11.3473 17.3655 11.0058 16.9616L6.60579 12.4116C6.33142 12.138 6.14124 11.7915 6.05776 11.4131C5.97429 11.0347 6.00102 10.6403 6.13479 10.2766V10.2766Z" fill="var(--fill-0, #3A4F39)"/>
</svg>
