<svg preserveAspectRatio="none" width="100%" height="100%" overflow="visible" style="display: block;" viewBox="0 0 8 14" fill="none" xmlns="http://www.w3.org/2000/svg">
<path id="Vector" d="M5.87079 12.8858L0.290793 7.29582C0.104542 7.10845 0 6.855 0 6.59082C0 6.32663 0.104542 6.07318 0.290793 5.88582L5.87079 0.295816C6.01066 0.154787 6.18936 0.0586059 6.38411 0.0195363C6.57886 -0.0195334 6.78083 0.000278115 6.96427 0.0764449C7.14772 0.152612 7.30432 0.281683 7.41412 0.447202C7.52393 0.612722 7.58195 0.807191 7.58079 1.00582V12.1758C7.58195 12.3744 7.52393 12.5689 7.41412 12.7344C7.30432 12.8999 7.14772 13.029 6.96427 13.1052C6.78083 13.1814 6.57886 13.2012 6.38411 13.1621C6.18936 13.123 6.01066 13.0268 5.87079 12.8858Z" fill="var(--fill-0, #3A4F39)"/>
</svg>
