<svg preserveAspectRatio="none" width="100%" height="100%" overflow="visible" style="display: block;" viewBox="0 0 16 16" fill="none" xmlns="http://www.w3.org/2000/svg">
<path id="Vector" d="M13.8443 8.81919L10.5823 12.0812C9.63521 13.0029 8.3633 13.5148 7.04174 13.5059C5.72018 13.4971 4.45524 12.9682 3.5206 12.0339C2.58596 11.0995 2.05678 9.8347 2.04755 8.51314C2.03833 7.19158 2.54979 5.91953 3.47129 4.97219L6.73329 1.7072C6.9208 1.51956 7.02609 1.26512 7.02599 0.999847C7.0259 0.734577 6.92043 0.48021 6.73279 0.292702C6.54515 0.105194 6.29071 -9.37054e-05 6.02544 6.25776e-08C5.76016 9.38306e-05 5.5058 0.105562 5.31829 0.293202L2.05729 3.5582C0.73956 4.87658 -0.000468632 6.66444 2.22651e-07 8.52845C0.000469078 10.3925 0.741397 12.18 2.05979 13.4977C3.37818 14.8154 5.16604 15.5554 7.03006 15.555C8.89407 15.5545 10.6816 14.8136 11.9993 13.4952L15.2613 10.2332C15.4434 10.0446 15.5442 9.79198 15.542 9.52978C15.5397 9.26759 15.4345 9.01677 15.2491 8.83137C15.0637 8.64596 14.8129 8.54079 14.5507 8.53851C14.2885 8.53623 14.0359 8.63703 13.8473 8.81919H13.8443Z" fill="var(--fill-0, #3A4F39)"/>
</svg>
