<svg preserveAspectRatio="none" width="100%" height="100%" overflow="visible" style="display: block;" viewBox="0 0 8 8" fill="none" xmlns="http://www.w3.org/2000/svg">
<path id="Vector" d="M6.30529 0.280711L0.305288 6.2807C0.209778 6.37295 0.133595 6.48329 0.0811864 6.60529C0.0287774 6.7273 0.00119157 6.85852 3.77564e-05 6.9913C-0.00111606 7.12408 0.0241859 7.25576 0.0744668 7.37865C0.124748 7.50155 0.199001 7.6132 0.292894 7.70709C0.386786 7.80098 0.498438 7.87524 0.621334 7.92552C0.744231 7.9758 0.87591 8.0011 1.00869 7.99995C1.14147 7.99879 1.27269 7.97121 1.39469 7.9188C1.5167 7.86639 1.62704 7.79021 1.71929 7.6947L7.71929 1.69471C7.90145 1.50611 8.00224 1.25351 7.99996 0.991309C7.99768 0.729113 7.89252 0.4783 7.70711 0.292892C7.5217 0.107485 7.27089 0.00231622 7.00869 3.78026e-05C6.74649 -0.00224061 6.49389 0.0985535 6.30529 0.280711Z" fill="var(--fill-0, #3A4F39)"/>
</svg>
