<svg preserveAspectRatio="none" width="100%" height="100%" overflow="visible" style="display: block;" viewBox="0 0 21 24" fill="none" xmlns="http://www.w3.org/2000/svg">
<path id="Vector" d="M10.055 24.002C9.21294 24.0063 8.38211 23.8088 7.63207 23.4261C6.88202 23.0433 6.2346 22.4864 5.744 21.802C1.933 16.545 0 12.593 0 10.055C0 7.38825 1.05936 4.83072 2.94504 2.94504C4.83072 1.05936 7.38825 0 10.055 0C12.7218 0 15.2793 1.05936 17.165 2.94504C19.0506 4.83072 20.11 7.38825 20.11 10.055C20.11 12.593 18.177 16.545 14.366 21.802C13.8754 22.4864 13.228 23.0433 12.4779 23.4261C11.7279 23.8088 10.8971 24.0063 10.055 24.002V24.002ZM10.055 2.183C7.96742 2.18538 5.96602 3.01573 4.48987 4.49187C3.01373 5.96802 2.18338 7.96942 2.181 10.057C2.181 12.067 4.074 15.784 7.51 20.523C7.80169 20.9248 8.18437 21.2518 8.62671 21.4773C9.06906 21.7028 9.5585 21.8203 10.055 21.8203C10.5515 21.8203 11.0409 21.7028 11.4833 21.4773C11.9256 21.2518 12.3083 20.9248 12.6 20.523C16.036 15.784 17.929 12.067 17.929 10.057C17.9266 7.96942 17.0963 5.96802 15.6201 4.49187C14.144 3.01573 12.1426 2.18538 10.055 2.183V2.183Z" fill="var(--fill-0, #3A4F39)"/>
</svg>
