<svg preserveAspectRatio="none" width="100%" height="100%" overflow="visible" style="display: block;" viewBox="0 0 24 25" fill="none" xmlns="http://www.w3.org/2000/svg">
<path id="Vector" d="M24.0011 11.271C23.8565 8.93102 23.0303 6.68451 21.6243 4.80843C20.2184 2.93234 18.2941 1.50869 16.0888 0.712996C13.8836 -0.0827016 11.4936 -0.215665 9.21369 0.330497C6.93375 0.876659 4.86347 2.07807 3.25808 3.78662C1.65269 5.49517 0.582369 7.63616 0.179071 9.94566C-0.224228 12.2552 0.0571252 14.6322 0.988445 16.7837C1.91976 18.9352 3.46034 20.7672 5.42024 22.0538C7.38014 23.3403 9.67369 24.0252 12.0181 24.024H19.0011C20.3268 24.0227 21.5978 23.4955 22.5352 22.5581C23.4726 21.6207 23.9998 20.3497 24.0011 19.024V11.271ZM22.0011 19.024C22.0011 19.8197 21.6851 20.5827 21.1224 21.1453C20.5598 21.7079 19.7968 22.024 19.0011 22.024H12.0181C10.6071 22.0234 9.21197 21.7253 7.92383 21.1493C6.63568 20.5733 5.4834 19.7322 4.54213 18.681C3.5963 17.6303 2.88606 16.3895 2.45902 15.0418C2.03199 13.6941 1.89803 12.2707 2.06613 10.867C2.33156 8.65294 3.32632 6.59019 4.89357 5.00393C6.46082 3.41766 8.51143 2.39811 10.7221 2.106C11.1534 2.05195 11.5875 2.02457 12.0221 2.024C14.3526 2.01764 16.6109 2.8319 18.4011 4.324C19.4467 5.19295 20.3048 6.26515 20.9237 7.47563C21.5425 8.68611 21.909 10.0096 22.0011 11.366V19.024Z" fill="var(--fill-0, #3A4F39)"/>
</svg>
