<svg preserveAspectRatio="none" width="100%" height="100%" overflow="visible" style="display: block;" viewBox="0 0 24 23" fill="none" xmlns="http://www.w3.org/2000/svg">
<path id="Vector" d="M23.9372 8.69015C23.7792 8.20418 23.3482 7.86012 22.8402 7.81416L15.9121 7.18518L13.1741 0.774915C12.972 0.30396 12.512 0 12 0C11.4881 0 11.0279 0.30396 10.827 0.774915L8.08902 7.18518L1.15982 7.81416C0.651881 7.86103 0.221759 8.20509 0.0628208 8.69015C-0.0952019 9.17612 0.0507355 9.70915 0.434897 10.0461L5.67198 14.6382L4.12783 21.4393C4.01485 21.9393 4.20895 22.4564 4.62387 22.7564C4.8469 22.9184 5.10893 22.9993 5.37187 22.9993C5.59783 22.9993 5.82396 22.9393 6.02593 22.8184L12 19.2464L17.973 22.8184C18.4112 23.0803 18.9622 23.0563 19.3762 22.7564C19.7911 22.4564 19.9852 21.9393 19.8722 21.4393L18.3281 14.6382L23.5652 10.0461C23.9491 9.70915 24.0953 9.17722 23.9372 8.69015V8.69015Z" fill="var(--fill-0, #3A4F39)"/>
</svg>
